G04 MADE WITH FRITZING*
G04 WWW.FRITZING.ORG*
G04 DOUBLE SIDED*
G04 HOLES PLATED*
G04 CONTOUR ON CENTER OF CONTOUR VECTOR*
%ASAXBY*%
%FSLAX23Y23*%
%MOIN*%
%OFA0B0*%
%SFA1.0B1.0*%
%ADD10C,0.075000*%
%ADD11C,0.075833*%
%ADD12C,0.082000*%
%ADD13C,0.078000*%
%ADD14C,0.062992*%
%ADD15R,0.075000X0.075000*%
%ADD16R,0.082000X0.082000*%
%ADD17R,0.078000X0.078000*%
%ADD18R,0.062992X0.062992*%
%LNCOPPER0*%
G90*
G70*
G54D10*
X5509Y2406D03*
G54D11*
X3638Y366D03*
X3538Y366D03*
X3431Y366D03*
X3331Y366D03*
X3231Y366D03*
X3131Y366D03*
X3031Y366D03*
X2931Y366D03*
X2831Y366D03*
X2731Y366D03*
X2561Y366D03*
X2461Y366D03*
X2361Y366D03*
X2261Y366D03*
X2161Y366D03*
X2061Y366D03*
X1961Y366D03*
X1861Y366D03*
X3261Y2266D03*
X3161Y2266D03*
X3061Y2266D03*
X2961Y2266D03*
X2861Y2266D03*
X2761Y2266D03*
X2661Y2266D03*
X2561Y2266D03*
X2361Y2266D03*
X2261Y2266D03*
X2161Y2266D03*
X2061Y2266D03*
X1961Y2266D03*
X1861Y2266D03*
G54D10*
X556Y1956D03*
X156Y1956D03*
X4957Y562D03*
X5357Y562D03*
G54D12*
X5357Y962D03*
X5257Y962D03*
X5157Y962D03*
X156Y1556D03*
X256Y1556D03*
X356Y1556D03*
G54D13*
X456Y2260D03*
X456Y2360D03*
X5057Y259D03*
X5057Y159D03*
G54D12*
X5057Y762D03*
X5355Y762D03*
X456Y1756D03*
X158Y1756D03*
G54D10*
X4957Y462D03*
X5357Y462D03*
X556Y2056D03*
X156Y2056D03*
G54D14*
X5257Y257D03*
X5257Y159D03*
X256Y2261D03*
X256Y2360D03*
G54D13*
X5557Y359D03*
X5557Y259D03*
G54D10*
X4361Y566D03*
X4761Y566D03*
X1152Y1952D03*
X752Y1952D03*
G54D12*
X4761Y966D03*
X4661Y966D03*
X4561Y966D03*
X752Y1552D03*
X852Y1552D03*
X952Y1552D03*
G54D13*
X4457Y259D03*
X4457Y159D03*
X1052Y2249D03*
X1052Y2349D03*
G54D12*
X4461Y766D03*
X4759Y766D03*
X1052Y1752D03*
X754Y1752D03*
G54D10*
X4361Y466D03*
X4761Y466D03*
X1152Y2052D03*
X752Y2052D03*
G54D14*
X4657Y257D03*
X4657Y159D03*
X856Y2261D03*
X856Y2360D03*
G54D10*
X3757Y559D03*
X4157Y559D03*
X1756Y1960D03*
X1356Y1960D03*
X5457Y1959D03*
X5057Y1959D03*
X156Y571D03*
X556Y571D03*
G54D12*
X4157Y959D03*
X4057Y959D03*
X3957Y959D03*
X1356Y1560D03*
X1456Y1560D03*
X1556Y1560D03*
X5061Y1577D03*
X5161Y1577D03*
X5261Y1577D03*
X552Y952D03*
X452Y952D03*
X352Y952D03*
G54D13*
X3857Y259D03*
X3857Y159D03*
X1652Y2249D03*
X1652Y2349D03*
X5357Y2259D03*
X5357Y2359D03*
G54D12*
X3857Y759D03*
X4155Y759D03*
X1656Y1760D03*
X1358Y1760D03*
X5361Y1777D03*
X5063Y1777D03*
X252Y752D03*
X550Y752D03*
G54D10*
X3757Y459D03*
X4157Y459D03*
X1756Y2060D03*
X1356Y2060D03*
X5457Y2059D03*
X5057Y2059D03*
X156Y471D03*
X556Y471D03*
G54D14*
X4057Y257D03*
X4057Y159D03*
X1456Y2261D03*
X1456Y2360D03*
X5157Y2260D03*
X5157Y2359D03*
X456Y269D03*
X456Y171D03*
G54D10*
X4261Y1973D03*
X3861Y1973D03*
X1352Y556D03*
X1752Y556D03*
G54D12*
X3861Y1573D03*
X3961Y1573D03*
X4061Y1573D03*
X1752Y956D03*
X1652Y956D03*
X1552Y956D03*
G54D13*
X4157Y2259D03*
X4157Y2359D03*
X1456Y271D03*
X1456Y171D03*
G54D12*
X4161Y1773D03*
X3863Y1773D03*
X1452Y756D03*
X1750Y756D03*
G54D10*
X4261Y2073D03*
X3861Y2073D03*
X1352Y456D03*
X1752Y456D03*
G54D14*
X3957Y2260D03*
X3957Y2359D03*
X1656Y269D03*
X1656Y171D03*
G54D10*
X4857Y1970D03*
X4457Y1970D03*
X756Y560D03*
X1156Y560D03*
G54D12*
X4457Y1570D03*
X4557Y1570D03*
X4657Y1570D03*
X1156Y960D03*
X1056Y960D03*
X956Y960D03*
G54D13*
X4757Y2259D03*
X4757Y2359D03*
X856Y271D03*
X856Y171D03*
G54D12*
X4757Y1770D03*
X4459Y1770D03*
X856Y760D03*
X1154Y760D03*
G54D10*
X4857Y2070D03*
X4457Y2070D03*
X756Y460D03*
X1156Y460D03*
G54D14*
X4557Y2260D03*
X4557Y2359D03*
X1056Y269D03*
X1056Y171D03*
G54D13*
X256Y271D03*
X256Y171D03*
G54D15*
X556Y1956D03*
X4957Y562D03*
G54D16*
X5357Y962D03*
X156Y1556D03*
G54D17*
X456Y2260D03*
X5057Y259D03*
G54D16*
X5056Y762D03*
X457Y1756D03*
G54D15*
X4957Y462D03*
X556Y2056D03*
G54D18*
X5257Y257D03*
X256Y2261D03*
G54D17*
X5557Y359D03*
G54D15*
X4361Y566D03*
X1152Y1952D03*
G54D16*
X4761Y966D03*
X752Y1552D03*
G54D17*
X4457Y259D03*
X1052Y2249D03*
G54D16*
X4460Y766D03*
X1053Y1752D03*
G54D15*
X4361Y466D03*
X1152Y2052D03*
G54D18*
X4657Y257D03*
X856Y2261D03*
G54D15*
X3757Y559D03*
X1756Y1960D03*
X5457Y1959D03*
X156Y571D03*
G54D16*
X4157Y959D03*
X1356Y1560D03*
X5061Y1577D03*
X552Y952D03*
G54D17*
X3857Y259D03*
X1652Y2249D03*
X5357Y2259D03*
G54D16*
X3856Y759D03*
X1657Y1760D03*
X5362Y1777D03*
X251Y752D03*
G54D15*
X3757Y459D03*
X1756Y2060D03*
X5457Y2059D03*
X156Y471D03*
G54D18*
X4057Y257D03*
X1456Y2261D03*
X5157Y2260D03*
X456Y269D03*
G54D15*
X4261Y1973D03*
X1352Y556D03*
G54D16*
X3861Y1573D03*
X1752Y956D03*
G54D17*
X4157Y2259D03*
X1456Y271D03*
G54D16*
X4162Y1773D03*
X1451Y756D03*
G54D15*
X4261Y2073D03*
X1352Y456D03*
G54D18*
X3957Y2260D03*
X1656Y269D03*
G54D15*
X4857Y1970D03*
X756Y560D03*
G54D16*
X4457Y1570D03*
X1156Y960D03*
G54D17*
X4757Y2259D03*
X856Y271D03*
G54D16*
X4758Y1770D03*
X855Y760D03*
G54D15*
X4857Y2070D03*
X756Y460D03*
G54D18*
X4557Y2260D03*
X1056Y269D03*
G54D17*
X256Y271D03*
G36*
X50Y2476D02*
X50Y2436D01*
X5376Y2436D01*
X5376Y2434D01*
X5386Y2434D01*
X5386Y2432D01*
X5390Y2432D01*
X5390Y2430D01*
X5394Y2430D01*
X5394Y2428D01*
X5398Y2428D01*
X5398Y2426D01*
X5402Y2426D01*
X5402Y2424D01*
X5404Y2424D01*
X5404Y2422D01*
X5408Y2422D01*
X5408Y2420D01*
X5410Y2420D01*
X5410Y2418D01*
X5412Y2418D01*
X5412Y2416D01*
X5414Y2416D01*
X5414Y2414D01*
X5416Y2414D01*
X5416Y2412D01*
X5418Y2412D01*
X5418Y2410D01*
X5420Y2410D01*
X5420Y2406D01*
X5422Y2406D01*
X5422Y2404D01*
X5424Y2404D01*
X5424Y2400D01*
X5426Y2400D01*
X5426Y2398D01*
X5428Y2398D01*
X5428Y2394D01*
X5430Y2394D01*
X5430Y2388D01*
X5432Y2388D01*
X5432Y2382D01*
X5434Y2382D01*
X5434Y2194D01*
X5666Y2194D01*
X5666Y2476D01*
X50Y2476D01*
G37*
D02*
G36*
X50Y2436D02*
X50Y2428D01*
X282Y2428D01*
X282Y2426D01*
X286Y2426D01*
X286Y2424D01*
X290Y2424D01*
X290Y2422D01*
X294Y2422D01*
X294Y2420D01*
X298Y2420D01*
X298Y2418D01*
X300Y2418D01*
X300Y2416D01*
X302Y2416D01*
X302Y2414D01*
X304Y2414D01*
X304Y2412D01*
X306Y2412D01*
X306Y2410D01*
X308Y2410D01*
X308Y2408D01*
X310Y2408D01*
X310Y2406D01*
X312Y2406D01*
X312Y2404D01*
X314Y2404D01*
X314Y2402D01*
X316Y2402D01*
X316Y2398D01*
X318Y2398D01*
X318Y2394D01*
X320Y2394D01*
X320Y2390D01*
X322Y2390D01*
X322Y2386D01*
X324Y2386D01*
X324Y2380D01*
X392Y2380D01*
X392Y2388D01*
X394Y2388D01*
X394Y2392D01*
X396Y2392D01*
X396Y2396D01*
X398Y2396D01*
X398Y2400D01*
X400Y2400D01*
X400Y2404D01*
X402Y2404D01*
X402Y2406D01*
X404Y2406D01*
X404Y2410D01*
X406Y2410D01*
X406Y2412D01*
X408Y2412D01*
X408Y2414D01*
X410Y2414D01*
X410Y2416D01*
X412Y2416D01*
X412Y2418D01*
X414Y2418D01*
X414Y2420D01*
X416Y2420D01*
X416Y2422D01*
X420Y2422D01*
X420Y2424D01*
X422Y2424D01*
X422Y2426D01*
X424Y2426D01*
X424Y2428D01*
X428Y2428D01*
X428Y2430D01*
X432Y2430D01*
X432Y2432D01*
X436Y2432D01*
X436Y2434D01*
X442Y2434D01*
X442Y2436D01*
X50Y2436D01*
G37*
D02*
G36*
X480Y2436D02*
X480Y2434D01*
X486Y2434D01*
X486Y2432D01*
X492Y2432D01*
X492Y2430D01*
X496Y2430D01*
X496Y2428D01*
X3980Y2428D01*
X3980Y2426D01*
X3986Y2426D01*
X3986Y2424D01*
X3990Y2424D01*
X3990Y2422D01*
X3994Y2422D01*
X3994Y2420D01*
X3998Y2420D01*
X3998Y2418D01*
X4000Y2418D01*
X4000Y2416D01*
X4002Y2416D01*
X4002Y2414D01*
X4006Y2414D01*
X4006Y2412D01*
X4008Y2412D01*
X4008Y2410D01*
X4010Y2410D01*
X4010Y2408D01*
X4012Y2408D01*
X4012Y2404D01*
X4014Y2404D01*
X4014Y2402D01*
X4016Y2402D01*
X4016Y2400D01*
X4018Y2400D01*
X4018Y2396D01*
X4020Y2396D01*
X4020Y2394D01*
X4022Y2394D01*
X4022Y2388D01*
X4024Y2388D01*
X4024Y2384D01*
X4026Y2384D01*
X4026Y2380D01*
X4094Y2380D01*
X4094Y2386D01*
X4096Y2386D01*
X4096Y2392D01*
X4098Y2392D01*
X4098Y2396D01*
X4100Y2396D01*
X4100Y2400D01*
X4102Y2400D01*
X4102Y2402D01*
X4104Y2402D01*
X4104Y2406D01*
X4106Y2406D01*
X4106Y2408D01*
X4108Y2408D01*
X4108Y2410D01*
X4110Y2410D01*
X4110Y2412D01*
X4112Y2412D01*
X4112Y2414D01*
X4114Y2414D01*
X4114Y2416D01*
X4116Y2416D01*
X4116Y2418D01*
X4118Y2418D01*
X4118Y2420D01*
X4120Y2420D01*
X4120Y2422D01*
X4122Y2422D01*
X4122Y2424D01*
X4126Y2424D01*
X4126Y2426D01*
X4128Y2426D01*
X4128Y2428D01*
X4132Y2428D01*
X4132Y2430D01*
X4136Y2430D01*
X4136Y2432D01*
X4142Y2432D01*
X4142Y2434D01*
X4150Y2434D01*
X4150Y2436D01*
X480Y2436D01*
G37*
D02*
G36*
X4176Y2436D02*
X4176Y2434D01*
X4186Y2434D01*
X4186Y2432D01*
X4190Y2432D01*
X4190Y2430D01*
X4194Y2430D01*
X4194Y2428D01*
X4580Y2428D01*
X4580Y2426D01*
X4586Y2426D01*
X4586Y2424D01*
X4590Y2424D01*
X4590Y2422D01*
X4594Y2422D01*
X4594Y2420D01*
X4598Y2420D01*
X4598Y2418D01*
X4600Y2418D01*
X4600Y2416D01*
X4602Y2416D01*
X4602Y2414D01*
X4606Y2414D01*
X4606Y2412D01*
X4608Y2412D01*
X4608Y2410D01*
X4610Y2410D01*
X4610Y2408D01*
X4612Y2408D01*
X4612Y2404D01*
X4614Y2404D01*
X4614Y2402D01*
X4616Y2402D01*
X4616Y2400D01*
X4618Y2400D01*
X4618Y2396D01*
X4620Y2396D01*
X4620Y2394D01*
X4622Y2394D01*
X4622Y2388D01*
X4624Y2388D01*
X4624Y2384D01*
X4626Y2384D01*
X4626Y2380D01*
X4694Y2380D01*
X4694Y2386D01*
X4696Y2386D01*
X4696Y2392D01*
X4698Y2392D01*
X4698Y2396D01*
X4700Y2396D01*
X4700Y2400D01*
X4702Y2400D01*
X4702Y2402D01*
X4704Y2402D01*
X4704Y2406D01*
X4706Y2406D01*
X4706Y2408D01*
X4708Y2408D01*
X4708Y2410D01*
X4710Y2410D01*
X4710Y2412D01*
X4712Y2412D01*
X4712Y2414D01*
X4714Y2414D01*
X4714Y2416D01*
X4716Y2416D01*
X4716Y2418D01*
X4718Y2418D01*
X4718Y2420D01*
X4720Y2420D01*
X4720Y2422D01*
X4722Y2422D01*
X4722Y2424D01*
X4726Y2424D01*
X4726Y2426D01*
X4728Y2426D01*
X4728Y2428D01*
X4732Y2428D01*
X4732Y2430D01*
X4736Y2430D01*
X4736Y2432D01*
X4742Y2432D01*
X4742Y2434D01*
X4750Y2434D01*
X4750Y2436D01*
X4176Y2436D01*
G37*
D02*
G36*
X4776Y2436D02*
X4776Y2434D01*
X4786Y2434D01*
X4786Y2432D01*
X4790Y2432D01*
X4790Y2430D01*
X4794Y2430D01*
X4794Y2428D01*
X5180Y2428D01*
X5180Y2426D01*
X5186Y2426D01*
X5186Y2424D01*
X5190Y2424D01*
X5190Y2422D01*
X5194Y2422D01*
X5194Y2420D01*
X5198Y2420D01*
X5198Y2418D01*
X5200Y2418D01*
X5200Y2416D01*
X5202Y2416D01*
X5202Y2414D01*
X5206Y2414D01*
X5206Y2412D01*
X5208Y2412D01*
X5208Y2410D01*
X5210Y2410D01*
X5210Y2408D01*
X5212Y2408D01*
X5212Y2404D01*
X5214Y2404D01*
X5214Y2402D01*
X5216Y2402D01*
X5216Y2400D01*
X5218Y2400D01*
X5218Y2396D01*
X5220Y2396D01*
X5220Y2394D01*
X5222Y2394D01*
X5222Y2388D01*
X5224Y2388D01*
X5224Y2384D01*
X5226Y2384D01*
X5226Y2380D01*
X5294Y2380D01*
X5294Y2386D01*
X5296Y2386D01*
X5296Y2392D01*
X5298Y2392D01*
X5298Y2396D01*
X5300Y2396D01*
X5300Y2400D01*
X5302Y2400D01*
X5302Y2402D01*
X5304Y2402D01*
X5304Y2406D01*
X5306Y2406D01*
X5306Y2408D01*
X5308Y2408D01*
X5308Y2410D01*
X5310Y2410D01*
X5310Y2412D01*
X5312Y2412D01*
X5312Y2414D01*
X5314Y2414D01*
X5314Y2416D01*
X5316Y2416D01*
X5316Y2418D01*
X5318Y2418D01*
X5318Y2420D01*
X5320Y2420D01*
X5320Y2422D01*
X5322Y2422D01*
X5322Y2424D01*
X5326Y2424D01*
X5326Y2426D01*
X5328Y2426D01*
X5328Y2428D01*
X5332Y2428D01*
X5332Y2430D01*
X5336Y2430D01*
X5336Y2432D01*
X5342Y2432D01*
X5342Y2434D01*
X5350Y2434D01*
X5350Y2436D01*
X4776Y2436D01*
G37*
D02*
G36*
X50Y2428D02*
X50Y2380D01*
X200Y2380D01*
X200Y2388D01*
X202Y2388D01*
X202Y2392D01*
X204Y2392D01*
X204Y2396D01*
X206Y2396D01*
X206Y2400D01*
X208Y2400D01*
X208Y2402D01*
X210Y2402D01*
X210Y2404D01*
X212Y2404D01*
X212Y2408D01*
X214Y2408D01*
X214Y2410D01*
X216Y2410D01*
X216Y2412D01*
X218Y2412D01*
X218Y2414D01*
X220Y2414D01*
X220Y2416D01*
X224Y2416D01*
X224Y2418D01*
X226Y2418D01*
X226Y2420D01*
X230Y2420D01*
X230Y2422D01*
X232Y2422D01*
X232Y2424D01*
X236Y2424D01*
X236Y2426D01*
X242Y2426D01*
X242Y2428D01*
X50Y2428D01*
G37*
D02*
G36*
X246Y2428D02*
X246Y2380D01*
X276Y2380D01*
X276Y2428D01*
X246Y2428D01*
G37*
D02*
G36*
X498Y2428D02*
X498Y2426D01*
X502Y2426D01*
X502Y2424D01*
X504Y2424D01*
X504Y2422D01*
X506Y2422D01*
X506Y2420D01*
X508Y2420D01*
X508Y2418D01*
X512Y2418D01*
X512Y2416D01*
X514Y2416D01*
X514Y2412D01*
X516Y2412D01*
X516Y2410D01*
X518Y2410D01*
X518Y2408D01*
X520Y2408D01*
X520Y2406D01*
X522Y2406D01*
X522Y2402D01*
X524Y2402D01*
X524Y2400D01*
X526Y2400D01*
X526Y2396D01*
X528Y2396D01*
X528Y2390D01*
X530Y2390D01*
X530Y2384D01*
X532Y2384D01*
X532Y2380D01*
X800Y2380D01*
X800Y2388D01*
X802Y2388D01*
X802Y2392D01*
X804Y2392D01*
X804Y2396D01*
X806Y2396D01*
X806Y2400D01*
X808Y2400D01*
X808Y2402D01*
X810Y2402D01*
X810Y2404D01*
X812Y2404D01*
X812Y2408D01*
X814Y2408D01*
X814Y2410D01*
X816Y2410D01*
X816Y2412D01*
X818Y2412D01*
X818Y2414D01*
X820Y2414D01*
X820Y2416D01*
X824Y2416D01*
X824Y2418D01*
X826Y2418D01*
X826Y2420D01*
X830Y2420D01*
X830Y2422D01*
X832Y2422D01*
X832Y2424D01*
X836Y2424D01*
X836Y2426D01*
X842Y2426D01*
X842Y2428D01*
X498Y2428D01*
G37*
D02*
G36*
X846Y2428D02*
X846Y2380D01*
X876Y2380D01*
X876Y2428D01*
X846Y2428D01*
G37*
D02*
G36*
X882Y2428D02*
X882Y2426D01*
X1072Y2426D01*
X1072Y2424D01*
X1080Y2424D01*
X1080Y2422D01*
X1086Y2422D01*
X1086Y2420D01*
X1090Y2420D01*
X1090Y2418D01*
X1092Y2418D01*
X1092Y2416D01*
X1096Y2416D01*
X1096Y2414D01*
X1098Y2414D01*
X1098Y2412D01*
X1102Y2412D01*
X1102Y2410D01*
X1104Y2410D01*
X1104Y2408D01*
X1106Y2408D01*
X1106Y2406D01*
X1108Y2406D01*
X1108Y2404D01*
X1110Y2404D01*
X1110Y2402D01*
X1112Y2402D01*
X1112Y2400D01*
X1114Y2400D01*
X1114Y2398D01*
X1116Y2398D01*
X1116Y2394D01*
X1118Y2394D01*
X1118Y2392D01*
X1120Y2392D01*
X1120Y2388D01*
X1122Y2388D01*
X1122Y2384D01*
X1124Y2384D01*
X1124Y2380D01*
X1400Y2380D01*
X1400Y2388D01*
X1402Y2388D01*
X1402Y2392D01*
X1404Y2392D01*
X1404Y2396D01*
X1406Y2396D01*
X1406Y2400D01*
X1408Y2400D01*
X1408Y2402D01*
X1410Y2402D01*
X1410Y2404D01*
X1412Y2404D01*
X1412Y2408D01*
X1414Y2408D01*
X1414Y2410D01*
X1416Y2410D01*
X1416Y2412D01*
X1418Y2412D01*
X1418Y2414D01*
X1420Y2414D01*
X1420Y2416D01*
X1424Y2416D01*
X1424Y2418D01*
X1426Y2418D01*
X1426Y2420D01*
X1430Y2420D01*
X1430Y2422D01*
X1432Y2422D01*
X1432Y2424D01*
X1436Y2424D01*
X1436Y2426D01*
X1442Y2426D01*
X1442Y2428D01*
X882Y2428D01*
G37*
D02*
G36*
X1446Y2428D02*
X1446Y2380D01*
X1476Y2380D01*
X1476Y2428D01*
X1446Y2428D01*
G37*
D02*
G36*
X1482Y2428D02*
X1482Y2426D01*
X3948Y2426D01*
X3948Y2380D01*
X3978Y2380D01*
X3978Y2428D01*
X1482Y2428D01*
G37*
D02*
G36*
X4198Y2428D02*
X4198Y2426D01*
X4546Y2426D01*
X4546Y2380D01*
X4576Y2380D01*
X4576Y2428D01*
X4198Y2428D01*
G37*
D02*
G36*
X4798Y2428D02*
X4798Y2426D01*
X5146Y2426D01*
X5146Y2380D01*
X5176Y2380D01*
X5176Y2428D01*
X4798Y2428D01*
G37*
D02*
G36*
X886Y2426D02*
X886Y2424D01*
X890Y2424D01*
X890Y2422D01*
X894Y2422D01*
X894Y2420D01*
X898Y2420D01*
X898Y2418D01*
X900Y2418D01*
X900Y2416D01*
X902Y2416D01*
X902Y2414D01*
X904Y2414D01*
X904Y2412D01*
X906Y2412D01*
X906Y2410D01*
X908Y2410D01*
X908Y2408D01*
X910Y2408D01*
X910Y2406D01*
X912Y2406D01*
X912Y2404D01*
X914Y2404D01*
X914Y2402D01*
X916Y2402D01*
X916Y2398D01*
X918Y2398D01*
X918Y2394D01*
X920Y2394D01*
X920Y2390D01*
X922Y2390D01*
X922Y2386D01*
X924Y2386D01*
X924Y2380D01*
X992Y2380D01*
X992Y2386D01*
X994Y2386D01*
X994Y2388D01*
X996Y2388D01*
X996Y2392D01*
X998Y2392D01*
X998Y2396D01*
X1000Y2396D01*
X1000Y2398D01*
X1002Y2398D01*
X1002Y2400D01*
X1004Y2400D01*
X1004Y2402D01*
X1006Y2402D01*
X1006Y2404D01*
X1008Y2404D01*
X1008Y2406D01*
X1010Y2406D01*
X1010Y2408D01*
X1012Y2408D01*
X1012Y2410D01*
X1014Y2410D01*
X1014Y2412D01*
X1016Y2412D01*
X1016Y2414D01*
X1020Y2414D01*
X1020Y2416D01*
X1022Y2416D01*
X1022Y2418D01*
X1026Y2418D01*
X1026Y2420D01*
X1030Y2420D01*
X1030Y2422D01*
X1036Y2422D01*
X1036Y2424D01*
X1044Y2424D01*
X1044Y2426D01*
X886Y2426D01*
G37*
D02*
G36*
X1486Y2426D02*
X1486Y2424D01*
X1490Y2424D01*
X1490Y2422D01*
X1494Y2422D01*
X1494Y2420D01*
X1498Y2420D01*
X1498Y2418D01*
X1500Y2418D01*
X1500Y2416D01*
X1502Y2416D01*
X1502Y2414D01*
X1504Y2414D01*
X1504Y2412D01*
X1506Y2412D01*
X1506Y2410D01*
X1508Y2410D01*
X1508Y2408D01*
X1510Y2408D01*
X1510Y2406D01*
X1512Y2406D01*
X1512Y2404D01*
X1514Y2404D01*
X1514Y2402D01*
X1516Y2402D01*
X1516Y2398D01*
X1518Y2398D01*
X1518Y2394D01*
X1520Y2394D01*
X1520Y2390D01*
X1522Y2390D01*
X1522Y2386D01*
X1524Y2386D01*
X1524Y2380D01*
X1592Y2380D01*
X1592Y2386D01*
X1594Y2386D01*
X1594Y2388D01*
X1596Y2388D01*
X1596Y2392D01*
X1598Y2392D01*
X1598Y2396D01*
X1600Y2396D01*
X1600Y2398D01*
X1602Y2398D01*
X1602Y2400D01*
X1604Y2400D01*
X1604Y2402D01*
X1606Y2402D01*
X1606Y2404D01*
X1608Y2404D01*
X1608Y2406D01*
X1610Y2406D01*
X1610Y2408D01*
X1612Y2408D01*
X1612Y2410D01*
X1614Y2410D01*
X1614Y2412D01*
X1616Y2412D01*
X1616Y2414D01*
X1620Y2414D01*
X1620Y2416D01*
X1622Y2416D01*
X1622Y2418D01*
X1626Y2418D01*
X1626Y2420D01*
X1630Y2420D01*
X1630Y2422D01*
X1636Y2422D01*
X1636Y2424D01*
X1644Y2424D01*
X1644Y2426D01*
X1486Y2426D01*
G37*
D02*
G36*
X1672Y2426D02*
X1672Y2424D01*
X1680Y2424D01*
X1680Y2422D01*
X1686Y2422D01*
X1686Y2420D01*
X1690Y2420D01*
X1690Y2418D01*
X1692Y2418D01*
X1692Y2416D01*
X1696Y2416D01*
X1696Y2414D01*
X1698Y2414D01*
X1698Y2412D01*
X1702Y2412D01*
X1702Y2410D01*
X1704Y2410D01*
X1704Y2408D01*
X1706Y2408D01*
X1706Y2406D01*
X1708Y2406D01*
X1708Y2404D01*
X1710Y2404D01*
X1710Y2402D01*
X1712Y2402D01*
X1712Y2400D01*
X1714Y2400D01*
X1714Y2398D01*
X1716Y2398D01*
X1716Y2394D01*
X1718Y2394D01*
X1718Y2392D01*
X1720Y2392D01*
X1720Y2388D01*
X1722Y2388D01*
X1722Y2384D01*
X1724Y2384D01*
X1724Y2380D01*
X3902Y2380D01*
X3902Y2388D01*
X3904Y2388D01*
X3904Y2392D01*
X3906Y2392D01*
X3906Y2396D01*
X3908Y2396D01*
X3908Y2398D01*
X3910Y2398D01*
X3910Y2402D01*
X3912Y2402D01*
X3912Y2404D01*
X3914Y2404D01*
X3914Y2406D01*
X3916Y2406D01*
X3916Y2408D01*
X3918Y2408D01*
X3918Y2410D01*
X3920Y2410D01*
X3920Y2412D01*
X3922Y2412D01*
X3922Y2414D01*
X3924Y2414D01*
X3924Y2416D01*
X3926Y2416D01*
X3926Y2418D01*
X3930Y2418D01*
X3930Y2420D01*
X3932Y2420D01*
X3932Y2422D01*
X3936Y2422D01*
X3936Y2424D01*
X3942Y2424D01*
X3942Y2426D01*
X1672Y2426D01*
G37*
D02*
G36*
X4202Y2426D02*
X4202Y2424D01*
X4204Y2424D01*
X4204Y2422D01*
X4208Y2422D01*
X4208Y2420D01*
X4210Y2420D01*
X4210Y2418D01*
X4212Y2418D01*
X4212Y2416D01*
X4214Y2416D01*
X4214Y2414D01*
X4216Y2414D01*
X4216Y2412D01*
X4218Y2412D01*
X4218Y2410D01*
X4220Y2410D01*
X4220Y2406D01*
X4222Y2406D01*
X4222Y2404D01*
X4224Y2404D01*
X4224Y2400D01*
X4226Y2400D01*
X4226Y2398D01*
X4228Y2398D01*
X4228Y2394D01*
X4230Y2394D01*
X4230Y2388D01*
X4232Y2388D01*
X4232Y2382D01*
X4234Y2382D01*
X4234Y2380D01*
X4502Y2380D01*
X4502Y2388D01*
X4504Y2388D01*
X4504Y2392D01*
X4506Y2392D01*
X4506Y2396D01*
X4508Y2396D01*
X4508Y2398D01*
X4510Y2398D01*
X4510Y2402D01*
X4512Y2402D01*
X4512Y2404D01*
X4514Y2404D01*
X4514Y2406D01*
X4516Y2406D01*
X4516Y2408D01*
X4518Y2408D01*
X4518Y2410D01*
X4520Y2410D01*
X4520Y2412D01*
X4522Y2412D01*
X4522Y2414D01*
X4524Y2414D01*
X4524Y2416D01*
X4526Y2416D01*
X4526Y2418D01*
X4530Y2418D01*
X4530Y2420D01*
X4532Y2420D01*
X4532Y2422D01*
X4536Y2422D01*
X4536Y2424D01*
X4542Y2424D01*
X4542Y2426D01*
X4202Y2426D01*
G37*
D02*
G36*
X4802Y2426D02*
X4802Y2424D01*
X4804Y2424D01*
X4804Y2422D01*
X4808Y2422D01*
X4808Y2420D01*
X4810Y2420D01*
X4810Y2418D01*
X4812Y2418D01*
X4812Y2416D01*
X4814Y2416D01*
X4814Y2414D01*
X4816Y2414D01*
X4816Y2412D01*
X4818Y2412D01*
X4818Y2410D01*
X4820Y2410D01*
X4820Y2406D01*
X4822Y2406D01*
X4822Y2404D01*
X4824Y2404D01*
X4824Y2400D01*
X4826Y2400D01*
X4826Y2398D01*
X4828Y2398D01*
X4828Y2394D01*
X4830Y2394D01*
X4830Y2388D01*
X4832Y2388D01*
X4832Y2382D01*
X4834Y2382D01*
X4834Y2380D01*
X5102Y2380D01*
X5102Y2388D01*
X5104Y2388D01*
X5104Y2392D01*
X5106Y2392D01*
X5106Y2396D01*
X5108Y2396D01*
X5108Y2398D01*
X5110Y2398D01*
X5110Y2402D01*
X5112Y2402D01*
X5112Y2404D01*
X5114Y2404D01*
X5114Y2406D01*
X5116Y2406D01*
X5116Y2408D01*
X5118Y2408D01*
X5118Y2410D01*
X5120Y2410D01*
X5120Y2412D01*
X5122Y2412D01*
X5122Y2414D01*
X5124Y2414D01*
X5124Y2416D01*
X5126Y2416D01*
X5126Y2418D01*
X5130Y2418D01*
X5130Y2420D01*
X5132Y2420D01*
X5132Y2422D01*
X5136Y2422D01*
X5136Y2424D01*
X5142Y2424D01*
X5142Y2426D01*
X4802Y2426D01*
G37*
D02*
G36*
X50Y2380D02*
X50Y2378D01*
X392Y2378D01*
X392Y2380D01*
X50Y2380D01*
G37*
D02*
G36*
X50Y2380D02*
X50Y2378D01*
X392Y2378D01*
X392Y2380D01*
X50Y2380D01*
G37*
D02*
G36*
X50Y2380D02*
X50Y2378D01*
X392Y2378D01*
X392Y2380D01*
X50Y2380D01*
G37*
D02*
G36*
X532Y2380D02*
X532Y2378D01*
X990Y2378D01*
X990Y2380D01*
X532Y2380D01*
G37*
D02*
G36*
X532Y2380D02*
X532Y2378D01*
X990Y2378D01*
X990Y2380D01*
X532Y2380D01*
G37*
D02*
G36*
X532Y2380D02*
X532Y2378D01*
X990Y2378D01*
X990Y2380D01*
X532Y2380D01*
G37*
D02*
G36*
X1126Y2380D02*
X1126Y2378D01*
X1590Y2378D01*
X1590Y2380D01*
X1126Y2380D01*
G37*
D02*
G36*
X1126Y2380D02*
X1126Y2378D01*
X1590Y2378D01*
X1590Y2380D01*
X1126Y2380D01*
G37*
D02*
G36*
X1126Y2380D02*
X1126Y2378D01*
X1590Y2378D01*
X1590Y2380D01*
X1126Y2380D01*
G37*
D02*
G36*
X1726Y2380D02*
X1726Y2378D01*
X4094Y2378D01*
X4094Y2380D01*
X1726Y2380D01*
G37*
D02*
G36*
X1726Y2380D02*
X1726Y2378D01*
X4094Y2378D01*
X4094Y2380D01*
X1726Y2380D01*
G37*
D02*
G36*
X1726Y2380D02*
X1726Y2378D01*
X4094Y2378D01*
X4094Y2380D01*
X1726Y2380D01*
G37*
D02*
G36*
X4234Y2380D02*
X4234Y2378D01*
X4694Y2378D01*
X4694Y2380D01*
X4234Y2380D01*
G37*
D02*
G36*
X4234Y2380D02*
X4234Y2378D01*
X4694Y2378D01*
X4694Y2380D01*
X4234Y2380D01*
G37*
D02*
G36*
X4234Y2380D02*
X4234Y2378D01*
X4694Y2378D01*
X4694Y2380D01*
X4234Y2380D01*
G37*
D02*
G36*
X4834Y2380D02*
X4834Y2378D01*
X5294Y2378D01*
X5294Y2380D01*
X4834Y2380D01*
G37*
D02*
G36*
X4834Y2380D02*
X4834Y2378D01*
X5294Y2378D01*
X5294Y2380D01*
X4834Y2380D01*
G37*
D02*
G36*
X4834Y2380D02*
X4834Y2378D01*
X5294Y2378D01*
X5294Y2380D01*
X4834Y2380D01*
G37*
D02*
G36*
X50Y2378D02*
X50Y2204D01*
X198Y2204D01*
X198Y2330D01*
X200Y2330D01*
X200Y2350D01*
X248Y2350D01*
X248Y2378D01*
X50Y2378D01*
G37*
D02*
G36*
X270Y2378D02*
X270Y2350D01*
X324Y2350D01*
X324Y2330D01*
X326Y2330D01*
X326Y2204D01*
X390Y2204D01*
X390Y2378D01*
X270Y2378D01*
G37*
D02*
G36*
X532Y2378D02*
X532Y2204D01*
X798Y2204D01*
X798Y2330D01*
X800Y2330D01*
X800Y2350D01*
X848Y2350D01*
X848Y2378D01*
X532Y2378D01*
G37*
D02*
G36*
X870Y2378D02*
X870Y2350D01*
X924Y2350D01*
X924Y2330D01*
X926Y2330D01*
X926Y2204D01*
X986Y2204D01*
X986Y2324D01*
X988Y2324D01*
X988Y2344D01*
X986Y2344D01*
X986Y2364D01*
X988Y2364D01*
X988Y2376D01*
X990Y2376D01*
X990Y2378D01*
X870Y2378D01*
G37*
D02*
G36*
X1126Y2378D02*
X1126Y2374D01*
X1128Y2374D01*
X1128Y2204D01*
X1398Y2204D01*
X1398Y2330D01*
X1400Y2330D01*
X1400Y2350D01*
X1448Y2350D01*
X1448Y2378D01*
X1126Y2378D01*
G37*
D02*
G36*
X1470Y2378D02*
X1470Y2350D01*
X1524Y2350D01*
X1524Y2330D01*
X1526Y2330D01*
X1526Y2204D01*
X1586Y2204D01*
X1586Y2324D01*
X1588Y2324D01*
X1588Y2344D01*
X1586Y2344D01*
X1586Y2364D01*
X1588Y2364D01*
X1588Y2376D01*
X1590Y2376D01*
X1590Y2378D01*
X1470Y2378D01*
G37*
D02*
G36*
X1726Y2378D02*
X1726Y2374D01*
X1728Y2374D01*
X1728Y2342D01*
X3282Y2342D01*
X3282Y2340D01*
X3290Y2340D01*
X3290Y2338D01*
X3294Y2338D01*
X3294Y2336D01*
X3298Y2336D01*
X3298Y2334D01*
X3302Y2334D01*
X3302Y2332D01*
X3306Y2332D01*
X3306Y2330D01*
X3308Y2330D01*
X3308Y2328D01*
X3310Y2328D01*
X3310Y2326D01*
X3314Y2326D01*
X3314Y2324D01*
X3316Y2324D01*
X3316Y2322D01*
X3318Y2322D01*
X3318Y2320D01*
X3320Y2320D01*
X3320Y2316D01*
X3322Y2316D01*
X3322Y2314D01*
X3324Y2314D01*
X3324Y2312D01*
X3326Y2312D01*
X3326Y2308D01*
X3328Y2308D01*
X3328Y2306D01*
X3330Y2306D01*
X3330Y2302D01*
X3332Y2302D01*
X3332Y2298D01*
X3334Y2298D01*
X3334Y2292D01*
X3336Y2292D01*
X3336Y2252D01*
X3334Y2252D01*
X3334Y2246D01*
X3332Y2246D01*
X3332Y2242D01*
X3330Y2242D01*
X3330Y2238D01*
X3328Y2238D01*
X3328Y2234D01*
X3326Y2234D01*
X3326Y2232D01*
X3324Y2232D01*
X3324Y2230D01*
X3322Y2230D01*
X3322Y2226D01*
X3320Y2226D01*
X3320Y2224D01*
X3318Y2224D01*
X3318Y2222D01*
X3316Y2222D01*
X3316Y2220D01*
X3314Y2220D01*
X3314Y2218D01*
X3310Y2218D01*
X3310Y2216D01*
X3308Y2216D01*
X3308Y2214D01*
X3306Y2214D01*
X3306Y2212D01*
X3302Y2212D01*
X3302Y2210D01*
X3300Y2210D01*
X3300Y2208D01*
X3296Y2208D01*
X3296Y2206D01*
X3290Y2206D01*
X3290Y2204D01*
X3284Y2204D01*
X3284Y2202D01*
X3900Y2202D01*
X3900Y2350D01*
X3950Y2350D01*
X3950Y2378D01*
X1726Y2378D01*
G37*
D02*
G36*
X3972Y2378D02*
X3972Y2350D01*
X4026Y2350D01*
X4026Y2202D01*
X4092Y2202D01*
X4092Y2378D01*
X3972Y2378D01*
G37*
D02*
G36*
X4234Y2378D02*
X4234Y2202D01*
X4500Y2202D01*
X4500Y2350D01*
X4548Y2350D01*
X4548Y2378D01*
X4234Y2378D01*
G37*
D02*
G36*
X4570Y2378D02*
X4570Y2350D01*
X4626Y2350D01*
X4626Y2202D01*
X4692Y2202D01*
X4692Y2378D01*
X4570Y2378D01*
G37*
D02*
G36*
X4834Y2378D02*
X4834Y2202D01*
X5100Y2202D01*
X5100Y2350D01*
X5148Y2350D01*
X5148Y2378D01*
X4834Y2378D01*
G37*
D02*
G36*
X5170Y2378D02*
X5170Y2350D01*
X5226Y2350D01*
X5226Y2202D01*
X5292Y2202D01*
X5292Y2378D01*
X5170Y2378D01*
G37*
D02*
G36*
X1728Y2342D02*
X1728Y2202D01*
X1850Y2202D01*
X1850Y2204D01*
X1844Y2204D01*
X1844Y2206D01*
X1838Y2206D01*
X1838Y2208D01*
X1834Y2208D01*
X1834Y2210D01*
X1832Y2210D01*
X1832Y2212D01*
X1828Y2212D01*
X1828Y2214D01*
X1826Y2214D01*
X1826Y2216D01*
X1824Y2216D01*
X1824Y2218D01*
X1820Y2218D01*
X1820Y2220D01*
X1818Y2220D01*
X1818Y2222D01*
X1816Y2222D01*
X1816Y2224D01*
X1814Y2224D01*
X1814Y2228D01*
X1812Y2228D01*
X1812Y2230D01*
X1810Y2230D01*
X1810Y2232D01*
X1808Y2232D01*
X1808Y2236D01*
X1806Y2236D01*
X1806Y2238D01*
X1804Y2238D01*
X1804Y2242D01*
X1802Y2242D01*
X1802Y2246D01*
X1800Y2246D01*
X1800Y2252D01*
X1798Y2252D01*
X1798Y2292D01*
X1800Y2292D01*
X1800Y2298D01*
X1802Y2298D01*
X1802Y2302D01*
X1804Y2302D01*
X1804Y2306D01*
X1806Y2306D01*
X1806Y2308D01*
X1808Y2308D01*
X1808Y2312D01*
X1810Y2312D01*
X1810Y2314D01*
X1812Y2314D01*
X1812Y2316D01*
X1814Y2316D01*
X1814Y2318D01*
X1816Y2318D01*
X1816Y2322D01*
X1818Y2322D01*
X1818Y2324D01*
X1822Y2324D01*
X1822Y2326D01*
X1824Y2326D01*
X1824Y2328D01*
X1826Y2328D01*
X1826Y2330D01*
X1828Y2330D01*
X1828Y2332D01*
X1832Y2332D01*
X1832Y2334D01*
X1836Y2334D01*
X1836Y2336D01*
X1840Y2336D01*
X1840Y2338D01*
X1844Y2338D01*
X1844Y2340D01*
X1852Y2340D01*
X1852Y2342D01*
X1728Y2342D01*
G37*
D02*
G36*
X1882Y2342D02*
X1882Y2340D01*
X1890Y2340D01*
X1890Y2338D01*
X1894Y2338D01*
X1894Y2336D01*
X1898Y2336D01*
X1898Y2334D01*
X1902Y2334D01*
X1902Y2332D01*
X1906Y2332D01*
X1906Y2330D01*
X1928Y2330D01*
X1928Y2332D01*
X1932Y2332D01*
X1932Y2334D01*
X1936Y2334D01*
X1936Y2336D01*
X1940Y2336D01*
X1940Y2338D01*
X1944Y2338D01*
X1944Y2340D01*
X1952Y2340D01*
X1952Y2342D01*
X1882Y2342D01*
G37*
D02*
G36*
X1982Y2342D02*
X1982Y2340D01*
X1990Y2340D01*
X1990Y2338D01*
X1994Y2338D01*
X1994Y2336D01*
X1998Y2336D01*
X1998Y2334D01*
X2002Y2334D01*
X2002Y2332D01*
X2006Y2332D01*
X2006Y2330D01*
X2028Y2330D01*
X2028Y2332D01*
X2032Y2332D01*
X2032Y2334D01*
X2036Y2334D01*
X2036Y2336D01*
X2040Y2336D01*
X2040Y2338D01*
X2044Y2338D01*
X2044Y2340D01*
X2052Y2340D01*
X2052Y2342D01*
X1982Y2342D01*
G37*
D02*
G36*
X2082Y2342D02*
X2082Y2340D01*
X2090Y2340D01*
X2090Y2338D01*
X2094Y2338D01*
X2094Y2336D01*
X2098Y2336D01*
X2098Y2334D01*
X2102Y2334D01*
X2102Y2332D01*
X2106Y2332D01*
X2106Y2330D01*
X2128Y2330D01*
X2128Y2332D01*
X2132Y2332D01*
X2132Y2334D01*
X2136Y2334D01*
X2136Y2336D01*
X2140Y2336D01*
X2140Y2338D01*
X2144Y2338D01*
X2144Y2340D01*
X2152Y2340D01*
X2152Y2342D01*
X2082Y2342D01*
G37*
D02*
G36*
X2182Y2342D02*
X2182Y2340D01*
X2190Y2340D01*
X2190Y2338D01*
X2194Y2338D01*
X2194Y2336D01*
X2198Y2336D01*
X2198Y2334D01*
X2202Y2334D01*
X2202Y2332D01*
X2206Y2332D01*
X2206Y2330D01*
X2228Y2330D01*
X2228Y2332D01*
X2232Y2332D01*
X2232Y2334D01*
X2236Y2334D01*
X2236Y2336D01*
X2240Y2336D01*
X2240Y2338D01*
X2244Y2338D01*
X2244Y2340D01*
X2252Y2340D01*
X2252Y2342D01*
X2182Y2342D01*
G37*
D02*
G36*
X2282Y2342D02*
X2282Y2340D01*
X2290Y2340D01*
X2290Y2338D01*
X2294Y2338D01*
X2294Y2336D01*
X2298Y2336D01*
X2298Y2334D01*
X2302Y2334D01*
X2302Y2332D01*
X2306Y2332D01*
X2306Y2330D01*
X2328Y2330D01*
X2328Y2332D01*
X2332Y2332D01*
X2332Y2334D01*
X2336Y2334D01*
X2336Y2336D01*
X2340Y2336D01*
X2340Y2338D01*
X2344Y2338D01*
X2344Y2340D01*
X2352Y2340D01*
X2352Y2342D01*
X2282Y2342D01*
G37*
D02*
G36*
X2382Y2342D02*
X2382Y2340D01*
X2390Y2340D01*
X2390Y2338D01*
X2394Y2338D01*
X2394Y2336D01*
X2398Y2336D01*
X2398Y2334D01*
X2402Y2334D01*
X2402Y2332D01*
X2406Y2332D01*
X2406Y2330D01*
X2408Y2330D01*
X2408Y2328D01*
X2410Y2328D01*
X2410Y2326D01*
X2414Y2326D01*
X2414Y2324D01*
X2416Y2324D01*
X2416Y2322D01*
X2418Y2322D01*
X2418Y2320D01*
X2420Y2320D01*
X2420Y2316D01*
X2422Y2316D01*
X2422Y2314D01*
X2424Y2314D01*
X2424Y2312D01*
X2426Y2312D01*
X2426Y2308D01*
X2428Y2308D01*
X2428Y2306D01*
X2430Y2306D01*
X2430Y2302D01*
X2432Y2302D01*
X2432Y2298D01*
X2434Y2298D01*
X2434Y2292D01*
X2436Y2292D01*
X2436Y2252D01*
X2434Y2252D01*
X2434Y2246D01*
X2432Y2246D01*
X2432Y2242D01*
X2430Y2242D01*
X2430Y2238D01*
X2428Y2238D01*
X2428Y2234D01*
X2426Y2234D01*
X2426Y2232D01*
X2424Y2232D01*
X2424Y2230D01*
X2422Y2230D01*
X2422Y2226D01*
X2420Y2226D01*
X2420Y2224D01*
X2418Y2224D01*
X2418Y2222D01*
X2416Y2222D01*
X2416Y2220D01*
X2414Y2220D01*
X2414Y2218D01*
X2410Y2218D01*
X2410Y2216D01*
X2408Y2216D01*
X2408Y2214D01*
X2406Y2214D01*
X2406Y2212D01*
X2402Y2212D01*
X2402Y2210D01*
X2400Y2210D01*
X2400Y2208D01*
X2396Y2208D01*
X2396Y2206D01*
X2390Y2206D01*
X2390Y2204D01*
X2384Y2204D01*
X2384Y2202D01*
X2550Y2202D01*
X2550Y2204D01*
X2544Y2204D01*
X2544Y2206D01*
X2538Y2206D01*
X2538Y2208D01*
X2534Y2208D01*
X2534Y2210D01*
X2532Y2210D01*
X2532Y2212D01*
X2528Y2212D01*
X2528Y2214D01*
X2526Y2214D01*
X2526Y2216D01*
X2524Y2216D01*
X2524Y2218D01*
X2520Y2218D01*
X2520Y2220D01*
X2518Y2220D01*
X2518Y2222D01*
X2516Y2222D01*
X2516Y2224D01*
X2514Y2224D01*
X2514Y2226D01*
X2512Y2226D01*
X2512Y2230D01*
X2510Y2230D01*
X2510Y2232D01*
X2508Y2232D01*
X2508Y2236D01*
X2506Y2236D01*
X2506Y2238D01*
X2504Y2238D01*
X2504Y2242D01*
X2502Y2242D01*
X2502Y2246D01*
X2500Y2246D01*
X2500Y2252D01*
X2498Y2252D01*
X2498Y2292D01*
X2500Y2292D01*
X2500Y2298D01*
X2502Y2298D01*
X2502Y2302D01*
X2504Y2302D01*
X2504Y2306D01*
X2506Y2306D01*
X2506Y2308D01*
X2508Y2308D01*
X2508Y2312D01*
X2510Y2312D01*
X2510Y2314D01*
X2512Y2314D01*
X2512Y2316D01*
X2514Y2316D01*
X2514Y2320D01*
X2516Y2320D01*
X2516Y2322D01*
X2518Y2322D01*
X2518Y2324D01*
X2522Y2324D01*
X2522Y2326D01*
X2524Y2326D01*
X2524Y2328D01*
X2526Y2328D01*
X2526Y2330D01*
X2528Y2330D01*
X2528Y2332D01*
X2532Y2332D01*
X2532Y2334D01*
X2536Y2334D01*
X2536Y2336D01*
X2540Y2336D01*
X2540Y2338D01*
X2544Y2338D01*
X2544Y2340D01*
X2552Y2340D01*
X2552Y2342D01*
X2382Y2342D01*
G37*
D02*
G36*
X2582Y2342D02*
X2582Y2340D01*
X2790Y2340D01*
X2790Y2338D01*
X2794Y2338D01*
X2794Y2336D01*
X2798Y2336D01*
X2798Y2334D01*
X2802Y2334D01*
X2802Y2332D01*
X2806Y2332D01*
X2806Y2330D01*
X2828Y2330D01*
X2828Y2332D01*
X2832Y2332D01*
X2832Y2334D01*
X2836Y2334D01*
X2836Y2336D01*
X2840Y2336D01*
X2840Y2338D01*
X2844Y2338D01*
X2844Y2340D01*
X2852Y2340D01*
X2852Y2342D01*
X2582Y2342D01*
G37*
D02*
G36*
X2882Y2342D02*
X2882Y2340D01*
X2890Y2340D01*
X2890Y2338D01*
X2894Y2338D01*
X2894Y2336D01*
X2898Y2336D01*
X2898Y2334D01*
X2902Y2334D01*
X2902Y2332D01*
X2906Y2332D01*
X2906Y2330D01*
X2928Y2330D01*
X2928Y2332D01*
X2932Y2332D01*
X2932Y2334D01*
X2936Y2334D01*
X2936Y2336D01*
X2940Y2336D01*
X2940Y2338D01*
X2944Y2338D01*
X2944Y2340D01*
X2952Y2340D01*
X2952Y2342D01*
X2882Y2342D01*
G37*
D02*
G36*
X2982Y2342D02*
X2982Y2340D01*
X2990Y2340D01*
X2990Y2338D01*
X2994Y2338D01*
X2994Y2336D01*
X2998Y2336D01*
X2998Y2334D01*
X3002Y2334D01*
X3002Y2332D01*
X3006Y2332D01*
X3006Y2330D01*
X3028Y2330D01*
X3028Y2332D01*
X3032Y2332D01*
X3032Y2334D01*
X3036Y2334D01*
X3036Y2336D01*
X3040Y2336D01*
X3040Y2338D01*
X3044Y2338D01*
X3044Y2340D01*
X3052Y2340D01*
X3052Y2342D01*
X2982Y2342D01*
G37*
D02*
G36*
X3082Y2342D02*
X3082Y2340D01*
X3090Y2340D01*
X3090Y2338D01*
X3094Y2338D01*
X3094Y2336D01*
X3098Y2336D01*
X3098Y2334D01*
X3102Y2334D01*
X3102Y2332D01*
X3106Y2332D01*
X3106Y2330D01*
X3128Y2330D01*
X3128Y2332D01*
X3132Y2332D01*
X3132Y2334D01*
X3136Y2334D01*
X3136Y2336D01*
X3140Y2336D01*
X3140Y2338D01*
X3144Y2338D01*
X3144Y2340D01*
X3152Y2340D01*
X3152Y2342D01*
X3082Y2342D01*
G37*
D02*
G36*
X3182Y2342D02*
X3182Y2340D01*
X3190Y2340D01*
X3190Y2338D01*
X3194Y2338D01*
X3194Y2336D01*
X3198Y2336D01*
X3198Y2334D01*
X3202Y2334D01*
X3202Y2332D01*
X3206Y2332D01*
X3206Y2330D01*
X3228Y2330D01*
X3228Y2332D01*
X3232Y2332D01*
X3232Y2334D01*
X3236Y2334D01*
X3236Y2336D01*
X3240Y2336D01*
X3240Y2338D01*
X3244Y2338D01*
X3244Y2340D01*
X3252Y2340D01*
X3252Y2342D01*
X3182Y2342D01*
G37*
D02*
G36*
X2590Y2340D02*
X2590Y2338D01*
X2594Y2338D01*
X2594Y2336D01*
X2598Y2336D01*
X2598Y2334D01*
X2602Y2334D01*
X2602Y2332D01*
X2606Y2332D01*
X2606Y2330D01*
X2628Y2330D01*
X2628Y2332D01*
X2632Y2332D01*
X2632Y2334D01*
X2636Y2334D01*
X2636Y2336D01*
X2640Y2336D01*
X2640Y2338D01*
X2644Y2338D01*
X2644Y2340D01*
X2590Y2340D01*
G37*
D02*
G36*
X2648Y2340D02*
X2648Y2286D01*
X2686Y2286D01*
X2686Y2340D01*
X2648Y2340D01*
G37*
D02*
G36*
X2690Y2340D02*
X2690Y2338D01*
X2694Y2338D01*
X2694Y2336D01*
X2698Y2336D01*
X2698Y2334D01*
X2702Y2334D01*
X2702Y2332D01*
X2706Y2332D01*
X2706Y2330D01*
X2728Y2330D01*
X2728Y2332D01*
X2732Y2332D01*
X2732Y2334D01*
X2736Y2334D01*
X2736Y2336D01*
X2740Y2336D01*
X2740Y2338D01*
X2744Y2338D01*
X2744Y2340D01*
X2690Y2340D01*
G37*
D02*
G36*
X2748Y2340D02*
X2748Y2286D01*
X2786Y2286D01*
X2786Y2340D01*
X2748Y2340D01*
G37*
D02*
G36*
X2648Y2260D02*
X2648Y2204D01*
X2686Y2204D01*
X2686Y2260D01*
X2648Y2260D01*
G37*
D02*
G36*
X2748Y2260D02*
X2748Y2204D01*
X2786Y2204D01*
X2786Y2260D01*
X2748Y2260D01*
G37*
D02*
G36*
X1906Y2214D02*
X1906Y2212D01*
X1902Y2212D01*
X1902Y2210D01*
X1900Y2210D01*
X1900Y2208D01*
X1896Y2208D01*
X1896Y2206D01*
X1890Y2206D01*
X1890Y2204D01*
X1884Y2204D01*
X1884Y2202D01*
X1950Y2202D01*
X1950Y2204D01*
X1944Y2204D01*
X1944Y2206D01*
X1938Y2206D01*
X1938Y2208D01*
X1934Y2208D01*
X1934Y2210D01*
X1932Y2210D01*
X1932Y2212D01*
X1928Y2212D01*
X1928Y2214D01*
X1906Y2214D01*
G37*
D02*
G36*
X2006Y2214D02*
X2006Y2212D01*
X2002Y2212D01*
X2002Y2210D01*
X2000Y2210D01*
X2000Y2208D01*
X1996Y2208D01*
X1996Y2206D01*
X1990Y2206D01*
X1990Y2204D01*
X1984Y2204D01*
X1984Y2202D01*
X2050Y2202D01*
X2050Y2204D01*
X2044Y2204D01*
X2044Y2206D01*
X2038Y2206D01*
X2038Y2208D01*
X2034Y2208D01*
X2034Y2210D01*
X2032Y2210D01*
X2032Y2212D01*
X2028Y2212D01*
X2028Y2214D01*
X2006Y2214D01*
G37*
D02*
G36*
X2106Y2214D02*
X2106Y2212D01*
X2102Y2212D01*
X2102Y2210D01*
X2100Y2210D01*
X2100Y2208D01*
X2096Y2208D01*
X2096Y2206D01*
X2090Y2206D01*
X2090Y2204D01*
X2084Y2204D01*
X2084Y2202D01*
X2150Y2202D01*
X2150Y2204D01*
X2144Y2204D01*
X2144Y2206D01*
X2138Y2206D01*
X2138Y2208D01*
X2134Y2208D01*
X2134Y2210D01*
X2132Y2210D01*
X2132Y2212D01*
X2128Y2212D01*
X2128Y2214D01*
X2106Y2214D01*
G37*
D02*
G36*
X2206Y2214D02*
X2206Y2212D01*
X2202Y2212D01*
X2202Y2210D01*
X2200Y2210D01*
X2200Y2208D01*
X2196Y2208D01*
X2196Y2206D01*
X2190Y2206D01*
X2190Y2204D01*
X2184Y2204D01*
X2184Y2202D01*
X2250Y2202D01*
X2250Y2204D01*
X2244Y2204D01*
X2244Y2206D01*
X2238Y2206D01*
X2238Y2208D01*
X2234Y2208D01*
X2234Y2210D01*
X2232Y2210D01*
X2232Y2212D01*
X2228Y2212D01*
X2228Y2214D01*
X2206Y2214D01*
G37*
D02*
G36*
X2306Y2214D02*
X2306Y2212D01*
X2302Y2212D01*
X2302Y2210D01*
X2300Y2210D01*
X2300Y2208D01*
X2296Y2208D01*
X2296Y2206D01*
X2290Y2206D01*
X2290Y2204D01*
X2284Y2204D01*
X2284Y2202D01*
X2350Y2202D01*
X2350Y2204D01*
X2344Y2204D01*
X2344Y2206D01*
X2338Y2206D01*
X2338Y2208D01*
X2334Y2208D01*
X2334Y2210D01*
X2332Y2210D01*
X2332Y2212D01*
X2328Y2212D01*
X2328Y2214D01*
X2306Y2214D01*
G37*
D02*
G36*
X2606Y2214D02*
X2606Y2212D01*
X2602Y2212D01*
X2602Y2210D01*
X2600Y2210D01*
X2600Y2208D01*
X2596Y2208D01*
X2596Y2206D01*
X2590Y2206D01*
X2590Y2204D01*
X2644Y2204D01*
X2644Y2206D01*
X2638Y2206D01*
X2638Y2208D01*
X2634Y2208D01*
X2634Y2210D01*
X2632Y2210D01*
X2632Y2212D01*
X2628Y2212D01*
X2628Y2214D01*
X2606Y2214D01*
G37*
D02*
G36*
X2706Y2214D02*
X2706Y2212D01*
X2702Y2212D01*
X2702Y2210D01*
X2700Y2210D01*
X2700Y2208D01*
X2696Y2208D01*
X2696Y2206D01*
X2690Y2206D01*
X2690Y2204D01*
X2744Y2204D01*
X2744Y2206D01*
X2738Y2206D01*
X2738Y2208D01*
X2734Y2208D01*
X2734Y2210D01*
X2732Y2210D01*
X2732Y2212D01*
X2728Y2212D01*
X2728Y2214D01*
X2706Y2214D01*
G37*
D02*
G36*
X2806Y2214D02*
X2806Y2212D01*
X2802Y2212D01*
X2802Y2210D01*
X2800Y2210D01*
X2800Y2208D01*
X2796Y2208D01*
X2796Y2206D01*
X2790Y2206D01*
X2790Y2204D01*
X2844Y2204D01*
X2844Y2206D01*
X2838Y2206D01*
X2838Y2208D01*
X2834Y2208D01*
X2834Y2210D01*
X2832Y2210D01*
X2832Y2212D01*
X2828Y2212D01*
X2828Y2214D01*
X2806Y2214D01*
G37*
D02*
G36*
X2906Y2214D02*
X2906Y2212D01*
X2902Y2212D01*
X2902Y2210D01*
X2900Y2210D01*
X2900Y2208D01*
X2896Y2208D01*
X2896Y2206D01*
X2890Y2206D01*
X2890Y2204D01*
X2884Y2204D01*
X2884Y2202D01*
X2950Y2202D01*
X2950Y2204D01*
X2944Y2204D01*
X2944Y2206D01*
X2938Y2206D01*
X2938Y2208D01*
X2934Y2208D01*
X2934Y2210D01*
X2932Y2210D01*
X2932Y2212D01*
X2928Y2212D01*
X2928Y2214D01*
X2906Y2214D01*
G37*
D02*
G36*
X3006Y2214D02*
X3006Y2212D01*
X3002Y2212D01*
X3002Y2210D01*
X3000Y2210D01*
X3000Y2208D01*
X2996Y2208D01*
X2996Y2206D01*
X2990Y2206D01*
X2990Y2204D01*
X2984Y2204D01*
X2984Y2202D01*
X3050Y2202D01*
X3050Y2204D01*
X3044Y2204D01*
X3044Y2206D01*
X3038Y2206D01*
X3038Y2208D01*
X3034Y2208D01*
X3034Y2210D01*
X3032Y2210D01*
X3032Y2212D01*
X3028Y2212D01*
X3028Y2214D01*
X3006Y2214D01*
G37*
D02*
G36*
X3106Y2214D02*
X3106Y2212D01*
X3102Y2212D01*
X3102Y2210D01*
X3100Y2210D01*
X3100Y2208D01*
X3096Y2208D01*
X3096Y2206D01*
X3090Y2206D01*
X3090Y2204D01*
X3084Y2204D01*
X3084Y2202D01*
X3150Y2202D01*
X3150Y2204D01*
X3144Y2204D01*
X3144Y2206D01*
X3138Y2206D01*
X3138Y2208D01*
X3134Y2208D01*
X3134Y2210D01*
X3132Y2210D01*
X3132Y2212D01*
X3128Y2212D01*
X3128Y2214D01*
X3106Y2214D01*
G37*
D02*
G36*
X3206Y2214D02*
X3206Y2212D01*
X3202Y2212D01*
X3202Y2210D01*
X3200Y2210D01*
X3200Y2208D01*
X3196Y2208D01*
X3196Y2206D01*
X3190Y2206D01*
X3190Y2204D01*
X3184Y2204D01*
X3184Y2202D01*
X3250Y2202D01*
X3250Y2204D01*
X3244Y2204D01*
X3244Y2206D01*
X3238Y2206D01*
X3238Y2208D01*
X3234Y2208D01*
X3234Y2210D01*
X3232Y2210D01*
X3232Y2212D01*
X3228Y2212D01*
X3228Y2214D01*
X3206Y2214D01*
G37*
D02*
G36*
X50Y2204D02*
X50Y2202D01*
X390Y2202D01*
X390Y2204D01*
X50Y2204D01*
G37*
D02*
G36*
X50Y2204D02*
X50Y2202D01*
X390Y2202D01*
X390Y2204D01*
X50Y2204D01*
G37*
D02*
G36*
X532Y2204D02*
X532Y2202D01*
X986Y2202D01*
X986Y2204D01*
X532Y2204D01*
G37*
D02*
G36*
X532Y2204D02*
X532Y2202D01*
X986Y2202D01*
X986Y2204D01*
X532Y2204D01*
G37*
D02*
G36*
X1128Y2204D02*
X1128Y2202D01*
X1586Y2202D01*
X1586Y2204D01*
X1128Y2204D01*
G37*
D02*
G36*
X1128Y2204D02*
X1128Y2202D01*
X1586Y2202D01*
X1586Y2204D01*
X1128Y2204D01*
G37*
D02*
G36*
X2584Y2204D02*
X2584Y2202D01*
X2850Y2202D01*
X2850Y2204D01*
X2584Y2204D01*
G37*
D02*
G36*
X2584Y2204D02*
X2584Y2202D01*
X2850Y2202D01*
X2850Y2204D01*
X2584Y2204D01*
G37*
D02*
G36*
X2584Y2204D02*
X2584Y2202D01*
X2850Y2202D01*
X2850Y2204D01*
X2584Y2204D01*
G37*
D02*
G36*
X2584Y2204D02*
X2584Y2202D01*
X2850Y2202D01*
X2850Y2204D01*
X2584Y2204D01*
G37*
D02*
G36*
X2584Y2204D02*
X2584Y2202D01*
X2850Y2202D01*
X2850Y2204D01*
X2584Y2204D01*
G37*
D02*
G36*
X50Y2202D02*
X50Y2194D01*
X390Y2194D01*
X390Y2202D01*
X50Y2202D01*
G37*
D02*
G36*
X532Y2202D02*
X532Y2194D01*
X986Y2194D01*
X986Y2202D01*
X532Y2202D01*
G37*
D02*
G36*
X1128Y2202D02*
X1128Y2184D01*
X1586Y2184D01*
X1586Y2202D01*
X1128Y2202D01*
G37*
D02*
G36*
X1728Y2202D02*
X1728Y2200D01*
X4092Y2200D01*
X4092Y2202D01*
X1728Y2202D01*
G37*
D02*
G36*
X1728Y2202D02*
X1728Y2200D01*
X4092Y2200D01*
X4092Y2202D01*
X1728Y2202D01*
G37*
D02*
G36*
X1728Y2202D02*
X1728Y2200D01*
X4092Y2200D01*
X4092Y2202D01*
X1728Y2202D01*
G37*
D02*
G36*
X1728Y2202D02*
X1728Y2200D01*
X4092Y2200D01*
X4092Y2202D01*
X1728Y2202D01*
G37*
D02*
G36*
X1728Y2202D02*
X1728Y2200D01*
X4092Y2200D01*
X4092Y2202D01*
X1728Y2202D01*
G37*
D02*
G36*
X1728Y2202D02*
X1728Y2200D01*
X4092Y2200D01*
X4092Y2202D01*
X1728Y2202D01*
G37*
D02*
G36*
X1728Y2202D02*
X1728Y2200D01*
X4092Y2200D01*
X4092Y2202D01*
X1728Y2202D01*
G37*
D02*
G36*
X1728Y2202D02*
X1728Y2200D01*
X4092Y2200D01*
X4092Y2202D01*
X1728Y2202D01*
G37*
D02*
G36*
X1728Y2202D02*
X1728Y2200D01*
X4092Y2200D01*
X4092Y2202D01*
X1728Y2202D01*
G37*
D02*
G36*
X1728Y2202D02*
X1728Y2200D01*
X4092Y2200D01*
X4092Y2202D01*
X1728Y2202D01*
G37*
D02*
G36*
X1728Y2202D02*
X1728Y2200D01*
X4092Y2200D01*
X4092Y2202D01*
X1728Y2202D01*
G37*
D02*
G36*
X1728Y2202D02*
X1728Y2200D01*
X4092Y2200D01*
X4092Y2202D01*
X1728Y2202D01*
G37*
D02*
G36*
X1728Y2202D02*
X1728Y2200D01*
X4092Y2200D01*
X4092Y2202D01*
X1728Y2202D01*
G37*
D02*
G36*
X1728Y2202D02*
X1728Y2200D01*
X4092Y2200D01*
X4092Y2202D01*
X1728Y2202D01*
G37*
D02*
G36*
X4234Y2202D02*
X4234Y2200D01*
X4692Y2200D01*
X4692Y2202D01*
X4234Y2202D01*
G37*
D02*
G36*
X4234Y2202D02*
X4234Y2200D01*
X4692Y2200D01*
X4692Y2202D01*
X4234Y2202D01*
G37*
D02*
G36*
X4834Y2202D02*
X4834Y2200D01*
X5292Y2200D01*
X5292Y2202D01*
X4834Y2202D01*
G37*
D02*
G36*
X4834Y2202D02*
X4834Y2200D01*
X5292Y2200D01*
X5292Y2202D01*
X4834Y2202D01*
G37*
D02*
G36*
X1728Y2200D02*
X1728Y2194D01*
X4092Y2194D01*
X4092Y2200D01*
X1728Y2200D01*
G37*
D02*
G36*
X4234Y2200D02*
X4234Y2194D01*
X4692Y2194D01*
X4692Y2200D01*
X4234Y2200D01*
G37*
D02*
G36*
X4834Y2200D02*
X4834Y2194D01*
X5292Y2194D01*
X5292Y2200D01*
X4834Y2200D01*
G37*
D02*
G36*
X50Y2194D02*
X50Y2192D01*
X986Y2192D01*
X986Y2194D01*
X50Y2194D01*
G37*
D02*
G36*
X50Y2194D02*
X50Y2192D01*
X986Y2192D01*
X986Y2194D01*
X50Y2194D01*
G37*
D02*
G36*
X1728Y2194D02*
X1728Y2192D01*
X5666Y2192D01*
X5666Y2194D01*
X1728Y2194D01*
G37*
D02*
G36*
X1728Y2194D02*
X1728Y2192D01*
X5666Y2192D01*
X5666Y2194D01*
X1728Y2194D01*
G37*
D02*
G36*
X1728Y2194D02*
X1728Y2192D01*
X5666Y2192D01*
X5666Y2194D01*
X1728Y2194D01*
G37*
D02*
G36*
X1728Y2194D02*
X1728Y2192D01*
X5666Y2192D01*
X5666Y2194D01*
X1728Y2194D01*
G37*
D02*
G36*
X50Y2192D02*
X50Y2184D01*
X986Y2184D01*
X986Y2192D01*
X50Y2192D01*
G37*
D02*
G36*
X1728Y2192D02*
X1728Y2184D01*
X5666Y2184D01*
X5666Y2192D01*
X1728Y2192D01*
G37*
D02*
G36*
X50Y2184D02*
X50Y2182D01*
X5666Y2182D01*
X5666Y2184D01*
X50Y2184D01*
G37*
D02*
G36*
X50Y2184D02*
X50Y2182D01*
X5666Y2182D01*
X5666Y2184D01*
X50Y2184D01*
G37*
D02*
G36*
X50Y2184D02*
X50Y2182D01*
X5666Y2182D01*
X5666Y2184D01*
X50Y2184D01*
G37*
D02*
G36*
X50Y2182D02*
X50Y2148D01*
X4336Y2148D01*
X4336Y2146D01*
X4932Y2146D01*
X4932Y2134D01*
X5532Y2134D01*
X5532Y1894D01*
X5666Y1894D01*
X5666Y2182D01*
X50Y2182D01*
G37*
D02*
G36*
X50Y2148D02*
X50Y2136D01*
X1830Y2136D01*
X1830Y2134D01*
X1832Y2134D01*
X1832Y1910D01*
X3850Y1910D01*
X3850Y1912D01*
X3844Y1912D01*
X3844Y1914D01*
X3838Y1914D01*
X3838Y1916D01*
X3834Y1916D01*
X3834Y1918D01*
X3832Y1918D01*
X3832Y1920D01*
X3828Y1920D01*
X3828Y1922D01*
X3826Y1922D01*
X3826Y1924D01*
X3824Y1924D01*
X3824Y1926D01*
X3820Y1926D01*
X3820Y1928D01*
X3818Y1928D01*
X3818Y1930D01*
X3816Y1930D01*
X3816Y1932D01*
X3814Y1932D01*
X3814Y1936D01*
X3812Y1936D01*
X3812Y1938D01*
X3810Y1938D01*
X3810Y1940D01*
X3808Y1940D01*
X3808Y1944D01*
X3806Y1944D01*
X3806Y1946D01*
X3804Y1946D01*
X3804Y1950D01*
X3802Y1950D01*
X3802Y1954D01*
X3800Y1954D01*
X3800Y1962D01*
X3798Y1962D01*
X3798Y1998D01*
X3800Y1998D01*
X3800Y2004D01*
X3802Y2004D01*
X3802Y2008D01*
X3804Y2008D01*
X3804Y2012D01*
X3806Y2012D01*
X3806Y2016D01*
X3808Y2016D01*
X3808Y2018D01*
X3810Y2018D01*
X3810Y2040D01*
X3808Y2040D01*
X3808Y2044D01*
X3806Y2044D01*
X3806Y2046D01*
X3804Y2046D01*
X3804Y2050D01*
X3802Y2050D01*
X3802Y2054D01*
X3800Y2054D01*
X3800Y2062D01*
X3798Y2062D01*
X3798Y2098D01*
X3800Y2098D01*
X3800Y2104D01*
X3802Y2104D01*
X3802Y2108D01*
X3804Y2108D01*
X3804Y2112D01*
X3806Y2112D01*
X3806Y2116D01*
X3808Y2116D01*
X3808Y2118D01*
X3810Y2118D01*
X3810Y2122D01*
X3812Y2122D01*
X3812Y2124D01*
X3814Y2124D01*
X3814Y2126D01*
X3816Y2126D01*
X3816Y2128D01*
X3818Y2128D01*
X3818Y2130D01*
X3820Y2130D01*
X3820Y2132D01*
X3822Y2132D01*
X3822Y2134D01*
X3824Y2134D01*
X3824Y2136D01*
X3828Y2136D01*
X3828Y2138D01*
X3830Y2138D01*
X3830Y2140D01*
X3834Y2140D01*
X3834Y2142D01*
X3838Y2142D01*
X3838Y2144D01*
X3842Y2144D01*
X3842Y2146D01*
X3848Y2146D01*
X3848Y2148D01*
X50Y2148D01*
G37*
D02*
G36*
X3886Y2148D02*
X3886Y2146D01*
X3892Y2146D01*
X3892Y2144D01*
X3896Y2144D01*
X3896Y2142D01*
X3900Y2142D01*
X3900Y2140D01*
X3904Y2140D01*
X3904Y2138D01*
X3906Y2138D01*
X3906Y2136D01*
X3910Y2136D01*
X3910Y2134D01*
X3912Y2134D01*
X3912Y2132D01*
X3914Y2132D01*
X3914Y2130D01*
X3916Y2130D01*
X3916Y2128D01*
X3918Y2128D01*
X3918Y2126D01*
X3920Y2126D01*
X3920Y2124D01*
X3922Y2124D01*
X3922Y2122D01*
X3924Y2122D01*
X3924Y2118D01*
X3926Y2118D01*
X3926Y2116D01*
X3928Y2116D01*
X3928Y2112D01*
X3930Y2112D01*
X3930Y2108D01*
X3932Y2108D01*
X3932Y2104D01*
X3934Y2104D01*
X3934Y2098D01*
X3936Y2098D01*
X3936Y2060D01*
X3934Y2060D01*
X3934Y2054D01*
X3932Y2054D01*
X3932Y2050D01*
X3930Y2050D01*
X3930Y2046D01*
X3928Y2046D01*
X3928Y2042D01*
X3926Y2042D01*
X3926Y2040D01*
X3924Y2040D01*
X3924Y2018D01*
X3926Y2018D01*
X3926Y2016D01*
X3928Y2016D01*
X3928Y2012D01*
X3930Y2012D01*
X3930Y2008D01*
X3932Y2008D01*
X3932Y2004D01*
X3934Y2004D01*
X3934Y1998D01*
X3936Y1998D01*
X3936Y1960D01*
X3934Y1960D01*
X3934Y1954D01*
X3932Y1954D01*
X3932Y1950D01*
X3930Y1950D01*
X3930Y1946D01*
X3928Y1946D01*
X3928Y1942D01*
X3926Y1942D01*
X3926Y1940D01*
X3924Y1940D01*
X3924Y1938D01*
X3922Y1938D01*
X3922Y1934D01*
X3920Y1934D01*
X3920Y1932D01*
X3918Y1932D01*
X3918Y1930D01*
X3916Y1930D01*
X3916Y1928D01*
X3914Y1928D01*
X3914Y1926D01*
X3912Y1926D01*
X3912Y1924D01*
X3908Y1924D01*
X3908Y1922D01*
X3906Y1922D01*
X3906Y1920D01*
X3902Y1920D01*
X3902Y1918D01*
X3900Y1918D01*
X3900Y1916D01*
X3896Y1916D01*
X3896Y1914D01*
X3890Y1914D01*
X3890Y1912D01*
X3884Y1912D01*
X3884Y1910D01*
X4198Y1910D01*
X4198Y2148D01*
X3886Y2148D01*
G37*
D02*
G36*
X4336Y2146D02*
X4336Y1910D01*
X4436Y1910D01*
X4436Y1912D01*
X4432Y1912D01*
X4432Y1914D01*
X4428Y1914D01*
X4428Y1916D01*
X4426Y1916D01*
X4426Y1918D01*
X4422Y1918D01*
X4422Y1920D01*
X4420Y1920D01*
X4420Y1922D01*
X4418Y1922D01*
X4418Y1924D01*
X4416Y1924D01*
X4416Y1926D01*
X4414Y1926D01*
X4414Y1928D01*
X4412Y1928D01*
X4412Y1930D01*
X4410Y1930D01*
X4410Y1932D01*
X4408Y1932D01*
X4408Y1934D01*
X4406Y1934D01*
X4406Y1936D01*
X4404Y1936D01*
X4404Y1940D01*
X4402Y1940D01*
X4402Y1944D01*
X4400Y1944D01*
X4400Y1948D01*
X4398Y1948D01*
X4398Y1952D01*
X4396Y1952D01*
X4396Y1958D01*
X4394Y1958D01*
X4394Y1992D01*
X4396Y1992D01*
X4396Y2000D01*
X4398Y2000D01*
X4398Y2004D01*
X4400Y2004D01*
X4400Y2008D01*
X4402Y2008D01*
X4402Y2012D01*
X4404Y2012D01*
X4404Y2014D01*
X4406Y2014D01*
X4406Y2036D01*
X4404Y2036D01*
X4404Y2040D01*
X4402Y2040D01*
X4402Y2044D01*
X4400Y2044D01*
X4400Y2048D01*
X4398Y2048D01*
X4398Y2052D01*
X4396Y2052D01*
X4396Y2058D01*
X4394Y2058D01*
X4394Y2092D01*
X4396Y2092D01*
X4396Y2100D01*
X4398Y2100D01*
X4398Y2104D01*
X4400Y2104D01*
X4400Y2108D01*
X4402Y2108D01*
X4402Y2112D01*
X4404Y2112D01*
X4404Y2114D01*
X4406Y2114D01*
X4406Y2116D01*
X4408Y2116D01*
X4408Y2120D01*
X4410Y2120D01*
X4410Y2122D01*
X4412Y2122D01*
X4412Y2124D01*
X4414Y2124D01*
X4414Y2126D01*
X4416Y2126D01*
X4416Y2128D01*
X4418Y2128D01*
X4418Y2130D01*
X4420Y2130D01*
X4420Y2132D01*
X4424Y2132D01*
X4424Y2134D01*
X4426Y2134D01*
X4426Y2136D01*
X4430Y2136D01*
X4430Y2138D01*
X4434Y2138D01*
X4434Y2140D01*
X4438Y2140D01*
X4438Y2142D01*
X4442Y2142D01*
X4442Y2144D01*
X4454Y2144D01*
X4454Y2146D01*
X4336Y2146D01*
G37*
D02*
G36*
X4472Y2146D02*
X4472Y2144D01*
X4484Y2144D01*
X4484Y2142D01*
X4490Y2142D01*
X4490Y2140D01*
X4494Y2140D01*
X4494Y2138D01*
X4498Y2138D01*
X4498Y2136D01*
X4500Y2136D01*
X4500Y2134D01*
X4504Y2134D01*
X4504Y2132D01*
X4506Y2132D01*
X4506Y2130D01*
X4508Y2130D01*
X4508Y2128D01*
X4510Y2128D01*
X4510Y2126D01*
X4512Y2126D01*
X4512Y2124D01*
X4514Y2124D01*
X4514Y2122D01*
X4516Y2122D01*
X4516Y2120D01*
X4518Y2120D01*
X4518Y2118D01*
X4520Y2118D01*
X4520Y2116D01*
X4522Y2116D01*
X4522Y2112D01*
X4524Y2112D01*
X4524Y2110D01*
X4526Y2110D01*
X4526Y2106D01*
X4528Y2106D01*
X4528Y2102D01*
X4530Y2102D01*
X4530Y2096D01*
X4532Y2096D01*
X4532Y2056D01*
X4530Y2056D01*
X4530Y2050D01*
X4528Y2050D01*
X4528Y2046D01*
X4526Y2046D01*
X4526Y2042D01*
X4524Y2042D01*
X4524Y2038D01*
X4522Y2038D01*
X4522Y2036D01*
X4520Y2036D01*
X4520Y2016D01*
X4522Y2016D01*
X4522Y2012D01*
X4524Y2012D01*
X4524Y2010D01*
X4526Y2010D01*
X4526Y2006D01*
X4528Y2006D01*
X4528Y2002D01*
X4530Y2002D01*
X4530Y1996D01*
X4532Y1996D01*
X4532Y1956D01*
X4530Y1956D01*
X4530Y1950D01*
X4528Y1950D01*
X4528Y1946D01*
X4526Y1946D01*
X4526Y1942D01*
X4524Y1942D01*
X4524Y1938D01*
X4522Y1938D01*
X4522Y1936D01*
X4520Y1936D01*
X4520Y1934D01*
X4518Y1934D01*
X4518Y1930D01*
X4516Y1930D01*
X4516Y1928D01*
X4514Y1928D01*
X4514Y1926D01*
X4512Y1926D01*
X4512Y1924D01*
X4510Y1924D01*
X4510Y1922D01*
X4508Y1922D01*
X4508Y1920D01*
X4504Y1920D01*
X4504Y1918D01*
X4502Y1918D01*
X4502Y1916D01*
X4498Y1916D01*
X4498Y1914D01*
X4496Y1914D01*
X4496Y1912D01*
X4492Y1912D01*
X4492Y1910D01*
X4486Y1910D01*
X4486Y1908D01*
X4480Y1908D01*
X4480Y1906D01*
X4794Y1906D01*
X4794Y2146D01*
X4472Y2146D01*
G37*
D02*
G36*
X50Y2136D02*
X50Y2132D01*
X630Y2132D01*
X630Y2130D01*
X632Y2130D01*
X632Y2128D01*
X1228Y2128D01*
X1228Y1896D01*
X1346Y1896D01*
X1346Y1898D01*
X1338Y1898D01*
X1338Y1900D01*
X1334Y1900D01*
X1334Y1902D01*
X1330Y1902D01*
X1330Y1904D01*
X1326Y1904D01*
X1326Y1906D01*
X1324Y1906D01*
X1324Y1908D01*
X1320Y1908D01*
X1320Y1910D01*
X1318Y1910D01*
X1318Y1912D01*
X1316Y1912D01*
X1316Y1914D01*
X1314Y1914D01*
X1314Y1916D01*
X1312Y1916D01*
X1312Y1918D01*
X1310Y1918D01*
X1310Y1920D01*
X1308Y1920D01*
X1308Y1922D01*
X1306Y1922D01*
X1306Y1924D01*
X1304Y1924D01*
X1304Y1928D01*
X1302Y1928D01*
X1302Y1930D01*
X1300Y1930D01*
X1300Y1934D01*
X1298Y1934D01*
X1298Y1938D01*
X1296Y1938D01*
X1296Y1942D01*
X1294Y1942D01*
X1294Y1950D01*
X1292Y1950D01*
X1292Y1982D01*
X1294Y1982D01*
X1294Y1988D01*
X1296Y1988D01*
X1296Y1994D01*
X1298Y1994D01*
X1298Y1998D01*
X1300Y1998D01*
X1300Y2000D01*
X1302Y2000D01*
X1302Y2004D01*
X1304Y2004D01*
X1304Y2028D01*
X1302Y2028D01*
X1302Y2030D01*
X1300Y2030D01*
X1300Y2034D01*
X1298Y2034D01*
X1298Y2038D01*
X1296Y2038D01*
X1296Y2042D01*
X1294Y2042D01*
X1294Y2050D01*
X1292Y2050D01*
X1292Y2082D01*
X1294Y2082D01*
X1294Y2088D01*
X1296Y2088D01*
X1296Y2094D01*
X1298Y2094D01*
X1298Y2098D01*
X1300Y2098D01*
X1300Y2100D01*
X1302Y2100D01*
X1302Y2104D01*
X1304Y2104D01*
X1304Y2106D01*
X1306Y2106D01*
X1306Y2110D01*
X1308Y2110D01*
X1308Y2112D01*
X1310Y2112D01*
X1310Y2114D01*
X1312Y2114D01*
X1312Y2116D01*
X1314Y2116D01*
X1314Y2118D01*
X1316Y2118D01*
X1316Y2120D01*
X1318Y2120D01*
X1318Y2122D01*
X1322Y2122D01*
X1322Y2124D01*
X1324Y2124D01*
X1324Y2126D01*
X1328Y2126D01*
X1328Y2128D01*
X1332Y2128D01*
X1332Y2130D01*
X1336Y2130D01*
X1336Y2132D01*
X1342Y2132D01*
X1342Y2134D01*
X1352Y2134D01*
X1352Y2136D01*
X50Y2136D01*
G37*
D02*
G36*
X1370Y2136D02*
X1370Y2134D01*
X1382Y2134D01*
X1382Y2132D01*
X1388Y2132D01*
X1388Y2130D01*
X1392Y2130D01*
X1392Y2128D01*
X1396Y2128D01*
X1396Y2126D01*
X1398Y2126D01*
X1398Y2124D01*
X1402Y2124D01*
X1402Y2122D01*
X1404Y2122D01*
X1404Y2120D01*
X1406Y2120D01*
X1406Y2118D01*
X1408Y2118D01*
X1408Y2116D01*
X1410Y2116D01*
X1410Y2114D01*
X1412Y2114D01*
X1412Y2112D01*
X1414Y2112D01*
X1414Y2110D01*
X1416Y2110D01*
X1416Y2108D01*
X1418Y2108D01*
X1418Y2106D01*
X1420Y2106D01*
X1420Y2102D01*
X1422Y2102D01*
X1422Y2100D01*
X1424Y2100D01*
X1424Y2096D01*
X1426Y2096D01*
X1426Y2092D01*
X1428Y2092D01*
X1428Y2086D01*
X1430Y2086D01*
X1430Y2076D01*
X1432Y2076D01*
X1432Y2056D01*
X1430Y2056D01*
X1430Y2046D01*
X1428Y2046D01*
X1428Y2040D01*
X1426Y2040D01*
X1426Y2036D01*
X1424Y2036D01*
X1424Y2032D01*
X1422Y2032D01*
X1422Y2028D01*
X1420Y2028D01*
X1420Y2026D01*
X1418Y2026D01*
X1418Y2006D01*
X1420Y2006D01*
X1420Y2002D01*
X1422Y2002D01*
X1422Y2000D01*
X1424Y2000D01*
X1424Y1996D01*
X1426Y1996D01*
X1426Y1992D01*
X1428Y1992D01*
X1428Y1986D01*
X1430Y1986D01*
X1430Y1976D01*
X1432Y1976D01*
X1432Y1956D01*
X1430Y1956D01*
X1430Y1946D01*
X1428Y1946D01*
X1428Y1940D01*
X1426Y1940D01*
X1426Y1936D01*
X1424Y1936D01*
X1424Y1932D01*
X1422Y1932D01*
X1422Y1928D01*
X1420Y1928D01*
X1420Y1926D01*
X1418Y1926D01*
X1418Y1922D01*
X1416Y1922D01*
X1416Y1920D01*
X1414Y1920D01*
X1414Y1918D01*
X1412Y1918D01*
X1412Y1916D01*
X1410Y1916D01*
X1410Y1914D01*
X1408Y1914D01*
X1408Y1912D01*
X1406Y1912D01*
X1406Y1910D01*
X1402Y1910D01*
X1402Y1908D01*
X1400Y1908D01*
X1400Y1906D01*
X1396Y1906D01*
X1396Y1904D01*
X1394Y1904D01*
X1394Y1902D01*
X1390Y1902D01*
X1390Y1900D01*
X1384Y1900D01*
X1384Y1898D01*
X1378Y1898D01*
X1378Y1896D01*
X1692Y1896D01*
X1692Y2136D01*
X1370Y2136D01*
G37*
D02*
G36*
X4932Y2134D02*
X4932Y1906D01*
X5024Y1906D01*
X5024Y1908D01*
X5020Y1908D01*
X5020Y1910D01*
X5018Y1910D01*
X5018Y1912D01*
X5016Y1912D01*
X5016Y1914D01*
X5014Y1914D01*
X5014Y1916D01*
X5012Y1916D01*
X5012Y1918D01*
X5010Y1918D01*
X5010Y1920D01*
X5008Y1920D01*
X5008Y1924D01*
X5006Y1924D01*
X5006Y1926D01*
X5004Y1926D01*
X5004Y1928D01*
X5002Y1928D01*
X5002Y1932D01*
X5000Y1932D01*
X5000Y1936D01*
X4998Y1936D01*
X4998Y1940D01*
X4996Y1940D01*
X4996Y1948D01*
X4994Y1948D01*
X4994Y1982D01*
X4996Y1982D01*
X4996Y1988D01*
X4998Y1988D01*
X4998Y1992D01*
X5000Y1992D01*
X5000Y1996D01*
X5002Y1996D01*
X5002Y2000D01*
X5004Y2000D01*
X5004Y2004D01*
X5006Y2004D01*
X5006Y2026D01*
X5004Y2026D01*
X5004Y2028D01*
X5002Y2028D01*
X5002Y2032D01*
X5000Y2032D01*
X5000Y2036D01*
X4998Y2036D01*
X4998Y2040D01*
X4996Y2040D01*
X4996Y2048D01*
X4994Y2048D01*
X4994Y2082D01*
X4996Y2082D01*
X4996Y2088D01*
X4998Y2088D01*
X4998Y2092D01*
X5000Y2092D01*
X5000Y2096D01*
X5002Y2096D01*
X5002Y2100D01*
X5004Y2100D01*
X5004Y2104D01*
X5006Y2104D01*
X5006Y2106D01*
X5008Y2106D01*
X5008Y2108D01*
X5010Y2108D01*
X5010Y2110D01*
X5012Y2110D01*
X5012Y2112D01*
X5014Y2112D01*
X5014Y2114D01*
X5016Y2114D01*
X5016Y2116D01*
X5018Y2116D01*
X5018Y2118D01*
X5020Y2118D01*
X5020Y2120D01*
X5022Y2120D01*
X5022Y2122D01*
X5024Y2122D01*
X5024Y2124D01*
X5028Y2124D01*
X5028Y2126D01*
X5032Y2126D01*
X5032Y2128D01*
X5036Y2128D01*
X5036Y2130D01*
X5040Y2130D01*
X5040Y2132D01*
X5048Y2132D01*
X5048Y2134D01*
X4932Y2134D01*
G37*
D02*
G36*
X5080Y2134D02*
X5080Y2132D01*
X5086Y2132D01*
X5086Y2130D01*
X5092Y2130D01*
X5092Y2128D01*
X5096Y2128D01*
X5096Y2126D01*
X5098Y2126D01*
X5098Y2124D01*
X5102Y2124D01*
X5102Y2122D01*
X5104Y2122D01*
X5104Y2120D01*
X5108Y2120D01*
X5108Y2118D01*
X5110Y2118D01*
X5110Y2116D01*
X5112Y2116D01*
X5112Y2114D01*
X5114Y2114D01*
X5114Y2112D01*
X5116Y2112D01*
X5116Y2110D01*
X5118Y2110D01*
X5118Y2106D01*
X5120Y2106D01*
X5120Y2104D01*
X5122Y2104D01*
X5122Y2102D01*
X5124Y2102D01*
X5124Y2098D01*
X5126Y2098D01*
X5126Y2094D01*
X5128Y2094D01*
X5128Y2090D01*
X5130Y2090D01*
X5130Y2084D01*
X5132Y2084D01*
X5132Y2044D01*
X5130Y2044D01*
X5130Y2038D01*
X5128Y2038D01*
X5128Y2034D01*
X5126Y2034D01*
X5126Y2030D01*
X5124Y2030D01*
X5124Y2028D01*
X5122Y2028D01*
X5122Y2024D01*
X5120Y2024D01*
X5120Y2004D01*
X5122Y2004D01*
X5122Y2002D01*
X5124Y2002D01*
X5124Y1998D01*
X5126Y1998D01*
X5126Y1994D01*
X5128Y1994D01*
X5128Y1990D01*
X5130Y1990D01*
X5130Y1984D01*
X5132Y1984D01*
X5132Y1944D01*
X5130Y1944D01*
X5130Y1938D01*
X5128Y1938D01*
X5128Y1934D01*
X5126Y1934D01*
X5126Y1930D01*
X5124Y1930D01*
X5124Y1928D01*
X5122Y1928D01*
X5122Y1924D01*
X5120Y1924D01*
X5120Y1922D01*
X5118Y1922D01*
X5118Y1920D01*
X5116Y1920D01*
X5116Y1918D01*
X5114Y1918D01*
X5114Y1916D01*
X5112Y1916D01*
X5112Y1914D01*
X5110Y1914D01*
X5110Y1912D01*
X5108Y1912D01*
X5108Y1910D01*
X5106Y1910D01*
X5106Y1908D01*
X5104Y1908D01*
X5104Y1906D01*
X5100Y1906D01*
X5100Y1904D01*
X5098Y1904D01*
X5098Y1902D01*
X5094Y1902D01*
X5094Y1900D01*
X5090Y1900D01*
X5090Y1898D01*
X5084Y1898D01*
X5084Y1896D01*
X5072Y1896D01*
X5072Y1894D01*
X5394Y1894D01*
X5394Y2134D01*
X5080Y2134D01*
G37*
D02*
G36*
X50Y2132D02*
X50Y1892D01*
X148Y1892D01*
X148Y1894D01*
X140Y1894D01*
X140Y1896D01*
X134Y1896D01*
X134Y1898D01*
X130Y1898D01*
X130Y1900D01*
X126Y1900D01*
X126Y1902D01*
X124Y1902D01*
X124Y1904D01*
X120Y1904D01*
X120Y1906D01*
X118Y1906D01*
X118Y1908D01*
X116Y1908D01*
X116Y1910D01*
X114Y1910D01*
X114Y1912D01*
X112Y1912D01*
X112Y1914D01*
X110Y1914D01*
X110Y1916D01*
X108Y1916D01*
X108Y1918D01*
X106Y1918D01*
X106Y1920D01*
X104Y1920D01*
X104Y1924D01*
X102Y1924D01*
X102Y1926D01*
X100Y1926D01*
X100Y1930D01*
X98Y1930D01*
X98Y1934D01*
X96Y1934D01*
X96Y1938D01*
X94Y1938D01*
X94Y1946D01*
X92Y1946D01*
X92Y1978D01*
X94Y1978D01*
X94Y1984D01*
X96Y1984D01*
X96Y1990D01*
X98Y1990D01*
X98Y1994D01*
X100Y1994D01*
X100Y1998D01*
X102Y1998D01*
X102Y2000D01*
X104Y2000D01*
X104Y2024D01*
X102Y2024D01*
X102Y2026D01*
X100Y2026D01*
X100Y2030D01*
X98Y2030D01*
X98Y2034D01*
X96Y2034D01*
X96Y2038D01*
X94Y2038D01*
X94Y2046D01*
X92Y2046D01*
X92Y2078D01*
X94Y2078D01*
X94Y2084D01*
X96Y2084D01*
X96Y2090D01*
X98Y2090D01*
X98Y2094D01*
X100Y2094D01*
X100Y2098D01*
X102Y2098D01*
X102Y2100D01*
X104Y2100D01*
X104Y2104D01*
X106Y2104D01*
X106Y2106D01*
X108Y2106D01*
X108Y2108D01*
X110Y2108D01*
X110Y2110D01*
X112Y2110D01*
X112Y2112D01*
X114Y2112D01*
X114Y2114D01*
X116Y2114D01*
X116Y2116D01*
X118Y2116D01*
X118Y2118D01*
X122Y2118D01*
X122Y2120D01*
X124Y2120D01*
X124Y2122D01*
X128Y2122D01*
X128Y2124D01*
X130Y2124D01*
X130Y2126D01*
X134Y2126D01*
X134Y2128D01*
X140Y2128D01*
X140Y2130D01*
X148Y2130D01*
X148Y2132D01*
X50Y2132D01*
G37*
D02*
G36*
X174Y2132D02*
X174Y2130D01*
X182Y2130D01*
X182Y2128D01*
X188Y2128D01*
X188Y2126D01*
X192Y2126D01*
X192Y2124D01*
X196Y2124D01*
X196Y2122D01*
X200Y2122D01*
X200Y2120D01*
X202Y2120D01*
X202Y2118D01*
X204Y2118D01*
X204Y2116D01*
X206Y2116D01*
X206Y2114D01*
X210Y2114D01*
X210Y2112D01*
X212Y2112D01*
X212Y2110D01*
X214Y2110D01*
X214Y2106D01*
X216Y2106D01*
X216Y2104D01*
X218Y2104D01*
X218Y2102D01*
X220Y2102D01*
X220Y2100D01*
X222Y2100D01*
X222Y2096D01*
X224Y2096D01*
X224Y2092D01*
X226Y2092D01*
X226Y2088D01*
X228Y2088D01*
X228Y2082D01*
X230Y2082D01*
X230Y2072D01*
X232Y2072D01*
X232Y2052D01*
X230Y2052D01*
X230Y2042D01*
X228Y2042D01*
X228Y2036D01*
X226Y2036D01*
X226Y2032D01*
X224Y2032D01*
X224Y2028D01*
X222Y2028D01*
X222Y2024D01*
X220Y2024D01*
X220Y2022D01*
X218Y2022D01*
X218Y2002D01*
X220Y2002D01*
X220Y2000D01*
X222Y2000D01*
X222Y1996D01*
X224Y1996D01*
X224Y1992D01*
X226Y1992D01*
X226Y1988D01*
X228Y1988D01*
X228Y1982D01*
X230Y1982D01*
X230Y1972D01*
X232Y1972D01*
X232Y1952D01*
X230Y1952D01*
X230Y1942D01*
X228Y1942D01*
X228Y1936D01*
X226Y1936D01*
X226Y1932D01*
X224Y1932D01*
X224Y1928D01*
X222Y1928D01*
X222Y1924D01*
X220Y1924D01*
X220Y1922D01*
X218Y1922D01*
X218Y1920D01*
X216Y1920D01*
X216Y1916D01*
X214Y1916D01*
X214Y1914D01*
X212Y1914D01*
X212Y1912D01*
X210Y1912D01*
X210Y1910D01*
X208Y1910D01*
X208Y1908D01*
X204Y1908D01*
X204Y1906D01*
X202Y1906D01*
X202Y1904D01*
X200Y1904D01*
X200Y1902D01*
X196Y1902D01*
X196Y1900D01*
X192Y1900D01*
X192Y1898D01*
X188Y1898D01*
X188Y1896D01*
X184Y1896D01*
X184Y1894D01*
X176Y1894D01*
X176Y1892D01*
X492Y1892D01*
X492Y2132D01*
X174Y2132D01*
G37*
D02*
G36*
X632Y2128D02*
X632Y1894D01*
X630Y1894D01*
X630Y1892D01*
X732Y1892D01*
X732Y1894D01*
X728Y1894D01*
X728Y1896D01*
X724Y1896D01*
X724Y1898D01*
X720Y1898D01*
X720Y1900D01*
X718Y1900D01*
X718Y1902D01*
X714Y1902D01*
X714Y1904D01*
X712Y1904D01*
X712Y1906D01*
X710Y1906D01*
X710Y1908D01*
X708Y1908D01*
X708Y1910D01*
X706Y1910D01*
X706Y1912D01*
X704Y1912D01*
X704Y1914D01*
X702Y1914D01*
X702Y1918D01*
X700Y1918D01*
X700Y1920D01*
X698Y1920D01*
X698Y1924D01*
X696Y1924D01*
X696Y1926D01*
X694Y1926D01*
X694Y1930D01*
X692Y1930D01*
X692Y1936D01*
X690Y1936D01*
X690Y1944D01*
X688Y1944D01*
X688Y1972D01*
X690Y1972D01*
X690Y1980D01*
X692Y1980D01*
X692Y1986D01*
X694Y1986D01*
X694Y1990D01*
X696Y1990D01*
X696Y1994D01*
X698Y1994D01*
X698Y1996D01*
X700Y1996D01*
X700Y1998D01*
X702Y1998D01*
X702Y2018D01*
X700Y2018D01*
X700Y2020D01*
X698Y2020D01*
X698Y2024D01*
X696Y2024D01*
X696Y2026D01*
X694Y2026D01*
X694Y2030D01*
X692Y2030D01*
X692Y2036D01*
X690Y2036D01*
X690Y2044D01*
X688Y2044D01*
X688Y2072D01*
X690Y2072D01*
X690Y2080D01*
X692Y2080D01*
X692Y2086D01*
X694Y2086D01*
X694Y2090D01*
X696Y2090D01*
X696Y2094D01*
X698Y2094D01*
X698Y2096D01*
X700Y2096D01*
X700Y2098D01*
X702Y2098D01*
X702Y2102D01*
X704Y2102D01*
X704Y2104D01*
X706Y2104D01*
X706Y2106D01*
X708Y2106D01*
X708Y2108D01*
X710Y2108D01*
X710Y2110D01*
X712Y2110D01*
X712Y2112D01*
X714Y2112D01*
X714Y2114D01*
X718Y2114D01*
X718Y2116D01*
X720Y2116D01*
X720Y2118D01*
X722Y2118D01*
X722Y2120D01*
X726Y2120D01*
X726Y2122D01*
X730Y2122D01*
X730Y2124D01*
X736Y2124D01*
X736Y2126D01*
X744Y2126D01*
X744Y2128D01*
X632Y2128D01*
G37*
D02*
G36*
X772Y2128D02*
X772Y2126D01*
X780Y2126D01*
X780Y2124D01*
X786Y2124D01*
X786Y2122D01*
X790Y2122D01*
X790Y2120D01*
X792Y2120D01*
X792Y2118D01*
X796Y2118D01*
X796Y2116D01*
X798Y2116D01*
X798Y2114D01*
X802Y2114D01*
X802Y2112D01*
X804Y2112D01*
X804Y2110D01*
X806Y2110D01*
X806Y2108D01*
X808Y2108D01*
X808Y2106D01*
X810Y2106D01*
X810Y2104D01*
X812Y2104D01*
X812Y2102D01*
X814Y2102D01*
X814Y2098D01*
X816Y2098D01*
X816Y2096D01*
X818Y2096D01*
X818Y2092D01*
X820Y2092D01*
X820Y2088D01*
X822Y2088D01*
X822Y2084D01*
X824Y2084D01*
X824Y2080D01*
X826Y2080D01*
X826Y2070D01*
X828Y2070D01*
X828Y2046D01*
X826Y2046D01*
X826Y2036D01*
X824Y2036D01*
X824Y2032D01*
X822Y2032D01*
X822Y2028D01*
X820Y2028D01*
X820Y2024D01*
X818Y2024D01*
X818Y2020D01*
X816Y2020D01*
X816Y2018D01*
X814Y2018D01*
X814Y1998D01*
X816Y1998D01*
X816Y1996D01*
X818Y1996D01*
X818Y1992D01*
X820Y1992D01*
X820Y1988D01*
X822Y1988D01*
X822Y1984D01*
X824Y1984D01*
X824Y1980D01*
X826Y1980D01*
X826Y1970D01*
X828Y1970D01*
X828Y1946D01*
X826Y1946D01*
X826Y1936D01*
X824Y1936D01*
X824Y1932D01*
X822Y1932D01*
X822Y1928D01*
X820Y1928D01*
X820Y1924D01*
X818Y1924D01*
X818Y1920D01*
X816Y1920D01*
X816Y1918D01*
X814Y1918D01*
X814Y1916D01*
X812Y1916D01*
X812Y1912D01*
X810Y1912D01*
X810Y1910D01*
X808Y1910D01*
X808Y1908D01*
X806Y1908D01*
X806Y1906D01*
X804Y1906D01*
X804Y1904D01*
X800Y1904D01*
X800Y1902D01*
X798Y1902D01*
X798Y1900D01*
X796Y1900D01*
X796Y1898D01*
X792Y1898D01*
X792Y1896D01*
X788Y1896D01*
X788Y1894D01*
X784Y1894D01*
X784Y1892D01*
X780Y1892D01*
X780Y1890D01*
X770Y1890D01*
X770Y1888D01*
X1088Y1888D01*
X1088Y2128D01*
X772Y2128D01*
G37*
D02*
G36*
X1832Y1910D02*
X1832Y1908D01*
X4440Y1908D01*
X4440Y1910D01*
X1832Y1910D01*
G37*
D02*
G36*
X1832Y1910D02*
X1832Y1908D01*
X4440Y1908D01*
X4440Y1910D01*
X1832Y1910D01*
G37*
D02*
G36*
X1832Y1910D02*
X1832Y1908D01*
X4440Y1908D01*
X4440Y1910D01*
X1832Y1910D01*
G37*
D02*
G36*
X1832Y1908D02*
X1832Y1906D01*
X4448Y1906D01*
X4448Y1908D01*
X1832Y1908D01*
G37*
D02*
G36*
X1832Y1906D02*
X1832Y1904D01*
X5026Y1904D01*
X5026Y1906D01*
X1832Y1906D01*
G37*
D02*
G36*
X1832Y1906D02*
X1832Y1904D01*
X5026Y1904D01*
X5026Y1906D01*
X1832Y1906D01*
G37*
D02*
G36*
X1832Y1906D02*
X1832Y1904D01*
X5026Y1904D01*
X5026Y1906D01*
X1832Y1906D01*
G37*
D02*
G36*
X1832Y1904D02*
X1832Y1896D01*
X5044Y1896D01*
X5044Y1898D01*
X5038Y1898D01*
X5038Y1900D01*
X5034Y1900D01*
X5034Y1902D01*
X5030Y1902D01*
X5030Y1904D01*
X1832Y1904D01*
G37*
D02*
G36*
X1228Y1896D02*
X1228Y1894D01*
X5056Y1894D01*
X5056Y1896D01*
X1228Y1896D01*
G37*
D02*
G36*
X1228Y1896D02*
X1228Y1894D01*
X5056Y1894D01*
X5056Y1896D01*
X1228Y1896D01*
G37*
D02*
G36*
X1228Y1896D02*
X1228Y1894D01*
X5056Y1894D01*
X5056Y1896D01*
X1228Y1896D01*
G37*
D02*
G36*
X1228Y1894D02*
X1228Y1892D01*
X5666Y1892D01*
X5666Y1894D01*
X1228Y1894D01*
G37*
D02*
G36*
X1228Y1894D02*
X1228Y1892D01*
X5666Y1892D01*
X5666Y1894D01*
X1228Y1894D01*
G37*
D02*
G36*
X1228Y1894D02*
X1228Y1892D01*
X5666Y1892D01*
X5666Y1894D01*
X1228Y1894D01*
G37*
D02*
G36*
X50Y1892D02*
X50Y1890D01*
X736Y1890D01*
X736Y1892D01*
X50Y1892D01*
G37*
D02*
G36*
X50Y1892D02*
X50Y1890D01*
X736Y1890D01*
X736Y1892D01*
X50Y1892D01*
G37*
D02*
G36*
X50Y1892D02*
X50Y1890D01*
X736Y1890D01*
X736Y1892D01*
X50Y1892D01*
G37*
D02*
G36*
X1228Y1892D02*
X1228Y1890D01*
X1226Y1890D01*
X1226Y1888D01*
X5666Y1888D01*
X5666Y1892D01*
X1228Y1892D01*
G37*
D02*
G36*
X50Y1890D02*
X50Y1888D01*
X746Y1888D01*
X746Y1890D01*
X50Y1890D01*
G37*
D02*
G36*
X50Y1888D02*
X50Y1886D01*
X5666Y1886D01*
X5666Y1888D01*
X50Y1888D01*
G37*
D02*
G36*
X50Y1888D02*
X50Y1886D01*
X5666Y1886D01*
X5666Y1888D01*
X50Y1888D01*
G37*
D02*
G36*
X50Y1888D02*
X50Y1886D01*
X5666Y1886D01*
X5666Y1888D01*
X50Y1888D01*
G37*
D02*
G36*
X50Y1886D02*
X50Y1856D01*
X5442Y1856D01*
X5442Y1710D01*
X5666Y1710D01*
X5666Y1886D01*
X50Y1886D01*
G37*
D02*
G36*
X50Y1856D02*
X50Y1852D01*
X4242Y1852D01*
X4242Y1848D01*
X4838Y1848D01*
X4838Y1710D01*
X5052Y1710D01*
X5052Y1712D01*
X5046Y1712D01*
X5046Y1714D01*
X5040Y1714D01*
X5040Y1716D01*
X5036Y1716D01*
X5036Y1718D01*
X5032Y1718D01*
X5032Y1720D01*
X5030Y1720D01*
X5030Y1722D01*
X5026Y1722D01*
X5026Y1724D01*
X5024Y1724D01*
X5024Y1726D01*
X5022Y1726D01*
X5022Y1728D01*
X5020Y1728D01*
X5020Y1730D01*
X5018Y1730D01*
X5018Y1732D01*
X5016Y1732D01*
X5016Y1734D01*
X5014Y1734D01*
X5014Y1736D01*
X5012Y1736D01*
X5012Y1738D01*
X5010Y1738D01*
X5010Y1740D01*
X5008Y1740D01*
X5008Y1744D01*
X5006Y1744D01*
X5006Y1746D01*
X5004Y1746D01*
X5004Y1750D01*
X5002Y1750D01*
X5002Y1754D01*
X5000Y1754D01*
X5000Y1760D01*
X4998Y1760D01*
X4998Y1766D01*
X4996Y1766D01*
X4996Y1800D01*
X4998Y1800D01*
X4998Y1806D01*
X5000Y1806D01*
X5000Y1812D01*
X5002Y1812D01*
X5002Y1816D01*
X5004Y1816D01*
X5004Y1820D01*
X5006Y1820D01*
X5006Y1822D01*
X5008Y1822D01*
X5008Y1826D01*
X5010Y1826D01*
X5010Y1828D01*
X5012Y1828D01*
X5012Y1830D01*
X5014Y1830D01*
X5014Y1832D01*
X5016Y1832D01*
X5016Y1834D01*
X5018Y1834D01*
X5018Y1836D01*
X5020Y1836D01*
X5020Y1838D01*
X5022Y1838D01*
X5022Y1840D01*
X5024Y1840D01*
X5024Y1842D01*
X5026Y1842D01*
X5026Y1844D01*
X5030Y1844D01*
X5030Y1846D01*
X5032Y1846D01*
X5032Y1848D01*
X5036Y1848D01*
X5036Y1850D01*
X5040Y1850D01*
X5040Y1852D01*
X5046Y1852D01*
X5046Y1854D01*
X5052Y1854D01*
X5052Y1856D01*
X50Y1856D01*
G37*
D02*
G36*
X5086Y1856D02*
X5086Y1854D01*
X5092Y1854D01*
X5092Y1852D01*
X5098Y1852D01*
X5098Y1850D01*
X5102Y1850D01*
X5102Y1848D01*
X5106Y1848D01*
X5106Y1846D01*
X5108Y1846D01*
X5108Y1844D01*
X5112Y1844D01*
X5112Y1842D01*
X5114Y1842D01*
X5114Y1840D01*
X5116Y1840D01*
X5116Y1838D01*
X5118Y1838D01*
X5118Y1836D01*
X5120Y1836D01*
X5120Y1834D01*
X5122Y1834D01*
X5122Y1832D01*
X5124Y1832D01*
X5124Y1830D01*
X5126Y1830D01*
X5126Y1828D01*
X5128Y1828D01*
X5128Y1826D01*
X5130Y1826D01*
X5130Y1822D01*
X5132Y1822D01*
X5132Y1820D01*
X5134Y1820D01*
X5134Y1816D01*
X5136Y1816D01*
X5136Y1812D01*
X5138Y1812D01*
X5138Y1806D01*
X5140Y1806D01*
X5140Y1800D01*
X5142Y1800D01*
X5142Y1766D01*
X5140Y1766D01*
X5140Y1758D01*
X5138Y1758D01*
X5138Y1754D01*
X5136Y1754D01*
X5136Y1750D01*
X5134Y1750D01*
X5134Y1746D01*
X5132Y1746D01*
X5132Y1744D01*
X5130Y1744D01*
X5130Y1740D01*
X5128Y1740D01*
X5128Y1738D01*
X5126Y1738D01*
X5126Y1736D01*
X5124Y1736D01*
X5124Y1734D01*
X5122Y1734D01*
X5122Y1732D01*
X5120Y1732D01*
X5120Y1730D01*
X5118Y1730D01*
X5118Y1728D01*
X5116Y1728D01*
X5116Y1726D01*
X5114Y1726D01*
X5114Y1724D01*
X5112Y1724D01*
X5112Y1722D01*
X5108Y1722D01*
X5108Y1720D01*
X5106Y1720D01*
X5106Y1718D01*
X5102Y1718D01*
X5102Y1716D01*
X5098Y1716D01*
X5098Y1714D01*
X5092Y1714D01*
X5092Y1712D01*
X5086Y1712D01*
X5086Y1710D01*
X5296Y1710D01*
X5296Y1766D01*
X5294Y1766D01*
X5294Y1800D01*
X5296Y1800D01*
X5296Y1856D01*
X5086Y1856D01*
G37*
D02*
G36*
X50Y1852D02*
X50Y1838D01*
X1736Y1838D01*
X1736Y1706D01*
X3854Y1706D01*
X3854Y1708D01*
X3846Y1708D01*
X3846Y1710D01*
X3840Y1710D01*
X3840Y1712D01*
X3836Y1712D01*
X3836Y1714D01*
X3834Y1714D01*
X3834Y1716D01*
X3830Y1716D01*
X3830Y1718D01*
X3828Y1718D01*
X3828Y1720D01*
X3824Y1720D01*
X3824Y1722D01*
X3822Y1722D01*
X3822Y1724D01*
X3820Y1724D01*
X3820Y1726D01*
X3818Y1726D01*
X3818Y1728D01*
X3816Y1728D01*
X3816Y1730D01*
X3814Y1730D01*
X3814Y1732D01*
X3812Y1732D01*
X3812Y1734D01*
X3810Y1734D01*
X3810Y1736D01*
X3808Y1736D01*
X3808Y1740D01*
X3806Y1740D01*
X3806Y1744D01*
X3804Y1744D01*
X3804Y1746D01*
X3802Y1746D01*
X3802Y1750D01*
X3800Y1750D01*
X3800Y1756D01*
X3798Y1756D01*
X3798Y1764D01*
X3796Y1764D01*
X3796Y1796D01*
X3798Y1796D01*
X3798Y1802D01*
X3800Y1802D01*
X3800Y1808D01*
X3802Y1808D01*
X3802Y1812D01*
X3804Y1812D01*
X3804Y1816D01*
X3806Y1816D01*
X3806Y1818D01*
X3808Y1818D01*
X3808Y1822D01*
X3810Y1822D01*
X3810Y1824D01*
X3812Y1824D01*
X3812Y1826D01*
X3814Y1826D01*
X3814Y1828D01*
X3816Y1828D01*
X3816Y1830D01*
X3818Y1830D01*
X3818Y1832D01*
X3820Y1832D01*
X3820Y1834D01*
X3822Y1834D01*
X3822Y1836D01*
X3824Y1836D01*
X3824Y1838D01*
X3826Y1838D01*
X3826Y1840D01*
X3830Y1840D01*
X3830Y1842D01*
X3832Y1842D01*
X3832Y1844D01*
X3836Y1844D01*
X3836Y1846D01*
X3840Y1846D01*
X3840Y1848D01*
X3844Y1848D01*
X3844Y1850D01*
X3852Y1850D01*
X3852Y1852D01*
X50Y1852D01*
G37*
D02*
G36*
X3886Y1852D02*
X3886Y1850D01*
X3894Y1850D01*
X3894Y1848D01*
X3898Y1848D01*
X3898Y1846D01*
X3902Y1846D01*
X3902Y1844D01*
X3906Y1844D01*
X3906Y1842D01*
X3910Y1842D01*
X3910Y1840D01*
X3912Y1840D01*
X3912Y1838D01*
X3914Y1838D01*
X3914Y1836D01*
X3916Y1836D01*
X3916Y1834D01*
X3920Y1834D01*
X3920Y1832D01*
X3922Y1832D01*
X3922Y1830D01*
X3924Y1830D01*
X3924Y1826D01*
X3926Y1826D01*
X3926Y1824D01*
X3928Y1824D01*
X3928Y1822D01*
X3930Y1822D01*
X3930Y1818D01*
X3932Y1818D01*
X3932Y1816D01*
X3934Y1816D01*
X3934Y1812D01*
X3936Y1812D01*
X3936Y1808D01*
X3938Y1808D01*
X3938Y1804D01*
X3940Y1804D01*
X3940Y1796D01*
X3942Y1796D01*
X3942Y1762D01*
X3940Y1762D01*
X3940Y1756D01*
X3938Y1756D01*
X3938Y1750D01*
X3936Y1750D01*
X3936Y1746D01*
X3934Y1746D01*
X3934Y1742D01*
X3932Y1742D01*
X3932Y1740D01*
X3930Y1740D01*
X3930Y1736D01*
X3928Y1736D01*
X3928Y1734D01*
X3926Y1734D01*
X3926Y1732D01*
X3924Y1732D01*
X3924Y1730D01*
X3922Y1730D01*
X3922Y1728D01*
X3920Y1728D01*
X3920Y1726D01*
X3918Y1726D01*
X3918Y1724D01*
X3916Y1724D01*
X3916Y1722D01*
X3914Y1722D01*
X3914Y1720D01*
X3912Y1720D01*
X3912Y1718D01*
X3908Y1718D01*
X3908Y1716D01*
X3906Y1716D01*
X3906Y1714D01*
X3902Y1714D01*
X3902Y1712D01*
X3898Y1712D01*
X3898Y1710D01*
X3892Y1710D01*
X3892Y1708D01*
X3884Y1708D01*
X3884Y1706D01*
X4096Y1706D01*
X4096Y1764D01*
X4094Y1764D01*
X4094Y1796D01*
X4096Y1796D01*
X4096Y1852D01*
X3886Y1852D01*
G37*
D02*
G36*
X4242Y1848D02*
X4242Y1708D01*
X4240Y1708D01*
X4240Y1706D01*
X4438Y1706D01*
X4438Y1708D01*
X4434Y1708D01*
X4434Y1710D01*
X4430Y1710D01*
X4430Y1712D01*
X4426Y1712D01*
X4426Y1714D01*
X4424Y1714D01*
X4424Y1716D01*
X4422Y1716D01*
X4422Y1718D01*
X4418Y1718D01*
X4418Y1720D01*
X4416Y1720D01*
X4416Y1722D01*
X4414Y1722D01*
X4414Y1724D01*
X4412Y1724D01*
X4412Y1726D01*
X4410Y1726D01*
X4410Y1728D01*
X4408Y1728D01*
X4408Y1732D01*
X4406Y1732D01*
X4406Y1734D01*
X4404Y1734D01*
X4404Y1736D01*
X4402Y1736D01*
X4402Y1740D01*
X4400Y1740D01*
X4400Y1744D01*
X4398Y1744D01*
X4398Y1748D01*
X4396Y1748D01*
X4396Y1752D01*
X4394Y1752D01*
X4394Y1762D01*
X4392Y1762D01*
X4392Y1790D01*
X4394Y1790D01*
X4394Y1798D01*
X4396Y1798D01*
X4396Y1804D01*
X4398Y1804D01*
X4398Y1808D01*
X4400Y1808D01*
X4400Y1812D01*
X4402Y1812D01*
X4402Y1814D01*
X4404Y1814D01*
X4404Y1818D01*
X4406Y1818D01*
X4406Y1820D01*
X4408Y1820D01*
X4408Y1822D01*
X4410Y1822D01*
X4410Y1824D01*
X4412Y1824D01*
X4412Y1826D01*
X4414Y1826D01*
X4414Y1828D01*
X4416Y1828D01*
X4416Y1830D01*
X4418Y1830D01*
X4418Y1832D01*
X4420Y1832D01*
X4420Y1834D01*
X4422Y1834D01*
X4422Y1836D01*
X4424Y1836D01*
X4424Y1838D01*
X4428Y1838D01*
X4428Y1840D01*
X4432Y1840D01*
X4432Y1842D01*
X4436Y1842D01*
X4436Y1844D01*
X4440Y1844D01*
X4440Y1846D01*
X4446Y1846D01*
X4446Y1848D01*
X4242Y1848D01*
G37*
D02*
G36*
X4484Y1848D02*
X4484Y1846D01*
X4490Y1846D01*
X4490Y1844D01*
X4496Y1844D01*
X4496Y1842D01*
X4500Y1842D01*
X4500Y1840D01*
X4502Y1840D01*
X4502Y1838D01*
X4506Y1838D01*
X4506Y1836D01*
X4508Y1836D01*
X4508Y1834D01*
X4512Y1834D01*
X4512Y1832D01*
X4514Y1832D01*
X4514Y1830D01*
X4516Y1830D01*
X4516Y1828D01*
X4518Y1828D01*
X4518Y1826D01*
X4520Y1826D01*
X4520Y1824D01*
X4522Y1824D01*
X4522Y1822D01*
X4524Y1822D01*
X4524Y1818D01*
X4526Y1818D01*
X4526Y1816D01*
X4528Y1816D01*
X4528Y1812D01*
X4530Y1812D01*
X4530Y1810D01*
X4532Y1810D01*
X4532Y1806D01*
X4534Y1806D01*
X4534Y1800D01*
X4536Y1800D01*
X4536Y1794D01*
X4538Y1794D01*
X4538Y1758D01*
X4536Y1758D01*
X4536Y1750D01*
X4534Y1750D01*
X4534Y1746D01*
X4532Y1746D01*
X4532Y1742D01*
X4530Y1742D01*
X4530Y1738D01*
X4528Y1738D01*
X4528Y1736D01*
X4526Y1736D01*
X4526Y1732D01*
X4524Y1732D01*
X4524Y1730D01*
X4522Y1730D01*
X4522Y1728D01*
X4520Y1728D01*
X4520Y1726D01*
X4518Y1726D01*
X4518Y1724D01*
X4516Y1724D01*
X4516Y1722D01*
X4514Y1722D01*
X4514Y1720D01*
X4512Y1720D01*
X4512Y1718D01*
X4510Y1718D01*
X4510Y1716D01*
X4508Y1716D01*
X4508Y1714D01*
X4504Y1714D01*
X4504Y1712D01*
X4500Y1712D01*
X4500Y1710D01*
X4498Y1710D01*
X4498Y1708D01*
X4492Y1708D01*
X4492Y1706D01*
X4488Y1706D01*
X4488Y1704D01*
X4478Y1704D01*
X4478Y1702D01*
X4692Y1702D01*
X4692Y1762D01*
X4690Y1762D01*
X4690Y1790D01*
X4692Y1790D01*
X4692Y1848D01*
X4484Y1848D01*
G37*
D02*
G36*
X50Y1838D02*
X50Y1834D01*
X536Y1834D01*
X536Y1832D01*
X1132Y1832D01*
X1132Y1692D01*
X1350Y1692D01*
X1350Y1694D01*
X1342Y1694D01*
X1342Y1696D01*
X1336Y1696D01*
X1336Y1698D01*
X1332Y1698D01*
X1332Y1700D01*
X1328Y1700D01*
X1328Y1702D01*
X1324Y1702D01*
X1324Y1704D01*
X1322Y1704D01*
X1322Y1706D01*
X1320Y1706D01*
X1320Y1708D01*
X1316Y1708D01*
X1316Y1710D01*
X1314Y1710D01*
X1314Y1712D01*
X1312Y1712D01*
X1312Y1714D01*
X1310Y1714D01*
X1310Y1716D01*
X1308Y1716D01*
X1308Y1718D01*
X1306Y1718D01*
X1306Y1722D01*
X1304Y1722D01*
X1304Y1724D01*
X1302Y1724D01*
X1302Y1726D01*
X1300Y1726D01*
X1300Y1730D01*
X1298Y1730D01*
X1298Y1734D01*
X1296Y1734D01*
X1296Y1738D01*
X1294Y1738D01*
X1294Y1744D01*
X1292Y1744D01*
X1292Y1752D01*
X1290Y1752D01*
X1290Y1778D01*
X1292Y1778D01*
X1292Y1788D01*
X1294Y1788D01*
X1294Y1794D01*
X1296Y1794D01*
X1296Y1798D01*
X1298Y1798D01*
X1298Y1800D01*
X1300Y1800D01*
X1300Y1804D01*
X1302Y1804D01*
X1302Y1808D01*
X1304Y1808D01*
X1304Y1810D01*
X1306Y1810D01*
X1306Y1812D01*
X1308Y1812D01*
X1308Y1814D01*
X1310Y1814D01*
X1310Y1816D01*
X1312Y1816D01*
X1312Y1818D01*
X1314Y1818D01*
X1314Y1820D01*
X1316Y1820D01*
X1316Y1822D01*
X1318Y1822D01*
X1318Y1824D01*
X1320Y1824D01*
X1320Y1826D01*
X1324Y1826D01*
X1324Y1828D01*
X1326Y1828D01*
X1326Y1830D01*
X1330Y1830D01*
X1330Y1832D01*
X1334Y1832D01*
X1334Y1834D01*
X1338Y1834D01*
X1338Y1836D01*
X1344Y1836D01*
X1344Y1838D01*
X50Y1838D01*
G37*
D02*
G36*
X1382Y1838D02*
X1382Y1836D01*
X1388Y1836D01*
X1388Y1834D01*
X1394Y1834D01*
X1394Y1832D01*
X1398Y1832D01*
X1398Y1830D01*
X1400Y1830D01*
X1400Y1828D01*
X1404Y1828D01*
X1404Y1826D01*
X1406Y1826D01*
X1406Y1824D01*
X1410Y1824D01*
X1410Y1822D01*
X1412Y1822D01*
X1412Y1820D01*
X1414Y1820D01*
X1414Y1818D01*
X1416Y1818D01*
X1416Y1816D01*
X1418Y1816D01*
X1418Y1814D01*
X1420Y1814D01*
X1420Y1812D01*
X1422Y1812D01*
X1422Y1808D01*
X1424Y1808D01*
X1424Y1806D01*
X1426Y1806D01*
X1426Y1802D01*
X1428Y1802D01*
X1428Y1800D01*
X1430Y1800D01*
X1430Y1796D01*
X1432Y1796D01*
X1432Y1790D01*
X1434Y1790D01*
X1434Y1784D01*
X1436Y1784D01*
X1436Y1746D01*
X1434Y1746D01*
X1434Y1740D01*
X1432Y1740D01*
X1432Y1736D01*
X1430Y1736D01*
X1430Y1732D01*
X1428Y1732D01*
X1428Y1728D01*
X1426Y1728D01*
X1426Y1726D01*
X1424Y1726D01*
X1424Y1722D01*
X1422Y1722D01*
X1422Y1720D01*
X1420Y1720D01*
X1420Y1718D01*
X1418Y1718D01*
X1418Y1716D01*
X1416Y1716D01*
X1416Y1714D01*
X1414Y1714D01*
X1414Y1712D01*
X1412Y1712D01*
X1412Y1710D01*
X1410Y1710D01*
X1410Y1708D01*
X1408Y1708D01*
X1408Y1706D01*
X1406Y1706D01*
X1406Y1704D01*
X1402Y1704D01*
X1402Y1702D01*
X1400Y1702D01*
X1400Y1700D01*
X1396Y1700D01*
X1396Y1698D01*
X1392Y1698D01*
X1392Y1696D01*
X1386Y1696D01*
X1386Y1694D01*
X1376Y1694D01*
X1376Y1692D01*
X1590Y1692D01*
X1590Y1752D01*
X1588Y1752D01*
X1588Y1778D01*
X1590Y1778D01*
X1590Y1838D01*
X1382Y1838D01*
G37*
D02*
G36*
X50Y1834D02*
X50Y1688D01*
X154Y1688D01*
X154Y1690D01*
X142Y1690D01*
X142Y1692D01*
X136Y1692D01*
X136Y1694D01*
X132Y1694D01*
X132Y1696D01*
X128Y1696D01*
X128Y1698D01*
X126Y1698D01*
X126Y1700D01*
X122Y1700D01*
X122Y1702D01*
X120Y1702D01*
X120Y1704D01*
X118Y1704D01*
X118Y1706D01*
X114Y1706D01*
X114Y1708D01*
X112Y1708D01*
X112Y1710D01*
X110Y1710D01*
X110Y1712D01*
X108Y1712D01*
X108Y1716D01*
X106Y1716D01*
X106Y1718D01*
X104Y1718D01*
X104Y1720D01*
X102Y1720D01*
X102Y1724D01*
X100Y1724D01*
X100Y1726D01*
X98Y1726D01*
X98Y1730D01*
X96Y1730D01*
X96Y1734D01*
X94Y1734D01*
X94Y1740D01*
X92Y1740D01*
X92Y1748D01*
X90Y1748D01*
X90Y1774D01*
X92Y1774D01*
X92Y1784D01*
X94Y1784D01*
X94Y1790D01*
X96Y1790D01*
X96Y1794D01*
X98Y1794D01*
X98Y1798D01*
X100Y1798D01*
X100Y1800D01*
X102Y1800D01*
X102Y1804D01*
X104Y1804D01*
X104Y1806D01*
X106Y1806D01*
X106Y1808D01*
X108Y1808D01*
X108Y1810D01*
X110Y1810D01*
X110Y1812D01*
X112Y1812D01*
X112Y1814D01*
X114Y1814D01*
X114Y1816D01*
X116Y1816D01*
X116Y1818D01*
X118Y1818D01*
X118Y1820D01*
X120Y1820D01*
X120Y1822D01*
X122Y1822D01*
X122Y1824D01*
X126Y1824D01*
X126Y1826D01*
X130Y1826D01*
X130Y1828D01*
X132Y1828D01*
X132Y1830D01*
X138Y1830D01*
X138Y1832D01*
X144Y1832D01*
X144Y1834D01*
X50Y1834D01*
G37*
D02*
G36*
X184Y1834D02*
X184Y1832D01*
X190Y1832D01*
X190Y1830D01*
X194Y1830D01*
X194Y1828D01*
X198Y1828D01*
X198Y1826D01*
X202Y1826D01*
X202Y1824D01*
X204Y1824D01*
X204Y1822D01*
X208Y1822D01*
X208Y1820D01*
X210Y1820D01*
X210Y1818D01*
X212Y1818D01*
X212Y1816D01*
X214Y1816D01*
X214Y1814D01*
X216Y1814D01*
X216Y1812D01*
X218Y1812D01*
X218Y1810D01*
X220Y1810D01*
X220Y1808D01*
X222Y1808D01*
X222Y1806D01*
X224Y1806D01*
X224Y1802D01*
X226Y1802D01*
X226Y1800D01*
X228Y1800D01*
X228Y1796D01*
X230Y1796D01*
X230Y1792D01*
X232Y1792D01*
X232Y1788D01*
X234Y1788D01*
X234Y1780D01*
X236Y1780D01*
X236Y1742D01*
X234Y1742D01*
X234Y1736D01*
X232Y1736D01*
X232Y1732D01*
X230Y1732D01*
X230Y1728D01*
X228Y1728D01*
X228Y1724D01*
X226Y1724D01*
X226Y1722D01*
X224Y1722D01*
X224Y1718D01*
X222Y1718D01*
X222Y1716D01*
X220Y1716D01*
X220Y1714D01*
X218Y1714D01*
X218Y1712D01*
X216Y1712D01*
X216Y1710D01*
X214Y1710D01*
X214Y1708D01*
X212Y1708D01*
X212Y1706D01*
X210Y1706D01*
X210Y1704D01*
X208Y1704D01*
X208Y1702D01*
X204Y1702D01*
X204Y1700D01*
X202Y1700D01*
X202Y1698D01*
X198Y1698D01*
X198Y1696D01*
X194Y1696D01*
X194Y1694D01*
X190Y1694D01*
X190Y1692D01*
X184Y1692D01*
X184Y1690D01*
X174Y1690D01*
X174Y1688D01*
X390Y1688D01*
X390Y1748D01*
X388Y1748D01*
X388Y1774D01*
X390Y1774D01*
X390Y1834D01*
X184Y1834D01*
G37*
D02*
G36*
X536Y1832D02*
X536Y1690D01*
X534Y1690D01*
X534Y1688D01*
X734Y1688D01*
X734Y1690D01*
X730Y1690D01*
X730Y1692D01*
X726Y1692D01*
X726Y1694D01*
X722Y1694D01*
X722Y1696D01*
X720Y1696D01*
X720Y1698D01*
X716Y1698D01*
X716Y1700D01*
X714Y1700D01*
X714Y1702D01*
X712Y1702D01*
X712Y1704D01*
X710Y1704D01*
X710Y1706D01*
X708Y1706D01*
X708Y1708D01*
X706Y1708D01*
X706Y1710D01*
X704Y1710D01*
X704Y1712D01*
X702Y1712D01*
X702Y1714D01*
X700Y1714D01*
X700Y1716D01*
X698Y1716D01*
X698Y1720D01*
X696Y1720D01*
X696Y1724D01*
X694Y1724D01*
X694Y1728D01*
X692Y1728D01*
X692Y1732D01*
X690Y1732D01*
X690Y1738D01*
X688Y1738D01*
X688Y1748D01*
X686Y1748D01*
X686Y1768D01*
X688Y1768D01*
X688Y1780D01*
X690Y1780D01*
X690Y1784D01*
X692Y1784D01*
X692Y1790D01*
X694Y1790D01*
X694Y1794D01*
X696Y1794D01*
X696Y1796D01*
X698Y1796D01*
X698Y1800D01*
X700Y1800D01*
X700Y1802D01*
X702Y1802D01*
X702Y1804D01*
X704Y1804D01*
X704Y1806D01*
X706Y1806D01*
X706Y1808D01*
X708Y1808D01*
X708Y1810D01*
X710Y1810D01*
X710Y1812D01*
X712Y1812D01*
X712Y1814D01*
X714Y1814D01*
X714Y1816D01*
X716Y1816D01*
X716Y1818D01*
X718Y1818D01*
X718Y1820D01*
X722Y1820D01*
X722Y1822D01*
X724Y1822D01*
X724Y1824D01*
X728Y1824D01*
X728Y1826D01*
X734Y1826D01*
X734Y1828D01*
X738Y1828D01*
X738Y1830D01*
X750Y1830D01*
X750Y1832D01*
X536Y1832D01*
G37*
D02*
G36*
X770Y1832D02*
X770Y1830D01*
X782Y1830D01*
X782Y1828D01*
X786Y1828D01*
X786Y1826D01*
X792Y1826D01*
X792Y1824D01*
X794Y1824D01*
X794Y1822D01*
X798Y1822D01*
X798Y1820D01*
X802Y1820D01*
X802Y1818D01*
X804Y1818D01*
X804Y1816D01*
X806Y1816D01*
X806Y1814D01*
X808Y1814D01*
X808Y1812D01*
X810Y1812D01*
X810Y1810D01*
X812Y1810D01*
X812Y1808D01*
X814Y1808D01*
X814Y1806D01*
X816Y1806D01*
X816Y1804D01*
X818Y1804D01*
X818Y1802D01*
X820Y1802D01*
X820Y1798D01*
X822Y1798D01*
X822Y1796D01*
X824Y1796D01*
X824Y1792D01*
X826Y1792D01*
X826Y1788D01*
X828Y1788D01*
X828Y1784D01*
X830Y1784D01*
X830Y1778D01*
X832Y1778D01*
X832Y1738D01*
X830Y1738D01*
X830Y1732D01*
X828Y1732D01*
X828Y1728D01*
X826Y1728D01*
X826Y1724D01*
X824Y1724D01*
X824Y1720D01*
X822Y1720D01*
X822Y1718D01*
X820Y1718D01*
X820Y1714D01*
X818Y1714D01*
X818Y1712D01*
X816Y1712D01*
X816Y1710D01*
X814Y1710D01*
X814Y1708D01*
X812Y1708D01*
X812Y1706D01*
X810Y1706D01*
X810Y1704D01*
X808Y1704D01*
X808Y1702D01*
X806Y1702D01*
X806Y1700D01*
X804Y1700D01*
X804Y1698D01*
X800Y1698D01*
X800Y1696D01*
X798Y1696D01*
X798Y1694D01*
X794Y1694D01*
X794Y1692D01*
X790Y1692D01*
X790Y1690D01*
X786Y1690D01*
X786Y1688D01*
X780Y1688D01*
X780Y1686D01*
X986Y1686D01*
X986Y1748D01*
X984Y1748D01*
X984Y1768D01*
X986Y1768D01*
X986Y1832D01*
X770Y1832D01*
G37*
D02*
G36*
X4838Y1710D02*
X4838Y1708D01*
X5666Y1708D01*
X5666Y1710D01*
X4838Y1710D01*
G37*
D02*
G36*
X4838Y1710D02*
X4838Y1708D01*
X5666Y1708D01*
X5666Y1710D01*
X4838Y1710D01*
G37*
D02*
G36*
X4838Y1710D02*
X4838Y1708D01*
X5666Y1708D01*
X5666Y1710D01*
X4838Y1710D01*
G37*
D02*
G36*
X4838Y1708D02*
X4838Y1702D01*
X5666Y1702D01*
X5666Y1708D01*
X4838Y1708D01*
G37*
D02*
G36*
X1736Y1706D02*
X1736Y1704D01*
X4444Y1704D01*
X4444Y1706D01*
X1736Y1706D01*
G37*
D02*
G36*
X1736Y1706D02*
X1736Y1704D01*
X4444Y1704D01*
X4444Y1706D01*
X1736Y1706D01*
G37*
D02*
G36*
X1736Y1706D02*
X1736Y1704D01*
X4444Y1704D01*
X4444Y1706D01*
X1736Y1706D01*
G37*
D02*
G36*
X1736Y1704D02*
X1736Y1702D01*
X4452Y1702D01*
X4452Y1704D01*
X1736Y1704D01*
G37*
D02*
G36*
X1736Y1702D02*
X1736Y1700D01*
X5666Y1700D01*
X5666Y1702D01*
X1736Y1702D01*
G37*
D02*
G36*
X1736Y1702D02*
X1736Y1700D01*
X5666Y1700D01*
X5666Y1702D01*
X1736Y1702D01*
G37*
D02*
G36*
X1736Y1702D02*
X1736Y1700D01*
X5666Y1700D01*
X5666Y1702D01*
X1736Y1702D01*
G37*
D02*
G36*
X1736Y1700D02*
X1736Y1692D01*
X5666Y1692D01*
X5666Y1700D01*
X1736Y1700D01*
G37*
D02*
G36*
X1132Y1692D02*
X1132Y1690D01*
X5666Y1690D01*
X5666Y1692D01*
X1132Y1692D01*
G37*
D02*
G36*
X1132Y1692D02*
X1132Y1690D01*
X5666Y1690D01*
X5666Y1692D01*
X1132Y1692D01*
G37*
D02*
G36*
X1132Y1692D02*
X1132Y1690D01*
X5666Y1690D01*
X5666Y1692D01*
X1132Y1692D01*
G37*
D02*
G36*
X1132Y1690D02*
X1132Y1686D01*
X5666Y1686D01*
X5666Y1690D01*
X1132Y1690D01*
G37*
D02*
G36*
X50Y1688D02*
X50Y1686D01*
X740Y1686D01*
X740Y1688D01*
X50Y1688D01*
G37*
D02*
G36*
X50Y1688D02*
X50Y1686D01*
X740Y1686D01*
X740Y1688D01*
X50Y1688D01*
G37*
D02*
G36*
X50Y1688D02*
X50Y1686D01*
X740Y1686D01*
X740Y1688D01*
X50Y1688D01*
G37*
D02*
G36*
X50Y1686D02*
X50Y1684D01*
X5666Y1684D01*
X5666Y1686D01*
X50Y1686D01*
G37*
D02*
G36*
X50Y1686D02*
X50Y1684D01*
X5666Y1684D01*
X5666Y1686D01*
X50Y1686D01*
G37*
D02*
G36*
X50Y1686D02*
X50Y1684D01*
X5666Y1684D01*
X5666Y1686D01*
X50Y1686D01*
G37*
D02*
G36*
X50Y1684D02*
X50Y1656D01*
X5184Y1656D01*
X5184Y1654D01*
X5290Y1654D01*
X5290Y1652D01*
X5296Y1652D01*
X5296Y1650D01*
X5300Y1650D01*
X5300Y1648D01*
X5304Y1648D01*
X5304Y1646D01*
X5306Y1646D01*
X5306Y1644D01*
X5310Y1644D01*
X5310Y1642D01*
X5312Y1642D01*
X5312Y1640D01*
X5314Y1640D01*
X5314Y1638D01*
X5316Y1638D01*
X5316Y1636D01*
X5318Y1636D01*
X5318Y1634D01*
X5320Y1634D01*
X5320Y1632D01*
X5322Y1632D01*
X5322Y1630D01*
X5324Y1630D01*
X5324Y1628D01*
X5326Y1628D01*
X5326Y1626D01*
X5328Y1626D01*
X5328Y1622D01*
X5330Y1622D01*
X5330Y1620D01*
X5332Y1620D01*
X5332Y1616D01*
X5334Y1616D01*
X5334Y1612D01*
X5336Y1612D01*
X5336Y1606D01*
X5338Y1606D01*
X5338Y1604D01*
X5666Y1604D01*
X5666Y1684D01*
X50Y1684D01*
G37*
D02*
G36*
X50Y1656D02*
X50Y1652D01*
X3984Y1652D01*
X3984Y1650D01*
X4092Y1650D01*
X4092Y1648D01*
X4582Y1648D01*
X4582Y1646D01*
X4688Y1646D01*
X4688Y1644D01*
X4694Y1644D01*
X4694Y1642D01*
X4698Y1642D01*
X4698Y1640D01*
X4700Y1640D01*
X4700Y1638D01*
X4704Y1638D01*
X4704Y1636D01*
X4706Y1636D01*
X4706Y1634D01*
X4710Y1634D01*
X4710Y1632D01*
X4712Y1632D01*
X4712Y1630D01*
X4714Y1630D01*
X4714Y1628D01*
X4716Y1628D01*
X4716Y1626D01*
X4718Y1626D01*
X4718Y1624D01*
X4720Y1624D01*
X4720Y1622D01*
X4722Y1622D01*
X4722Y1618D01*
X4724Y1618D01*
X4724Y1616D01*
X4726Y1616D01*
X4726Y1612D01*
X4728Y1612D01*
X4728Y1610D01*
X4730Y1610D01*
X4730Y1606D01*
X4732Y1606D01*
X4732Y1600D01*
X4734Y1600D01*
X4734Y1598D01*
X4994Y1598D01*
X4994Y1656D01*
X50Y1656D01*
G37*
D02*
G36*
X5190Y1654D02*
X5190Y1652D01*
X5244Y1652D01*
X5244Y1604D01*
X5286Y1604D01*
X5286Y1654D01*
X5190Y1654D01*
G37*
D02*
G36*
X50Y1652D02*
X50Y1638D01*
X1480Y1638D01*
X1480Y1636D01*
X1586Y1636D01*
X1586Y1634D01*
X1592Y1634D01*
X1592Y1632D01*
X1596Y1632D01*
X1596Y1630D01*
X1598Y1630D01*
X1598Y1628D01*
X1602Y1628D01*
X1602Y1626D01*
X1604Y1626D01*
X1604Y1624D01*
X1608Y1624D01*
X1608Y1622D01*
X1610Y1622D01*
X1610Y1620D01*
X1612Y1620D01*
X1612Y1618D01*
X1614Y1618D01*
X1614Y1616D01*
X1616Y1616D01*
X1616Y1614D01*
X1618Y1614D01*
X1618Y1612D01*
X1620Y1612D01*
X1620Y1608D01*
X1622Y1608D01*
X1622Y1606D01*
X1624Y1606D01*
X1624Y1602D01*
X1626Y1602D01*
X1626Y1600D01*
X1628Y1600D01*
X1628Y1596D01*
X1630Y1596D01*
X1630Y1590D01*
X1632Y1590D01*
X1632Y1588D01*
X3794Y1588D01*
X3794Y1652D01*
X50Y1652D01*
G37*
D02*
G36*
X5196Y1652D02*
X5196Y1650D01*
X5200Y1650D01*
X5200Y1648D01*
X5204Y1648D01*
X5204Y1646D01*
X5206Y1646D01*
X5206Y1644D01*
X5228Y1644D01*
X5228Y1646D01*
X5230Y1646D01*
X5230Y1648D01*
X5234Y1648D01*
X5234Y1650D01*
X5238Y1650D01*
X5238Y1652D01*
X5196Y1652D01*
G37*
D02*
G36*
X3992Y1650D02*
X3992Y1648D01*
X3996Y1648D01*
X3996Y1646D01*
X4000Y1646D01*
X4000Y1644D01*
X4004Y1644D01*
X4004Y1642D01*
X4008Y1642D01*
X4008Y1640D01*
X4028Y1640D01*
X4028Y1642D01*
X4030Y1642D01*
X4030Y1644D01*
X4034Y1644D01*
X4034Y1646D01*
X4038Y1646D01*
X4038Y1648D01*
X4042Y1648D01*
X4042Y1650D01*
X3992Y1650D01*
G37*
D02*
G36*
X4044Y1650D02*
X4044Y1600D01*
X4086Y1600D01*
X4086Y1650D01*
X4044Y1650D01*
G37*
D02*
G36*
X4096Y1648D02*
X4096Y1646D01*
X4100Y1646D01*
X4100Y1644D01*
X4104Y1644D01*
X4104Y1642D01*
X4108Y1642D01*
X4108Y1640D01*
X4110Y1640D01*
X4110Y1638D01*
X4112Y1638D01*
X4112Y1636D01*
X4114Y1636D01*
X4114Y1634D01*
X4118Y1634D01*
X4118Y1632D01*
X4120Y1632D01*
X4120Y1630D01*
X4122Y1630D01*
X4122Y1626D01*
X4124Y1626D01*
X4124Y1624D01*
X4126Y1624D01*
X4126Y1622D01*
X4128Y1622D01*
X4128Y1618D01*
X4130Y1618D01*
X4130Y1616D01*
X4132Y1616D01*
X4132Y1612D01*
X4134Y1612D01*
X4134Y1608D01*
X4136Y1608D01*
X4136Y1604D01*
X4138Y1604D01*
X4138Y1600D01*
X4390Y1600D01*
X4390Y1648D01*
X4096Y1648D01*
G37*
D02*
G36*
X4588Y1646D02*
X4588Y1644D01*
X4594Y1644D01*
X4594Y1642D01*
X4598Y1642D01*
X4598Y1640D01*
X4600Y1640D01*
X4600Y1638D01*
X4626Y1638D01*
X4626Y1640D01*
X4630Y1640D01*
X4630Y1642D01*
X4634Y1642D01*
X4634Y1644D01*
X4638Y1644D01*
X4638Y1646D01*
X4588Y1646D01*
G37*
D02*
G36*
X4640Y1646D02*
X4640Y1598D01*
X4682Y1598D01*
X4682Y1646D01*
X4640Y1646D01*
G37*
D02*
G36*
X50Y1638D02*
X50Y1634D01*
X282Y1634D01*
X282Y1632D01*
X868Y1632D01*
X868Y1630D01*
X980Y1630D01*
X980Y1628D01*
X984Y1628D01*
X984Y1626D01*
X990Y1626D01*
X990Y1624D01*
X992Y1624D01*
X992Y1622D01*
X996Y1622D01*
X996Y1620D01*
X1000Y1620D01*
X1000Y1618D01*
X1002Y1618D01*
X1002Y1616D01*
X1004Y1616D01*
X1004Y1614D01*
X1006Y1614D01*
X1006Y1612D01*
X1008Y1612D01*
X1008Y1610D01*
X1010Y1610D01*
X1010Y1608D01*
X1012Y1608D01*
X1012Y1606D01*
X1014Y1606D01*
X1014Y1604D01*
X1016Y1604D01*
X1016Y1602D01*
X1018Y1602D01*
X1018Y1598D01*
X1020Y1598D01*
X1020Y1596D01*
X1022Y1596D01*
X1022Y1592D01*
X1024Y1592D01*
X1024Y1588D01*
X1026Y1588D01*
X1026Y1584D01*
X1028Y1584D01*
X1028Y1580D01*
X1288Y1580D01*
X1288Y1638D01*
X50Y1638D01*
G37*
D02*
G36*
X1486Y1636D02*
X1486Y1634D01*
X1492Y1634D01*
X1492Y1632D01*
X1496Y1632D01*
X1496Y1630D01*
X1498Y1630D01*
X1498Y1628D01*
X1502Y1628D01*
X1502Y1626D01*
X1522Y1626D01*
X1522Y1628D01*
X1524Y1628D01*
X1524Y1630D01*
X1528Y1630D01*
X1528Y1632D01*
X1532Y1632D01*
X1532Y1634D01*
X1536Y1634D01*
X1536Y1636D01*
X1486Y1636D01*
G37*
D02*
G36*
X1540Y1636D02*
X1540Y1588D01*
X1582Y1588D01*
X1582Y1636D01*
X1540Y1636D01*
G37*
D02*
G36*
X50Y1634D02*
X50Y1488D01*
X90Y1488D01*
X90Y1490D01*
X88Y1490D01*
X88Y1634D01*
X50Y1634D01*
G37*
D02*
G36*
X288Y1632D02*
X288Y1630D01*
X292Y1630D01*
X292Y1628D01*
X296Y1628D01*
X296Y1626D01*
X300Y1626D01*
X300Y1624D01*
X324Y1624D01*
X324Y1626D01*
X328Y1626D01*
X328Y1628D01*
X330Y1628D01*
X330Y1630D01*
X336Y1630D01*
X336Y1632D01*
X288Y1632D01*
G37*
D02*
G36*
X340Y1632D02*
X340Y1584D01*
X382Y1584D01*
X382Y1632D01*
X340Y1632D01*
G37*
D02*
G36*
X388Y1632D02*
X388Y1630D01*
X392Y1630D01*
X392Y1628D01*
X396Y1628D01*
X396Y1626D01*
X400Y1626D01*
X400Y1624D01*
X402Y1624D01*
X402Y1622D01*
X406Y1622D01*
X406Y1620D01*
X408Y1620D01*
X408Y1618D01*
X410Y1618D01*
X410Y1616D01*
X412Y1616D01*
X412Y1614D01*
X414Y1614D01*
X414Y1612D01*
X416Y1612D01*
X416Y1610D01*
X418Y1610D01*
X418Y1608D01*
X420Y1608D01*
X420Y1606D01*
X422Y1606D01*
X422Y1602D01*
X424Y1602D01*
X424Y1600D01*
X426Y1600D01*
X426Y1596D01*
X428Y1596D01*
X428Y1592D01*
X430Y1592D01*
X430Y1588D01*
X432Y1588D01*
X432Y1584D01*
X684Y1584D01*
X684Y1630D01*
X686Y1630D01*
X686Y1632D01*
X388Y1632D01*
G37*
D02*
G36*
X880Y1630D02*
X880Y1628D01*
X936Y1628D01*
X936Y1580D01*
X978Y1580D01*
X978Y1630D01*
X880Y1630D01*
G37*
D02*
G36*
X884Y1628D02*
X884Y1626D01*
X890Y1626D01*
X890Y1624D01*
X892Y1624D01*
X892Y1622D01*
X896Y1622D01*
X896Y1620D01*
X920Y1620D01*
X920Y1622D01*
X922Y1622D01*
X922Y1624D01*
X926Y1624D01*
X926Y1626D01*
X932Y1626D01*
X932Y1628D01*
X884Y1628D01*
G37*
D02*
G36*
X5244Y1604D02*
X5244Y1602D01*
X5666Y1602D01*
X5666Y1604D01*
X5244Y1604D01*
G37*
D02*
G36*
X5244Y1604D02*
X5244Y1602D01*
X5666Y1602D01*
X5666Y1604D01*
X5244Y1604D01*
G37*
D02*
G36*
X5244Y1602D02*
X5244Y1600D01*
X5278Y1600D01*
X5278Y1570D01*
X5244Y1570D01*
X5244Y1562D01*
X5338Y1562D01*
X5338Y1558D01*
X5336Y1558D01*
X5336Y1554D01*
X5334Y1554D01*
X5334Y1550D01*
X5332Y1550D01*
X5332Y1546D01*
X5330Y1546D01*
X5330Y1544D01*
X5328Y1544D01*
X5328Y1540D01*
X5326Y1540D01*
X5326Y1538D01*
X5324Y1538D01*
X5324Y1536D01*
X5322Y1536D01*
X5322Y1534D01*
X5320Y1534D01*
X5320Y1532D01*
X5318Y1532D01*
X5318Y1530D01*
X5316Y1530D01*
X5316Y1528D01*
X5314Y1528D01*
X5314Y1526D01*
X5312Y1526D01*
X5312Y1524D01*
X5310Y1524D01*
X5310Y1522D01*
X5306Y1522D01*
X5306Y1520D01*
X5304Y1520D01*
X5304Y1518D01*
X5300Y1518D01*
X5300Y1516D01*
X5296Y1516D01*
X5296Y1514D01*
X5290Y1514D01*
X5290Y1512D01*
X5666Y1512D01*
X5666Y1602D01*
X5244Y1602D01*
G37*
D02*
G36*
X4044Y1600D02*
X4044Y1598D01*
X4390Y1598D01*
X4390Y1600D01*
X4044Y1600D01*
G37*
D02*
G36*
X4044Y1600D02*
X4044Y1598D01*
X4390Y1598D01*
X4390Y1600D01*
X4044Y1600D01*
G37*
D02*
G36*
X4044Y1598D02*
X4044Y1596D01*
X4078Y1596D01*
X4078Y1566D01*
X4044Y1566D01*
X4044Y1558D01*
X4138Y1558D01*
X4138Y1556D01*
X4136Y1556D01*
X4136Y1550D01*
X4134Y1550D01*
X4134Y1546D01*
X4132Y1546D01*
X4132Y1542D01*
X4130Y1542D01*
X4130Y1540D01*
X4128Y1540D01*
X4128Y1536D01*
X4126Y1536D01*
X4126Y1534D01*
X4124Y1534D01*
X4124Y1532D01*
X4122Y1532D01*
X4122Y1530D01*
X4120Y1530D01*
X4120Y1528D01*
X4118Y1528D01*
X4118Y1526D01*
X4116Y1526D01*
X4116Y1524D01*
X4114Y1524D01*
X4114Y1522D01*
X4112Y1522D01*
X4112Y1520D01*
X4110Y1520D01*
X4110Y1518D01*
X4106Y1518D01*
X4106Y1516D01*
X4104Y1516D01*
X4104Y1514D01*
X4100Y1514D01*
X4100Y1512D01*
X4096Y1512D01*
X4096Y1510D01*
X4090Y1510D01*
X4090Y1508D01*
X4390Y1508D01*
X4390Y1598D01*
X4044Y1598D01*
G37*
D02*
G36*
X4640Y1598D02*
X4640Y1596D01*
X4994Y1596D01*
X4994Y1598D01*
X4640Y1598D01*
G37*
D02*
G36*
X4640Y1598D02*
X4640Y1596D01*
X4994Y1596D01*
X4994Y1598D01*
X4640Y1598D01*
G37*
D02*
G36*
X4640Y1596D02*
X4640Y1594D01*
X4674Y1594D01*
X4674Y1564D01*
X4640Y1564D01*
X4640Y1556D01*
X4734Y1556D01*
X4734Y1550D01*
X4732Y1550D01*
X4732Y1546D01*
X4730Y1546D01*
X4730Y1542D01*
X4728Y1542D01*
X4728Y1538D01*
X4726Y1538D01*
X4726Y1536D01*
X4724Y1536D01*
X4724Y1532D01*
X4722Y1532D01*
X4722Y1530D01*
X4720Y1530D01*
X4720Y1528D01*
X4718Y1528D01*
X4718Y1526D01*
X4716Y1526D01*
X4716Y1524D01*
X4714Y1524D01*
X4714Y1522D01*
X4712Y1522D01*
X4712Y1520D01*
X4710Y1520D01*
X4710Y1518D01*
X4708Y1518D01*
X4708Y1516D01*
X4706Y1516D01*
X4706Y1514D01*
X4702Y1514D01*
X4702Y1512D01*
X4698Y1512D01*
X4698Y1510D01*
X4994Y1510D01*
X4994Y1596D01*
X4640Y1596D01*
G37*
D02*
G36*
X1540Y1588D02*
X1540Y1586D01*
X3794Y1586D01*
X3794Y1588D01*
X1540Y1588D01*
G37*
D02*
G36*
X1540Y1588D02*
X1540Y1586D01*
X3794Y1586D01*
X3794Y1588D01*
X1540Y1588D01*
G37*
D02*
G36*
X1540Y1586D02*
X1540Y1584D01*
X1574Y1584D01*
X1574Y1554D01*
X1540Y1554D01*
X1540Y1546D01*
X1632Y1546D01*
X1632Y1540D01*
X1630Y1540D01*
X1630Y1536D01*
X1628Y1536D01*
X1628Y1532D01*
X1626Y1532D01*
X1626Y1528D01*
X1624Y1528D01*
X1624Y1526D01*
X1622Y1526D01*
X1622Y1522D01*
X1620Y1522D01*
X1620Y1520D01*
X1618Y1520D01*
X1618Y1518D01*
X1616Y1518D01*
X1616Y1516D01*
X1614Y1516D01*
X1614Y1514D01*
X1612Y1514D01*
X1612Y1512D01*
X1610Y1512D01*
X1610Y1510D01*
X1608Y1510D01*
X1608Y1508D01*
X1606Y1508D01*
X1606Y1506D01*
X3794Y1506D01*
X3794Y1586D01*
X1540Y1586D01*
G37*
D02*
G36*
X340Y1584D02*
X340Y1582D01*
X684Y1582D01*
X684Y1584D01*
X340Y1584D01*
G37*
D02*
G36*
X340Y1584D02*
X340Y1582D01*
X684Y1582D01*
X684Y1584D01*
X340Y1584D01*
G37*
D02*
G36*
X340Y1582D02*
X340Y1580D01*
X374Y1580D01*
X374Y1550D01*
X340Y1550D01*
X340Y1542D01*
X432Y1542D01*
X432Y1536D01*
X430Y1536D01*
X430Y1532D01*
X428Y1532D01*
X428Y1528D01*
X426Y1528D01*
X426Y1524D01*
X424Y1524D01*
X424Y1522D01*
X422Y1522D01*
X422Y1518D01*
X420Y1518D01*
X420Y1516D01*
X418Y1516D01*
X418Y1514D01*
X416Y1514D01*
X416Y1512D01*
X414Y1512D01*
X414Y1510D01*
X412Y1510D01*
X412Y1508D01*
X410Y1508D01*
X410Y1506D01*
X408Y1506D01*
X408Y1504D01*
X406Y1504D01*
X406Y1502D01*
X402Y1502D01*
X402Y1500D01*
X400Y1500D01*
X400Y1498D01*
X396Y1498D01*
X396Y1496D01*
X392Y1496D01*
X392Y1494D01*
X388Y1494D01*
X388Y1492D01*
X684Y1492D01*
X684Y1582D01*
X340Y1582D01*
G37*
D02*
G36*
X936Y1580D02*
X936Y1578D01*
X1288Y1578D01*
X1288Y1580D01*
X936Y1580D01*
G37*
D02*
G36*
X936Y1580D02*
X936Y1578D01*
X1288Y1578D01*
X1288Y1580D01*
X936Y1580D01*
G37*
D02*
G36*
X936Y1578D02*
X936Y1576D01*
X970Y1576D01*
X970Y1546D01*
X936Y1546D01*
X936Y1538D01*
X1028Y1538D01*
X1028Y1532D01*
X1026Y1532D01*
X1026Y1528D01*
X1024Y1528D01*
X1024Y1524D01*
X1022Y1524D01*
X1022Y1520D01*
X1020Y1520D01*
X1020Y1518D01*
X1018Y1518D01*
X1018Y1514D01*
X1016Y1514D01*
X1016Y1512D01*
X1014Y1512D01*
X1014Y1510D01*
X1012Y1510D01*
X1012Y1508D01*
X1010Y1508D01*
X1010Y1506D01*
X1008Y1506D01*
X1008Y1504D01*
X1006Y1504D01*
X1006Y1502D01*
X1004Y1502D01*
X1004Y1500D01*
X1002Y1500D01*
X1002Y1498D01*
X998Y1498D01*
X998Y1496D01*
X996Y1496D01*
X996Y1494D01*
X992Y1494D01*
X992Y1492D01*
X1288Y1492D01*
X1288Y1578D01*
X936Y1578D01*
G37*
D02*
G36*
X5244Y1562D02*
X5244Y1514D01*
X5286Y1514D01*
X5286Y1562D01*
X5244Y1562D01*
G37*
D02*
G36*
X4044Y1558D02*
X4044Y1510D01*
X4086Y1510D01*
X4086Y1558D01*
X4044Y1558D01*
G37*
D02*
G36*
X4640Y1556D02*
X4640Y1506D01*
X4682Y1506D01*
X4682Y1556D01*
X4640Y1556D01*
G37*
D02*
G36*
X1540Y1546D02*
X1540Y1496D01*
X1582Y1496D01*
X1582Y1546D01*
X1540Y1546D01*
G37*
D02*
G36*
X340Y1542D02*
X340Y1492D01*
X382Y1492D01*
X382Y1542D01*
X340Y1542D01*
G37*
D02*
G36*
X936Y1538D02*
X936Y1488D01*
X978Y1488D01*
X978Y1538D01*
X936Y1538D01*
G37*
D02*
G36*
X5206Y1522D02*
X5206Y1520D01*
X5204Y1520D01*
X5204Y1518D01*
X5200Y1518D01*
X5200Y1516D01*
X5196Y1516D01*
X5196Y1514D01*
X5238Y1514D01*
X5238Y1516D01*
X5234Y1516D01*
X5234Y1518D01*
X5230Y1518D01*
X5230Y1520D01*
X5228Y1520D01*
X5228Y1522D01*
X5206Y1522D01*
G37*
D02*
G36*
X4006Y1518D02*
X4006Y1516D01*
X4004Y1516D01*
X4004Y1514D01*
X4000Y1514D01*
X4000Y1512D01*
X3996Y1512D01*
X3996Y1510D01*
X4038Y1510D01*
X4038Y1512D01*
X4034Y1512D01*
X4034Y1514D01*
X4032Y1514D01*
X4032Y1516D01*
X4028Y1516D01*
X4028Y1518D01*
X4006Y1518D01*
G37*
D02*
G36*
X4602Y1514D02*
X4602Y1512D01*
X4598Y1512D01*
X4598Y1510D01*
X4596Y1510D01*
X4596Y1508D01*
X4590Y1508D01*
X4590Y1506D01*
X4636Y1506D01*
X4636Y1508D01*
X4632Y1508D01*
X4632Y1510D01*
X4628Y1510D01*
X4628Y1512D01*
X4624Y1512D01*
X4624Y1514D01*
X4602Y1514D01*
G37*
D02*
G36*
X5190Y1514D02*
X5190Y1512D01*
X5286Y1512D01*
X5286Y1514D01*
X5190Y1514D01*
G37*
D02*
G36*
X5190Y1514D02*
X5190Y1512D01*
X5286Y1512D01*
X5286Y1514D01*
X5190Y1514D01*
G37*
D02*
G36*
X5184Y1512D02*
X5184Y1510D01*
X5666Y1510D01*
X5666Y1512D01*
X5184Y1512D01*
G37*
D02*
G36*
X5184Y1512D02*
X5184Y1510D01*
X5666Y1510D01*
X5666Y1512D01*
X5184Y1512D01*
G37*
D02*
G36*
X3990Y1510D02*
X3990Y1508D01*
X4086Y1508D01*
X4086Y1510D01*
X3990Y1510D01*
G37*
D02*
G36*
X3990Y1510D02*
X3990Y1508D01*
X4086Y1508D01*
X4086Y1510D01*
X3990Y1510D01*
G37*
D02*
G36*
X4696Y1510D02*
X4696Y1508D01*
X5666Y1508D01*
X5666Y1510D01*
X4696Y1510D01*
G37*
D02*
G36*
X4696Y1510D02*
X4696Y1508D01*
X5666Y1508D01*
X5666Y1510D01*
X4696Y1510D01*
G37*
D02*
G36*
X3982Y1508D02*
X3982Y1506D01*
X4390Y1506D01*
X4390Y1508D01*
X3982Y1508D01*
G37*
D02*
G36*
X3982Y1508D02*
X3982Y1506D01*
X4390Y1506D01*
X4390Y1508D01*
X3982Y1508D01*
G37*
D02*
G36*
X4690Y1508D02*
X4690Y1506D01*
X4686Y1506D01*
X4686Y1504D01*
X5666Y1504D01*
X5666Y1508D01*
X4690Y1508D01*
G37*
D02*
G36*
X1604Y1506D02*
X1604Y1504D01*
X4390Y1504D01*
X4390Y1506D01*
X1604Y1506D01*
G37*
D02*
G36*
X1604Y1506D02*
X1604Y1504D01*
X4390Y1504D01*
X4390Y1506D01*
X1604Y1506D01*
G37*
D02*
G36*
X4586Y1506D02*
X4586Y1504D01*
X4682Y1504D01*
X4682Y1506D01*
X4586Y1506D01*
G37*
D02*
G36*
X4586Y1506D02*
X4586Y1504D01*
X4682Y1504D01*
X4682Y1506D01*
X4586Y1506D01*
G37*
D02*
G36*
X1500Y1504D02*
X1500Y1502D01*
X1498Y1502D01*
X1498Y1500D01*
X1494Y1500D01*
X1494Y1498D01*
X1490Y1498D01*
X1490Y1496D01*
X1534Y1496D01*
X1534Y1498D01*
X1530Y1498D01*
X1530Y1500D01*
X1526Y1500D01*
X1526Y1502D01*
X1522Y1502D01*
X1522Y1504D01*
X1500Y1504D01*
G37*
D02*
G36*
X1600Y1504D02*
X1600Y1502D01*
X4390Y1502D01*
X4390Y1504D01*
X1600Y1504D01*
G37*
D02*
G36*
X4576Y1504D02*
X4576Y1502D01*
X5666Y1502D01*
X5666Y1504D01*
X4576Y1504D01*
G37*
D02*
G36*
X4576Y1504D02*
X4576Y1502D01*
X5666Y1502D01*
X5666Y1504D01*
X4576Y1504D01*
G37*
D02*
G36*
X1598Y1502D02*
X1598Y1500D01*
X5666Y1500D01*
X5666Y1502D01*
X1598Y1502D01*
G37*
D02*
G36*
X1598Y1502D02*
X1598Y1500D01*
X5666Y1500D01*
X5666Y1502D01*
X1598Y1502D01*
G37*
D02*
G36*
X300Y1500D02*
X300Y1498D01*
X296Y1498D01*
X296Y1496D01*
X292Y1496D01*
X292Y1494D01*
X288Y1494D01*
X288Y1492D01*
X334Y1492D01*
X334Y1494D01*
X330Y1494D01*
X330Y1496D01*
X326Y1496D01*
X326Y1498D01*
X324Y1498D01*
X324Y1500D01*
X300Y1500D01*
G37*
D02*
G36*
X1594Y1500D02*
X1594Y1498D01*
X1590Y1498D01*
X1590Y1496D01*
X1584Y1496D01*
X1584Y1494D01*
X5666Y1494D01*
X5666Y1500D01*
X1594Y1500D01*
G37*
D02*
G36*
X898Y1498D02*
X898Y1496D01*
X896Y1496D01*
X896Y1494D01*
X892Y1494D01*
X892Y1492D01*
X888Y1492D01*
X888Y1490D01*
X884Y1490D01*
X884Y1488D01*
X932Y1488D01*
X932Y1490D01*
X928Y1490D01*
X928Y1492D01*
X924Y1492D01*
X924Y1494D01*
X920Y1494D01*
X920Y1496D01*
X918Y1496D01*
X918Y1498D01*
X898Y1498D01*
G37*
D02*
G36*
X1484Y1496D02*
X1484Y1494D01*
X1582Y1494D01*
X1582Y1496D01*
X1484Y1496D01*
G37*
D02*
G36*
X1484Y1496D02*
X1484Y1494D01*
X1582Y1494D01*
X1582Y1496D01*
X1484Y1496D01*
G37*
D02*
G36*
X1474Y1494D02*
X1474Y1492D01*
X5666Y1492D01*
X5666Y1494D01*
X1474Y1494D01*
G37*
D02*
G36*
X1474Y1494D02*
X1474Y1492D01*
X5666Y1492D01*
X5666Y1494D01*
X1474Y1494D01*
G37*
D02*
G36*
X282Y1492D02*
X282Y1490D01*
X684Y1490D01*
X684Y1492D01*
X282Y1492D01*
G37*
D02*
G36*
X282Y1492D02*
X282Y1490D01*
X684Y1490D01*
X684Y1492D01*
X282Y1492D01*
G37*
D02*
G36*
X282Y1492D02*
X282Y1490D01*
X684Y1490D01*
X684Y1492D01*
X282Y1492D01*
G37*
D02*
G36*
X988Y1492D02*
X988Y1490D01*
X5666Y1490D01*
X5666Y1492D01*
X988Y1492D01*
G37*
D02*
G36*
X988Y1492D02*
X988Y1490D01*
X5666Y1490D01*
X5666Y1492D01*
X988Y1492D01*
G37*
D02*
G36*
X272Y1490D02*
X272Y1488D01*
X684Y1488D01*
X684Y1490D01*
X272Y1490D01*
G37*
D02*
G36*
X984Y1490D02*
X984Y1488D01*
X5666Y1488D01*
X5666Y1490D01*
X984Y1490D01*
G37*
D02*
G36*
X50Y1488D02*
X50Y1486D01*
X684Y1486D01*
X684Y1488D01*
X50Y1488D01*
G37*
D02*
G36*
X50Y1488D02*
X50Y1486D01*
X684Y1486D01*
X684Y1488D01*
X50Y1488D01*
G37*
D02*
G36*
X878Y1488D02*
X878Y1486D01*
X5666Y1486D01*
X5666Y1488D01*
X878Y1488D01*
G37*
D02*
G36*
X878Y1488D02*
X878Y1486D01*
X5666Y1486D01*
X5666Y1488D01*
X878Y1488D01*
G37*
D02*
G36*
X878Y1488D02*
X878Y1486D01*
X5666Y1486D01*
X5666Y1488D01*
X878Y1488D01*
G37*
D02*
G36*
X50Y1486D02*
X50Y1484D01*
X5666Y1484D01*
X5666Y1486D01*
X50Y1486D01*
G37*
D02*
G36*
X50Y1486D02*
X50Y1484D01*
X5666Y1484D01*
X5666Y1486D01*
X50Y1486D01*
G37*
D02*
G36*
X50Y1484D02*
X50Y1044D01*
X4840Y1044D01*
X4840Y1042D01*
X5436Y1042D01*
X5436Y896D01*
X5666Y896D01*
X5666Y1484D01*
X50Y1484D01*
G37*
D02*
G36*
X50Y1044D02*
X50Y1042D01*
X4544Y1042D01*
X4544Y994D01*
X4586Y994D01*
X4586Y1044D01*
X50Y1044D01*
G37*
D02*
G36*
X4588Y1044D02*
X4588Y1042D01*
X4594Y1042D01*
X4594Y1040D01*
X4598Y1040D01*
X4598Y1038D01*
X4602Y1038D01*
X4602Y1036D01*
X4604Y1036D01*
X4604Y1034D01*
X4630Y1034D01*
X4630Y1036D01*
X4632Y1036D01*
X4632Y1038D01*
X4636Y1038D01*
X4636Y1040D01*
X4640Y1040D01*
X4640Y1042D01*
X4646Y1042D01*
X4646Y1044D01*
X4588Y1044D01*
G37*
D02*
G36*
X50Y1042D02*
X50Y1038D01*
X4236Y1038D01*
X4236Y994D01*
X4496Y994D01*
X4496Y996D01*
X4498Y996D01*
X4498Y1000D01*
X4500Y1000D01*
X4500Y1004D01*
X4502Y1004D01*
X4502Y1008D01*
X4504Y1008D01*
X4504Y1012D01*
X4506Y1012D01*
X4506Y1014D01*
X4508Y1014D01*
X4508Y1016D01*
X4510Y1016D01*
X4510Y1020D01*
X4512Y1020D01*
X4512Y1022D01*
X4514Y1022D01*
X4514Y1024D01*
X4516Y1024D01*
X4516Y1026D01*
X4518Y1026D01*
X4518Y1028D01*
X4520Y1028D01*
X4520Y1030D01*
X4524Y1030D01*
X4524Y1032D01*
X4526Y1032D01*
X4526Y1034D01*
X4530Y1034D01*
X4530Y1036D01*
X4532Y1036D01*
X4532Y1038D01*
X4536Y1038D01*
X4536Y1040D01*
X4540Y1040D01*
X4540Y1042D01*
X50Y1042D01*
G37*
D02*
G36*
X4840Y1042D02*
X4840Y1040D01*
X5184Y1040D01*
X5184Y1038D01*
X5190Y1038D01*
X5190Y1036D01*
X5194Y1036D01*
X5194Y1034D01*
X5198Y1034D01*
X5198Y1032D01*
X5202Y1032D01*
X5202Y1030D01*
X5226Y1030D01*
X5226Y1032D01*
X5228Y1032D01*
X5228Y1034D01*
X5232Y1034D01*
X5232Y1036D01*
X5236Y1036D01*
X5236Y1038D01*
X5242Y1038D01*
X5242Y1040D01*
X5252Y1040D01*
X5252Y1042D01*
X4840Y1042D01*
G37*
D02*
G36*
X4840Y1040D02*
X4840Y1038D01*
X5140Y1038D01*
X5140Y990D01*
X5182Y990D01*
X5182Y1040D01*
X4840Y1040D01*
G37*
D02*
G36*
X50Y1038D02*
X50Y1036D01*
X986Y1036D01*
X986Y1034D01*
X992Y1034D01*
X992Y1032D01*
X996Y1032D01*
X996Y1030D01*
X998Y1030D01*
X998Y1028D01*
X1002Y1028D01*
X1002Y1026D01*
X1022Y1026D01*
X1022Y1028D01*
X1024Y1028D01*
X1024Y1030D01*
X1028Y1030D01*
X1028Y1032D01*
X1032Y1032D01*
X1032Y1034D01*
X1036Y1034D01*
X1036Y1036D01*
X1042Y1036D01*
X1042Y1038D01*
X50Y1038D01*
G37*
D02*
G36*
X1234Y1038D02*
X1234Y1036D01*
X3986Y1036D01*
X3986Y1034D01*
X3990Y1034D01*
X3990Y1032D01*
X3996Y1032D01*
X3996Y1030D01*
X3998Y1030D01*
X3998Y1028D01*
X4002Y1028D01*
X4002Y1026D01*
X4024Y1026D01*
X4024Y1028D01*
X4028Y1028D01*
X4028Y1030D01*
X4032Y1030D01*
X4032Y1032D01*
X4036Y1032D01*
X4036Y1034D01*
X4042Y1034D01*
X4042Y1036D01*
X4050Y1036D01*
X4050Y1038D01*
X1234Y1038D01*
G37*
D02*
G36*
X4840Y1038D02*
X4840Y990D01*
X5094Y990D01*
X5094Y996D01*
X5096Y996D01*
X5096Y1000D01*
X5098Y1000D01*
X5098Y1004D01*
X5100Y1004D01*
X5100Y1008D01*
X5102Y1008D01*
X5102Y1010D01*
X5104Y1010D01*
X5104Y1012D01*
X5106Y1012D01*
X5106Y1016D01*
X5108Y1016D01*
X5108Y1018D01*
X5110Y1018D01*
X5110Y1020D01*
X5112Y1020D01*
X5112Y1022D01*
X5114Y1022D01*
X5114Y1024D01*
X5116Y1024D01*
X5116Y1026D01*
X5120Y1026D01*
X5120Y1028D01*
X5122Y1028D01*
X5122Y1030D01*
X5126Y1030D01*
X5126Y1032D01*
X5128Y1032D01*
X5128Y1034D01*
X5132Y1034D01*
X5132Y1036D01*
X5136Y1036D01*
X5136Y1038D01*
X4840Y1038D01*
G37*
D02*
G36*
X50Y1036D02*
X50Y1032D01*
X630Y1032D01*
X630Y988D01*
X892Y988D01*
X892Y994D01*
X894Y994D01*
X894Y998D01*
X896Y998D01*
X896Y1000D01*
X898Y1000D01*
X898Y1004D01*
X900Y1004D01*
X900Y1008D01*
X902Y1008D01*
X902Y1010D01*
X904Y1010D01*
X904Y1012D01*
X906Y1012D01*
X906Y1014D01*
X908Y1014D01*
X908Y1016D01*
X910Y1016D01*
X910Y1018D01*
X912Y1018D01*
X912Y1020D01*
X914Y1020D01*
X914Y1022D01*
X916Y1022D01*
X916Y1024D01*
X918Y1024D01*
X918Y1026D01*
X922Y1026D01*
X922Y1028D01*
X924Y1028D01*
X924Y1030D01*
X928Y1030D01*
X928Y1032D01*
X932Y1032D01*
X932Y1034D01*
X936Y1034D01*
X936Y1036D01*
X50Y1036D01*
G37*
D02*
G36*
X940Y1036D02*
X940Y988D01*
X982Y988D01*
X982Y1036D01*
X940Y1036D01*
G37*
D02*
G36*
X1234Y1036D02*
X1234Y1034D01*
X3942Y1034D01*
X3942Y986D01*
X3984Y986D01*
X3984Y1036D01*
X1234Y1036D01*
G37*
D02*
G36*
X1234Y1034D02*
X1234Y1032D01*
X1584Y1032D01*
X1584Y1030D01*
X1588Y1030D01*
X1588Y1028D01*
X1592Y1028D01*
X1592Y1026D01*
X1596Y1026D01*
X1596Y1024D01*
X1598Y1024D01*
X1598Y1022D01*
X1618Y1022D01*
X1618Y1024D01*
X1620Y1024D01*
X1620Y1026D01*
X1624Y1026D01*
X1624Y1028D01*
X1628Y1028D01*
X1628Y1030D01*
X1632Y1030D01*
X1632Y1032D01*
X1638Y1032D01*
X1638Y1034D01*
X1234Y1034D01*
G37*
D02*
G36*
X1830Y1034D02*
X1830Y986D01*
X3892Y986D01*
X3892Y988D01*
X3894Y988D01*
X3894Y992D01*
X3896Y992D01*
X3896Y996D01*
X3898Y996D01*
X3898Y1000D01*
X3900Y1000D01*
X3900Y1004D01*
X3902Y1004D01*
X3902Y1006D01*
X3904Y1006D01*
X3904Y1010D01*
X3906Y1010D01*
X3906Y1012D01*
X3908Y1012D01*
X3908Y1014D01*
X3910Y1014D01*
X3910Y1016D01*
X3912Y1016D01*
X3912Y1018D01*
X3914Y1018D01*
X3914Y1020D01*
X3916Y1020D01*
X3916Y1022D01*
X3920Y1022D01*
X3920Y1024D01*
X3922Y1024D01*
X3922Y1026D01*
X3924Y1026D01*
X3924Y1028D01*
X3928Y1028D01*
X3928Y1030D01*
X3932Y1030D01*
X3932Y1032D01*
X3936Y1032D01*
X3936Y1034D01*
X1830Y1034D01*
G37*
D02*
G36*
X50Y1032D02*
X50Y1030D01*
X380Y1030D01*
X380Y1028D01*
X384Y1028D01*
X384Y1026D01*
X390Y1026D01*
X390Y1024D01*
X392Y1024D01*
X392Y1022D01*
X396Y1022D01*
X396Y1020D01*
X420Y1020D01*
X420Y1022D01*
X422Y1022D01*
X422Y1024D01*
X426Y1024D01*
X426Y1026D01*
X432Y1026D01*
X432Y1028D01*
X436Y1028D01*
X436Y1030D01*
X448Y1030D01*
X448Y1032D01*
X50Y1032D01*
G37*
D02*
G36*
X1234Y1032D02*
X1234Y984D01*
X1488Y984D01*
X1488Y988D01*
X1490Y988D01*
X1490Y994D01*
X1492Y994D01*
X1492Y996D01*
X1494Y996D01*
X1494Y1000D01*
X1496Y1000D01*
X1496Y1004D01*
X1498Y1004D01*
X1498Y1006D01*
X1500Y1006D01*
X1500Y1008D01*
X1502Y1008D01*
X1502Y1010D01*
X1504Y1010D01*
X1504Y1012D01*
X1506Y1012D01*
X1506Y1014D01*
X1508Y1014D01*
X1508Y1016D01*
X1510Y1016D01*
X1510Y1018D01*
X1512Y1018D01*
X1512Y1020D01*
X1514Y1020D01*
X1514Y1022D01*
X1518Y1022D01*
X1518Y1024D01*
X1520Y1024D01*
X1520Y1026D01*
X1524Y1026D01*
X1524Y1028D01*
X1528Y1028D01*
X1528Y1030D01*
X1532Y1030D01*
X1532Y1032D01*
X1234Y1032D01*
G37*
D02*
G36*
X1536Y1032D02*
X1536Y984D01*
X1578Y984D01*
X1578Y1032D01*
X1536Y1032D01*
G37*
D02*
G36*
X50Y1030D02*
X50Y1028D01*
X336Y1028D01*
X336Y980D01*
X378Y980D01*
X378Y1030D01*
X50Y1030D01*
G37*
D02*
G36*
X50Y1028D02*
X50Y980D01*
X288Y980D01*
X288Y984D01*
X290Y984D01*
X290Y990D01*
X292Y990D01*
X292Y994D01*
X294Y994D01*
X294Y996D01*
X296Y996D01*
X296Y1000D01*
X298Y1000D01*
X298Y1002D01*
X300Y1002D01*
X300Y1004D01*
X302Y1004D01*
X302Y1006D01*
X304Y1006D01*
X304Y1008D01*
X306Y1008D01*
X306Y1010D01*
X308Y1010D01*
X308Y1012D01*
X310Y1012D01*
X310Y1014D01*
X312Y1014D01*
X312Y1016D01*
X314Y1016D01*
X314Y1018D01*
X316Y1018D01*
X316Y1020D01*
X320Y1020D01*
X320Y1022D01*
X322Y1022D01*
X322Y1024D01*
X326Y1024D01*
X326Y1026D01*
X332Y1026D01*
X332Y1028D01*
X50Y1028D01*
G37*
D02*
G36*
X4236Y994D02*
X4236Y992D01*
X4586Y992D01*
X4586Y994D01*
X4236Y994D01*
G37*
D02*
G36*
X4236Y994D02*
X4236Y992D01*
X4586Y992D01*
X4586Y994D01*
X4236Y994D01*
G37*
D02*
G36*
X4236Y992D02*
X4236Y952D01*
X4544Y952D01*
X4544Y902D01*
X4586Y902D01*
X4586Y960D01*
X4548Y960D01*
X4548Y990D01*
X4586Y990D01*
X4586Y992D01*
X4236Y992D01*
G37*
D02*
G36*
X4840Y990D02*
X4840Y988D01*
X5182Y988D01*
X5182Y990D01*
X4840Y990D01*
G37*
D02*
G36*
X4840Y990D02*
X4840Y988D01*
X5182Y988D01*
X5182Y990D01*
X4840Y990D01*
G37*
D02*
G36*
X630Y988D02*
X630Y986D01*
X982Y986D01*
X982Y988D01*
X630Y988D01*
G37*
D02*
G36*
X630Y988D02*
X630Y986D01*
X982Y986D01*
X982Y988D01*
X630Y988D01*
G37*
D02*
G36*
X4840Y988D02*
X4840Y948D01*
X5140Y948D01*
X5140Y898D01*
X5182Y898D01*
X5182Y956D01*
X5144Y956D01*
X5144Y986D01*
X5182Y986D01*
X5182Y988D01*
X4840Y988D01*
G37*
D02*
G36*
X630Y986D02*
X630Y946D01*
X940Y946D01*
X940Y896D01*
X982Y896D01*
X982Y954D01*
X944Y954D01*
X944Y984D01*
X982Y984D01*
X982Y986D01*
X630Y986D01*
G37*
D02*
G36*
X1830Y986D02*
X1830Y984D01*
X3984Y984D01*
X3984Y986D01*
X1830Y986D01*
G37*
D02*
G36*
X1830Y986D02*
X1830Y984D01*
X3984Y984D01*
X3984Y986D01*
X1830Y986D01*
G37*
D02*
G36*
X1234Y984D02*
X1234Y982D01*
X1578Y982D01*
X1578Y984D01*
X1234Y984D01*
G37*
D02*
G36*
X1234Y984D02*
X1234Y982D01*
X1578Y982D01*
X1578Y984D01*
X1234Y984D01*
G37*
D02*
G36*
X1830Y984D02*
X1830Y944D01*
X3942Y944D01*
X3942Y894D01*
X3984Y894D01*
X3984Y952D01*
X3946Y952D01*
X3946Y982D01*
X3984Y982D01*
X3984Y984D01*
X1830Y984D01*
G37*
D02*
G36*
X1234Y982D02*
X1234Y942D01*
X1536Y942D01*
X1536Y892D01*
X1578Y892D01*
X1578Y950D01*
X1540Y950D01*
X1540Y980D01*
X1578Y980D01*
X1578Y982D01*
X1234Y982D01*
G37*
D02*
G36*
X50Y980D02*
X50Y978D01*
X378Y978D01*
X378Y980D01*
X50Y980D01*
G37*
D02*
G36*
X50Y980D02*
X50Y978D01*
X378Y978D01*
X378Y980D01*
X50Y980D01*
G37*
D02*
G36*
X50Y978D02*
X50Y938D01*
X336Y938D01*
X336Y888D01*
X378Y888D01*
X378Y946D01*
X340Y946D01*
X340Y976D01*
X378Y976D01*
X378Y978D01*
X50Y978D01*
G37*
D02*
G36*
X4236Y952D02*
X4236Y902D01*
X4540Y902D01*
X4540Y904D01*
X4536Y904D01*
X4536Y906D01*
X4532Y906D01*
X4532Y908D01*
X4528Y908D01*
X4528Y910D01*
X4526Y910D01*
X4526Y912D01*
X4524Y912D01*
X4524Y914D01*
X4520Y914D01*
X4520Y916D01*
X4518Y916D01*
X4518Y918D01*
X4516Y918D01*
X4516Y920D01*
X4514Y920D01*
X4514Y922D01*
X4512Y922D01*
X4512Y924D01*
X4510Y924D01*
X4510Y926D01*
X4508Y926D01*
X4508Y930D01*
X4506Y930D01*
X4506Y932D01*
X4504Y932D01*
X4504Y936D01*
X4502Y936D01*
X4502Y940D01*
X4500Y940D01*
X4500Y944D01*
X4498Y944D01*
X4498Y948D01*
X4496Y948D01*
X4496Y952D01*
X4236Y952D01*
G37*
D02*
G36*
X4840Y948D02*
X4840Y898D01*
X5138Y898D01*
X5138Y900D01*
X5132Y900D01*
X5132Y902D01*
X5128Y902D01*
X5128Y904D01*
X5126Y904D01*
X5126Y906D01*
X5122Y906D01*
X5122Y908D01*
X5120Y908D01*
X5120Y910D01*
X5118Y910D01*
X5118Y912D01*
X5116Y912D01*
X5116Y914D01*
X5112Y914D01*
X5112Y916D01*
X5110Y916D01*
X5110Y918D01*
X5108Y918D01*
X5108Y922D01*
X5106Y922D01*
X5106Y924D01*
X5104Y924D01*
X5104Y926D01*
X5102Y926D01*
X5102Y930D01*
X5100Y930D01*
X5100Y932D01*
X5098Y932D01*
X5098Y936D01*
X5096Y936D01*
X5096Y940D01*
X5094Y940D01*
X5094Y946D01*
X5092Y946D01*
X5092Y948D01*
X4840Y948D01*
G37*
D02*
G36*
X630Y946D02*
X630Y896D01*
X934Y896D01*
X934Y898D01*
X930Y898D01*
X930Y900D01*
X926Y900D01*
X926Y902D01*
X922Y902D01*
X922Y904D01*
X920Y904D01*
X920Y906D01*
X918Y906D01*
X918Y908D01*
X914Y908D01*
X914Y910D01*
X912Y910D01*
X912Y912D01*
X910Y912D01*
X910Y914D01*
X908Y914D01*
X908Y916D01*
X906Y916D01*
X906Y918D01*
X904Y918D01*
X904Y922D01*
X902Y922D01*
X902Y924D01*
X900Y924D01*
X900Y926D01*
X898Y926D01*
X898Y930D01*
X896Y930D01*
X896Y934D01*
X894Y934D01*
X894Y938D01*
X892Y938D01*
X892Y944D01*
X890Y944D01*
X890Y946D01*
X630Y946D01*
G37*
D02*
G36*
X1830Y944D02*
X1830Y894D01*
X3938Y894D01*
X3938Y896D01*
X3934Y896D01*
X3934Y898D01*
X3930Y898D01*
X3930Y900D01*
X3926Y900D01*
X3926Y902D01*
X3924Y902D01*
X3924Y904D01*
X3920Y904D01*
X3920Y906D01*
X3918Y906D01*
X3918Y908D01*
X3916Y908D01*
X3916Y910D01*
X3914Y910D01*
X3914Y912D01*
X3912Y912D01*
X3912Y914D01*
X3910Y914D01*
X3910Y916D01*
X3908Y916D01*
X3908Y918D01*
X3906Y918D01*
X3906Y920D01*
X3904Y920D01*
X3904Y922D01*
X3902Y922D01*
X3902Y926D01*
X3900Y926D01*
X3900Y928D01*
X3898Y928D01*
X3898Y932D01*
X3896Y932D01*
X3896Y936D01*
X3894Y936D01*
X3894Y942D01*
X3892Y942D01*
X3892Y944D01*
X1830Y944D01*
G37*
D02*
G36*
X1234Y942D02*
X1234Y892D01*
X1532Y892D01*
X1532Y894D01*
X1526Y894D01*
X1526Y896D01*
X1522Y896D01*
X1522Y898D01*
X1520Y898D01*
X1520Y900D01*
X1516Y900D01*
X1516Y902D01*
X1514Y902D01*
X1514Y904D01*
X1512Y904D01*
X1512Y906D01*
X1510Y906D01*
X1510Y908D01*
X1508Y908D01*
X1508Y910D01*
X1506Y910D01*
X1506Y912D01*
X1504Y912D01*
X1504Y914D01*
X1502Y914D01*
X1502Y916D01*
X1500Y916D01*
X1500Y918D01*
X1498Y918D01*
X1498Y920D01*
X1496Y920D01*
X1496Y924D01*
X1494Y924D01*
X1494Y926D01*
X1492Y926D01*
X1492Y930D01*
X1490Y930D01*
X1490Y936D01*
X1488Y936D01*
X1488Y940D01*
X1486Y940D01*
X1486Y942D01*
X1234Y942D01*
G37*
D02*
G36*
X50Y938D02*
X50Y888D01*
X332Y888D01*
X332Y890D01*
X328Y890D01*
X328Y892D01*
X324Y892D01*
X324Y894D01*
X320Y894D01*
X320Y896D01*
X318Y896D01*
X318Y898D01*
X314Y898D01*
X314Y900D01*
X312Y900D01*
X312Y902D01*
X310Y902D01*
X310Y904D01*
X308Y904D01*
X308Y906D01*
X306Y906D01*
X306Y908D01*
X304Y908D01*
X304Y910D01*
X302Y910D01*
X302Y912D01*
X300Y912D01*
X300Y914D01*
X298Y914D01*
X298Y916D01*
X296Y916D01*
X296Y920D01*
X294Y920D01*
X294Y924D01*
X292Y924D01*
X292Y926D01*
X290Y926D01*
X290Y932D01*
X288Y932D01*
X288Y938D01*
X50Y938D01*
G37*
D02*
G36*
X4606Y910D02*
X4606Y908D01*
X4602Y908D01*
X4602Y906D01*
X4598Y906D01*
X4598Y904D01*
X4594Y904D01*
X4594Y902D01*
X4588Y902D01*
X4588Y900D01*
X4646Y900D01*
X4646Y902D01*
X4640Y902D01*
X4640Y904D01*
X4636Y904D01*
X4636Y906D01*
X4632Y906D01*
X4632Y908D01*
X4628Y908D01*
X4628Y910D01*
X4606Y910D01*
G37*
D02*
G36*
X5202Y906D02*
X5202Y904D01*
X5198Y904D01*
X5198Y902D01*
X5194Y902D01*
X5194Y900D01*
X5190Y900D01*
X5190Y898D01*
X5184Y898D01*
X5184Y896D01*
X5244Y896D01*
X5244Y898D01*
X5238Y898D01*
X5238Y900D01*
X5232Y900D01*
X5232Y902D01*
X5228Y902D01*
X5228Y904D01*
X5226Y904D01*
X5226Y906D01*
X5202Y906D01*
G37*
D02*
G36*
X1000Y904D02*
X1000Y902D01*
X998Y902D01*
X998Y900D01*
X994Y900D01*
X994Y898D01*
X990Y898D01*
X990Y896D01*
X984Y896D01*
X984Y894D01*
X1040Y894D01*
X1040Y896D01*
X1034Y896D01*
X1034Y898D01*
X1030Y898D01*
X1030Y900D01*
X1026Y900D01*
X1026Y902D01*
X1022Y902D01*
X1022Y904D01*
X1000Y904D01*
G37*
D02*
G36*
X4004Y904D02*
X4004Y902D01*
X4000Y902D01*
X4000Y900D01*
X3998Y900D01*
X3998Y898D01*
X3994Y898D01*
X3994Y896D01*
X3988Y896D01*
X3988Y894D01*
X4038Y894D01*
X4038Y896D01*
X4034Y896D01*
X4034Y898D01*
X4030Y898D01*
X4030Y900D01*
X4026Y900D01*
X4026Y902D01*
X4024Y902D01*
X4024Y904D01*
X4004Y904D01*
G37*
D02*
G36*
X4236Y902D02*
X4236Y900D01*
X4586Y900D01*
X4586Y902D01*
X4236Y902D01*
G37*
D02*
G36*
X4236Y902D02*
X4236Y900D01*
X4586Y900D01*
X4586Y902D01*
X4236Y902D01*
G37*
D02*
G36*
X1596Y900D02*
X1596Y898D01*
X1592Y898D01*
X1592Y896D01*
X1590Y896D01*
X1590Y894D01*
X1584Y894D01*
X1584Y892D01*
X1632Y892D01*
X1632Y894D01*
X1626Y894D01*
X1626Y896D01*
X1622Y896D01*
X1622Y898D01*
X1620Y898D01*
X1620Y900D01*
X1596Y900D01*
G37*
D02*
G36*
X4236Y900D02*
X4236Y898D01*
X4656Y898D01*
X4656Y900D01*
X4236Y900D01*
G37*
D02*
G36*
X4236Y900D02*
X4236Y898D01*
X4656Y898D01*
X4656Y900D01*
X4236Y900D01*
G37*
D02*
G36*
X398Y898D02*
X398Y896D01*
X396Y896D01*
X396Y894D01*
X392Y894D01*
X392Y892D01*
X388Y892D01*
X388Y890D01*
X384Y890D01*
X384Y888D01*
X432Y888D01*
X432Y890D01*
X428Y890D01*
X428Y892D01*
X424Y892D01*
X424Y894D01*
X420Y894D01*
X420Y896D01*
X418Y896D01*
X418Y898D01*
X398Y898D01*
G37*
D02*
G36*
X4236Y898D02*
X4236Y896D01*
X5182Y896D01*
X5182Y898D01*
X4236Y898D01*
G37*
D02*
G36*
X4236Y898D02*
X4236Y896D01*
X5182Y896D01*
X5182Y898D01*
X4236Y898D01*
G37*
D02*
G36*
X4236Y898D02*
X4236Y896D01*
X5182Y896D01*
X5182Y898D01*
X4236Y898D01*
G37*
D02*
G36*
X630Y896D02*
X630Y894D01*
X982Y894D01*
X982Y896D01*
X630Y896D01*
G37*
D02*
G36*
X630Y896D02*
X630Y894D01*
X982Y894D01*
X982Y896D01*
X630Y896D01*
G37*
D02*
G36*
X4236Y896D02*
X4236Y894D01*
X5666Y894D01*
X5666Y896D01*
X4236Y896D01*
G37*
D02*
G36*
X4236Y896D02*
X4236Y894D01*
X5666Y894D01*
X5666Y896D01*
X4236Y896D01*
G37*
D02*
G36*
X4236Y896D02*
X4236Y894D01*
X5666Y894D01*
X5666Y896D01*
X4236Y896D01*
G37*
D02*
G36*
X630Y894D02*
X630Y892D01*
X1048Y892D01*
X1048Y894D01*
X630Y894D01*
G37*
D02*
G36*
X630Y894D02*
X630Y892D01*
X1048Y892D01*
X1048Y894D01*
X630Y894D01*
G37*
D02*
G36*
X1830Y894D02*
X1830Y892D01*
X4044Y892D01*
X4044Y894D01*
X1830Y894D01*
G37*
D02*
G36*
X1830Y894D02*
X1830Y892D01*
X4044Y892D01*
X4044Y894D01*
X1830Y894D01*
G37*
D02*
G36*
X1830Y894D02*
X1830Y892D01*
X4044Y892D01*
X4044Y894D01*
X1830Y894D01*
G37*
D02*
G36*
X4236Y894D02*
X4236Y892D01*
X5666Y892D01*
X5666Y894D01*
X4236Y894D01*
G37*
D02*
G36*
X630Y892D02*
X630Y890D01*
X1636Y890D01*
X1636Y892D01*
X630Y892D01*
G37*
D02*
G36*
X630Y892D02*
X630Y890D01*
X1636Y890D01*
X1636Y892D01*
X630Y892D01*
G37*
D02*
G36*
X630Y892D02*
X630Y890D01*
X1636Y890D01*
X1636Y892D01*
X630Y892D01*
G37*
D02*
G36*
X630Y892D02*
X630Y890D01*
X1636Y890D01*
X1636Y892D01*
X630Y892D01*
G37*
D02*
G36*
X1830Y892D02*
X1830Y890D01*
X5666Y890D01*
X5666Y892D01*
X1830Y892D01*
G37*
D02*
G36*
X1830Y892D02*
X1830Y890D01*
X5666Y890D01*
X5666Y892D01*
X1830Y892D01*
G37*
D02*
G36*
X630Y890D02*
X630Y888D01*
X1648Y888D01*
X1648Y890D01*
X630Y890D01*
G37*
D02*
G36*
X1830Y890D02*
X1830Y888D01*
X5666Y888D01*
X5666Y890D01*
X1830Y890D01*
G37*
D02*
G36*
X50Y888D02*
X50Y886D01*
X438Y886D01*
X438Y888D01*
X50Y888D01*
G37*
D02*
G36*
X50Y888D02*
X50Y886D01*
X438Y886D01*
X438Y888D01*
X50Y888D01*
G37*
D02*
G36*
X50Y888D02*
X50Y886D01*
X438Y886D01*
X438Y888D01*
X50Y888D01*
G37*
D02*
G36*
X630Y888D02*
X630Y886D01*
X5666Y886D01*
X5666Y888D01*
X630Y888D01*
G37*
D02*
G36*
X630Y888D02*
X630Y886D01*
X5666Y886D01*
X5666Y888D01*
X630Y888D01*
G37*
D02*
G36*
X50Y886D02*
X50Y884D01*
X5666Y884D01*
X5666Y886D01*
X50Y886D01*
G37*
D02*
G36*
X50Y886D02*
X50Y884D01*
X5666Y884D01*
X5666Y886D01*
X50Y886D01*
G37*
D02*
G36*
X50Y884D02*
X50Y844D01*
X4786Y844D01*
X4786Y842D01*
X5372Y842D01*
X5372Y840D01*
X5382Y840D01*
X5382Y838D01*
X5388Y838D01*
X5388Y836D01*
X5392Y836D01*
X5392Y834D01*
X5396Y834D01*
X5396Y832D01*
X5400Y832D01*
X5400Y830D01*
X5402Y830D01*
X5402Y828D01*
X5406Y828D01*
X5406Y826D01*
X5408Y826D01*
X5408Y824D01*
X5410Y824D01*
X5410Y822D01*
X5412Y822D01*
X5412Y820D01*
X5414Y820D01*
X5414Y818D01*
X5416Y818D01*
X5416Y816D01*
X5418Y816D01*
X5418Y814D01*
X5420Y814D01*
X5420Y812D01*
X5422Y812D01*
X5422Y808D01*
X5424Y808D01*
X5424Y806D01*
X5426Y806D01*
X5426Y802D01*
X5428Y802D01*
X5428Y798D01*
X5430Y798D01*
X5430Y794D01*
X5432Y794D01*
X5432Y786D01*
X5434Y786D01*
X5434Y750D01*
X5432Y750D01*
X5432Y744D01*
X5430Y744D01*
X5430Y738D01*
X5428Y738D01*
X5428Y734D01*
X5426Y734D01*
X5426Y732D01*
X5424Y732D01*
X5424Y728D01*
X5422Y728D01*
X5422Y726D01*
X5420Y726D01*
X5420Y722D01*
X5418Y722D01*
X5418Y720D01*
X5416Y720D01*
X5416Y718D01*
X5414Y718D01*
X5414Y716D01*
X5412Y716D01*
X5412Y714D01*
X5410Y714D01*
X5410Y712D01*
X5408Y712D01*
X5408Y710D01*
X5404Y710D01*
X5404Y708D01*
X5402Y708D01*
X5402Y706D01*
X5400Y706D01*
X5400Y704D01*
X5396Y704D01*
X5396Y702D01*
X5392Y702D01*
X5392Y700D01*
X5388Y700D01*
X5388Y698D01*
X5382Y698D01*
X5382Y696D01*
X5666Y696D01*
X5666Y884D01*
X50Y884D01*
G37*
D02*
G36*
X50Y844D02*
X50Y838D01*
X4174Y838D01*
X4174Y836D01*
X4184Y836D01*
X4184Y834D01*
X4188Y834D01*
X4188Y832D01*
X4194Y832D01*
X4194Y830D01*
X4196Y830D01*
X4196Y828D01*
X4200Y828D01*
X4200Y826D01*
X4204Y826D01*
X4204Y824D01*
X4206Y824D01*
X4206Y822D01*
X4208Y822D01*
X4208Y820D01*
X4210Y820D01*
X4210Y818D01*
X4212Y818D01*
X4212Y816D01*
X4214Y816D01*
X4214Y814D01*
X4216Y814D01*
X4216Y812D01*
X4218Y812D01*
X4218Y810D01*
X4220Y810D01*
X4220Y808D01*
X4222Y808D01*
X4222Y804D01*
X4224Y804D01*
X4224Y802D01*
X4226Y802D01*
X4226Y798D01*
X4228Y798D01*
X4228Y794D01*
X4230Y794D01*
X4230Y790D01*
X4232Y790D01*
X4232Y782D01*
X4234Y782D01*
X4234Y746D01*
X4232Y746D01*
X4232Y740D01*
X4230Y740D01*
X4230Y734D01*
X4228Y734D01*
X4228Y730D01*
X4226Y730D01*
X4226Y728D01*
X4224Y728D01*
X4224Y724D01*
X4222Y724D01*
X4222Y722D01*
X4220Y722D01*
X4220Y720D01*
X4218Y720D01*
X4218Y716D01*
X4216Y716D01*
X4216Y714D01*
X4214Y714D01*
X4214Y712D01*
X4212Y712D01*
X4212Y710D01*
X4210Y710D01*
X4210Y708D01*
X4208Y708D01*
X4208Y706D01*
X4204Y706D01*
X4204Y704D01*
X4202Y704D01*
X4202Y702D01*
X4198Y702D01*
X4198Y700D01*
X4196Y700D01*
X4196Y698D01*
X4394Y698D01*
X4394Y844D01*
X50Y844D01*
G37*
D02*
G36*
X4540Y844D02*
X4540Y700D01*
X4538Y700D01*
X4538Y698D01*
X4754Y698D01*
X4754Y700D01*
X4744Y700D01*
X4744Y702D01*
X4738Y702D01*
X4738Y704D01*
X4734Y704D01*
X4734Y706D01*
X4730Y706D01*
X4730Y708D01*
X4726Y708D01*
X4726Y710D01*
X4724Y710D01*
X4724Y712D01*
X4722Y712D01*
X4722Y714D01*
X4718Y714D01*
X4718Y716D01*
X4716Y716D01*
X4716Y718D01*
X4714Y718D01*
X4714Y720D01*
X4712Y720D01*
X4712Y722D01*
X4710Y722D01*
X4710Y724D01*
X4708Y724D01*
X4708Y726D01*
X4706Y726D01*
X4706Y730D01*
X4704Y730D01*
X4704Y732D01*
X4702Y732D01*
X4702Y736D01*
X4700Y736D01*
X4700Y740D01*
X4698Y740D01*
X4698Y744D01*
X4696Y744D01*
X4696Y748D01*
X4694Y748D01*
X4694Y756D01*
X4692Y756D01*
X4692Y788D01*
X4694Y788D01*
X4694Y796D01*
X4696Y796D01*
X4696Y800D01*
X4698Y800D01*
X4698Y804D01*
X4700Y804D01*
X4700Y808D01*
X4702Y808D01*
X4702Y812D01*
X4704Y812D01*
X4704Y814D01*
X4706Y814D01*
X4706Y816D01*
X4708Y816D01*
X4708Y820D01*
X4710Y820D01*
X4710Y822D01*
X4712Y822D01*
X4712Y824D01*
X4714Y824D01*
X4714Y826D01*
X4716Y826D01*
X4716Y828D01*
X4718Y828D01*
X4718Y830D01*
X4722Y830D01*
X4722Y832D01*
X4724Y832D01*
X4724Y834D01*
X4728Y834D01*
X4728Y836D01*
X4730Y836D01*
X4730Y838D01*
X4734Y838D01*
X4734Y840D01*
X4738Y840D01*
X4738Y842D01*
X4744Y842D01*
X4744Y844D01*
X4540Y844D01*
G37*
D02*
G36*
X4792Y842D02*
X4792Y840D01*
X4796Y840D01*
X4796Y838D01*
X4800Y838D01*
X4800Y836D01*
X4802Y836D01*
X4802Y834D01*
X4806Y834D01*
X4806Y832D01*
X4808Y832D01*
X4808Y830D01*
X4812Y830D01*
X4812Y828D01*
X4814Y828D01*
X4814Y826D01*
X4816Y826D01*
X4816Y824D01*
X4818Y824D01*
X4818Y822D01*
X4820Y822D01*
X4820Y820D01*
X4822Y820D01*
X4822Y816D01*
X4824Y816D01*
X4824Y814D01*
X4826Y814D01*
X4826Y812D01*
X4828Y812D01*
X4828Y808D01*
X4830Y808D01*
X4830Y804D01*
X4832Y804D01*
X4832Y800D01*
X4834Y800D01*
X4834Y796D01*
X4836Y796D01*
X4836Y788D01*
X4838Y788D01*
X4838Y754D01*
X4836Y754D01*
X4836Y748D01*
X4834Y748D01*
X4834Y742D01*
X4832Y742D01*
X4832Y738D01*
X4830Y738D01*
X4830Y736D01*
X4828Y736D01*
X4828Y732D01*
X4826Y732D01*
X4826Y730D01*
X4824Y730D01*
X4824Y726D01*
X4822Y726D01*
X4822Y724D01*
X4820Y724D01*
X4820Y722D01*
X4818Y722D01*
X4818Y720D01*
X4816Y720D01*
X4816Y718D01*
X4814Y718D01*
X4814Y716D01*
X4812Y716D01*
X4812Y714D01*
X4808Y714D01*
X4808Y712D01*
X4806Y712D01*
X4806Y710D01*
X4804Y710D01*
X4804Y708D01*
X4800Y708D01*
X4800Y706D01*
X4796Y706D01*
X4796Y704D01*
X4792Y704D01*
X4792Y702D01*
X4786Y702D01*
X4786Y700D01*
X4776Y700D01*
X4776Y698D01*
X4990Y698D01*
X4990Y842D01*
X4792Y842D01*
G37*
D02*
G36*
X5134Y842D02*
X5134Y840D01*
X5136Y840D01*
X5136Y696D01*
X5342Y696D01*
X5342Y698D01*
X5336Y698D01*
X5336Y700D01*
X5330Y700D01*
X5330Y702D01*
X5326Y702D01*
X5326Y704D01*
X5324Y704D01*
X5324Y706D01*
X5320Y706D01*
X5320Y708D01*
X5318Y708D01*
X5318Y710D01*
X5316Y710D01*
X5316Y712D01*
X5314Y712D01*
X5314Y714D01*
X5310Y714D01*
X5310Y716D01*
X5308Y716D01*
X5308Y718D01*
X5306Y718D01*
X5306Y722D01*
X5304Y722D01*
X5304Y724D01*
X5302Y724D01*
X5302Y726D01*
X5300Y726D01*
X5300Y730D01*
X5298Y730D01*
X5298Y732D01*
X5296Y732D01*
X5296Y736D01*
X5294Y736D01*
X5294Y740D01*
X5292Y740D01*
X5292Y746D01*
X5290Y746D01*
X5290Y754D01*
X5288Y754D01*
X5288Y782D01*
X5290Y782D01*
X5290Y790D01*
X5292Y790D01*
X5292Y796D01*
X5294Y796D01*
X5294Y800D01*
X5296Y800D01*
X5296Y804D01*
X5298Y804D01*
X5298Y808D01*
X5300Y808D01*
X5300Y810D01*
X5302Y810D01*
X5302Y812D01*
X5304Y812D01*
X5304Y816D01*
X5306Y816D01*
X5306Y818D01*
X5308Y818D01*
X5308Y820D01*
X5310Y820D01*
X5310Y822D01*
X5312Y822D01*
X5312Y824D01*
X5314Y824D01*
X5314Y826D01*
X5318Y826D01*
X5318Y828D01*
X5320Y828D01*
X5320Y830D01*
X5324Y830D01*
X5324Y832D01*
X5326Y832D01*
X5326Y834D01*
X5330Y834D01*
X5330Y836D01*
X5334Y836D01*
X5334Y838D01*
X5340Y838D01*
X5340Y840D01*
X5350Y840D01*
X5350Y842D01*
X5134Y842D01*
G37*
D02*
G36*
X50Y838D02*
X50Y832D01*
X566Y832D01*
X566Y830D01*
X578Y830D01*
X578Y828D01*
X582Y828D01*
X582Y826D01*
X588Y826D01*
X588Y824D01*
X590Y824D01*
X590Y822D01*
X594Y822D01*
X594Y820D01*
X598Y820D01*
X598Y818D01*
X600Y818D01*
X600Y816D01*
X602Y816D01*
X602Y814D01*
X604Y814D01*
X604Y812D01*
X606Y812D01*
X606Y810D01*
X608Y810D01*
X608Y808D01*
X610Y808D01*
X610Y806D01*
X612Y806D01*
X612Y804D01*
X614Y804D01*
X614Y802D01*
X616Y802D01*
X616Y798D01*
X618Y798D01*
X618Y796D01*
X620Y796D01*
X620Y792D01*
X622Y792D01*
X622Y788D01*
X624Y788D01*
X624Y784D01*
X626Y784D01*
X626Y778D01*
X628Y778D01*
X628Y738D01*
X626Y738D01*
X626Y732D01*
X624Y732D01*
X624Y728D01*
X622Y728D01*
X622Y724D01*
X620Y724D01*
X620Y720D01*
X618Y720D01*
X618Y718D01*
X616Y718D01*
X616Y714D01*
X614Y714D01*
X614Y712D01*
X612Y712D01*
X612Y710D01*
X610Y710D01*
X610Y708D01*
X608Y708D01*
X608Y706D01*
X606Y706D01*
X606Y704D01*
X604Y704D01*
X604Y702D01*
X602Y702D01*
X602Y700D01*
X600Y700D01*
X600Y698D01*
X596Y698D01*
X596Y696D01*
X594Y696D01*
X594Y694D01*
X590Y694D01*
X590Y692D01*
X788Y692D01*
X788Y838D01*
X50Y838D01*
G37*
D02*
G36*
X934Y838D02*
X934Y692D01*
X1146Y692D01*
X1146Y694D01*
X1138Y694D01*
X1138Y696D01*
X1132Y696D01*
X1132Y698D01*
X1128Y698D01*
X1128Y700D01*
X1124Y700D01*
X1124Y702D01*
X1120Y702D01*
X1120Y704D01*
X1118Y704D01*
X1118Y706D01*
X1116Y706D01*
X1116Y708D01*
X1112Y708D01*
X1112Y710D01*
X1110Y710D01*
X1110Y712D01*
X1108Y712D01*
X1108Y714D01*
X1106Y714D01*
X1106Y716D01*
X1104Y716D01*
X1104Y718D01*
X1102Y718D01*
X1102Y722D01*
X1100Y722D01*
X1100Y724D01*
X1098Y724D01*
X1098Y726D01*
X1096Y726D01*
X1096Y730D01*
X1094Y730D01*
X1094Y734D01*
X1092Y734D01*
X1092Y738D01*
X1090Y738D01*
X1090Y744D01*
X1088Y744D01*
X1088Y752D01*
X1086Y752D01*
X1086Y778D01*
X1088Y778D01*
X1088Y788D01*
X1090Y788D01*
X1090Y794D01*
X1092Y794D01*
X1092Y798D01*
X1094Y798D01*
X1094Y800D01*
X1096Y800D01*
X1096Y804D01*
X1098Y804D01*
X1098Y808D01*
X1100Y808D01*
X1100Y810D01*
X1102Y810D01*
X1102Y812D01*
X1104Y812D01*
X1104Y814D01*
X1106Y814D01*
X1106Y816D01*
X1108Y816D01*
X1108Y818D01*
X1110Y818D01*
X1110Y820D01*
X1112Y820D01*
X1112Y822D01*
X1114Y822D01*
X1114Y824D01*
X1116Y824D01*
X1116Y826D01*
X1120Y826D01*
X1120Y828D01*
X1122Y828D01*
X1122Y830D01*
X1126Y830D01*
X1126Y832D01*
X1130Y832D01*
X1130Y834D01*
X1134Y834D01*
X1134Y836D01*
X1140Y836D01*
X1140Y838D01*
X934Y838D01*
G37*
D02*
G36*
X1178Y838D02*
X1178Y836D01*
X1184Y836D01*
X1184Y834D01*
X1776Y834D01*
X1776Y832D01*
X1782Y832D01*
X1782Y830D01*
X1786Y830D01*
X1786Y828D01*
X1790Y828D01*
X1790Y826D01*
X1794Y826D01*
X1794Y824D01*
X1796Y824D01*
X1796Y822D01*
X1800Y822D01*
X1800Y820D01*
X1802Y820D01*
X1802Y818D01*
X1804Y818D01*
X1804Y816D01*
X1806Y816D01*
X1806Y814D01*
X1808Y814D01*
X1808Y812D01*
X1810Y812D01*
X1810Y810D01*
X1812Y810D01*
X1812Y808D01*
X1814Y808D01*
X1814Y806D01*
X1816Y806D01*
X1816Y802D01*
X1818Y802D01*
X1818Y800D01*
X1820Y800D01*
X1820Y796D01*
X1822Y796D01*
X1822Y792D01*
X1824Y792D01*
X1824Y788D01*
X1826Y788D01*
X1826Y782D01*
X1828Y782D01*
X1828Y742D01*
X1826Y742D01*
X1826Y736D01*
X1824Y736D01*
X1824Y732D01*
X1822Y732D01*
X1822Y728D01*
X1820Y728D01*
X1820Y724D01*
X1818Y724D01*
X1818Y722D01*
X1816Y722D01*
X1816Y718D01*
X1814Y718D01*
X1814Y716D01*
X1812Y716D01*
X1812Y714D01*
X1810Y714D01*
X1810Y712D01*
X1808Y712D01*
X1808Y710D01*
X1806Y710D01*
X1806Y708D01*
X1804Y708D01*
X1804Y706D01*
X1802Y706D01*
X1802Y704D01*
X1800Y704D01*
X1800Y702D01*
X1798Y702D01*
X1798Y700D01*
X1794Y700D01*
X1794Y698D01*
X1790Y698D01*
X1790Y696D01*
X1788Y696D01*
X1788Y694D01*
X1782Y694D01*
X1782Y692D01*
X3790Y692D01*
X3790Y838D01*
X1178Y838D01*
G37*
D02*
G36*
X3936Y838D02*
X3936Y692D01*
X4142Y692D01*
X4142Y694D01*
X4136Y694D01*
X4136Y696D01*
X4132Y696D01*
X4132Y698D01*
X4128Y698D01*
X4128Y700D01*
X4124Y700D01*
X4124Y702D01*
X4122Y702D01*
X4122Y704D01*
X4118Y704D01*
X4118Y706D01*
X4116Y706D01*
X4116Y708D01*
X4114Y708D01*
X4114Y710D01*
X4112Y710D01*
X4112Y712D01*
X4110Y712D01*
X4110Y714D01*
X4108Y714D01*
X4108Y716D01*
X4106Y716D01*
X4106Y718D01*
X4104Y718D01*
X4104Y720D01*
X4102Y720D01*
X4102Y722D01*
X4100Y722D01*
X4100Y726D01*
X4098Y726D01*
X4098Y728D01*
X4096Y728D01*
X4096Y732D01*
X4094Y732D01*
X4094Y736D01*
X4092Y736D01*
X4092Y742D01*
X4090Y742D01*
X4090Y750D01*
X4088Y750D01*
X4088Y778D01*
X4090Y778D01*
X4090Y788D01*
X4092Y788D01*
X4092Y792D01*
X4094Y792D01*
X4094Y796D01*
X4096Y796D01*
X4096Y800D01*
X4098Y800D01*
X4098Y804D01*
X4100Y804D01*
X4100Y806D01*
X4102Y806D01*
X4102Y810D01*
X4104Y810D01*
X4104Y812D01*
X4106Y812D01*
X4106Y814D01*
X4108Y814D01*
X4108Y816D01*
X4110Y816D01*
X4110Y818D01*
X4112Y818D01*
X4112Y820D01*
X4114Y820D01*
X4114Y822D01*
X4118Y822D01*
X4118Y824D01*
X4120Y824D01*
X4120Y826D01*
X4122Y826D01*
X4122Y828D01*
X4126Y828D01*
X4126Y830D01*
X4130Y830D01*
X4130Y832D01*
X4134Y832D01*
X4134Y834D01*
X4140Y834D01*
X4140Y836D01*
X4148Y836D01*
X4148Y838D01*
X3936Y838D01*
G37*
D02*
G36*
X1190Y834D02*
X1190Y832D01*
X1194Y832D01*
X1194Y830D01*
X1196Y830D01*
X1196Y828D01*
X1200Y828D01*
X1200Y826D01*
X1202Y826D01*
X1202Y824D01*
X1206Y824D01*
X1206Y822D01*
X1208Y822D01*
X1208Y820D01*
X1210Y820D01*
X1210Y818D01*
X1212Y818D01*
X1212Y816D01*
X1214Y816D01*
X1214Y814D01*
X1216Y814D01*
X1216Y812D01*
X1218Y812D01*
X1218Y808D01*
X1220Y808D01*
X1220Y806D01*
X1222Y806D01*
X1222Y802D01*
X1224Y802D01*
X1224Y800D01*
X1226Y800D01*
X1226Y796D01*
X1228Y796D01*
X1228Y790D01*
X1230Y790D01*
X1230Y784D01*
X1232Y784D01*
X1232Y746D01*
X1230Y746D01*
X1230Y740D01*
X1228Y740D01*
X1228Y736D01*
X1226Y736D01*
X1226Y732D01*
X1224Y732D01*
X1224Y728D01*
X1222Y728D01*
X1222Y726D01*
X1220Y726D01*
X1220Y722D01*
X1218Y722D01*
X1218Y720D01*
X1216Y720D01*
X1216Y718D01*
X1214Y718D01*
X1214Y716D01*
X1212Y716D01*
X1212Y714D01*
X1210Y714D01*
X1210Y712D01*
X1208Y712D01*
X1208Y710D01*
X1206Y710D01*
X1206Y708D01*
X1204Y708D01*
X1204Y706D01*
X1202Y706D01*
X1202Y704D01*
X1198Y704D01*
X1198Y702D01*
X1196Y702D01*
X1196Y700D01*
X1192Y700D01*
X1192Y698D01*
X1188Y698D01*
X1188Y696D01*
X1182Y696D01*
X1182Y694D01*
X1172Y694D01*
X1172Y692D01*
X1384Y692D01*
X1384Y834D01*
X1190Y834D01*
G37*
D02*
G36*
X1530Y834D02*
X1530Y688D01*
X1746Y688D01*
X1746Y690D01*
X1734Y690D01*
X1734Y692D01*
X1730Y692D01*
X1730Y694D01*
X1724Y694D01*
X1724Y696D01*
X1720Y696D01*
X1720Y698D01*
X1718Y698D01*
X1718Y700D01*
X1714Y700D01*
X1714Y702D01*
X1712Y702D01*
X1712Y704D01*
X1710Y704D01*
X1710Y706D01*
X1708Y706D01*
X1708Y708D01*
X1706Y708D01*
X1706Y710D01*
X1704Y710D01*
X1704Y712D01*
X1702Y712D01*
X1702Y714D01*
X1700Y714D01*
X1700Y716D01*
X1698Y716D01*
X1698Y718D01*
X1696Y718D01*
X1696Y720D01*
X1694Y720D01*
X1694Y724D01*
X1692Y724D01*
X1692Y726D01*
X1690Y726D01*
X1690Y730D01*
X1688Y730D01*
X1688Y736D01*
X1686Y736D01*
X1686Y740D01*
X1684Y740D01*
X1684Y752D01*
X1682Y752D01*
X1682Y772D01*
X1684Y772D01*
X1684Y782D01*
X1686Y782D01*
X1686Y788D01*
X1688Y788D01*
X1688Y794D01*
X1690Y794D01*
X1690Y796D01*
X1692Y796D01*
X1692Y800D01*
X1694Y800D01*
X1694Y804D01*
X1696Y804D01*
X1696Y806D01*
X1698Y806D01*
X1698Y808D01*
X1700Y808D01*
X1700Y810D01*
X1702Y810D01*
X1702Y812D01*
X1704Y812D01*
X1704Y814D01*
X1706Y814D01*
X1706Y816D01*
X1708Y816D01*
X1708Y818D01*
X1710Y818D01*
X1710Y820D01*
X1712Y820D01*
X1712Y822D01*
X1716Y822D01*
X1716Y824D01*
X1718Y824D01*
X1718Y826D01*
X1722Y826D01*
X1722Y828D01*
X1726Y828D01*
X1726Y830D01*
X1730Y830D01*
X1730Y832D01*
X1736Y832D01*
X1736Y834D01*
X1530Y834D01*
G37*
D02*
G36*
X50Y832D02*
X50Y686D01*
X184Y686D01*
X184Y832D01*
X50Y832D01*
G37*
D02*
G36*
X330Y832D02*
X330Y686D01*
X536Y686D01*
X536Y688D01*
X530Y688D01*
X530Y690D01*
X526Y690D01*
X526Y692D01*
X522Y692D01*
X522Y694D01*
X518Y694D01*
X518Y696D01*
X516Y696D01*
X516Y698D01*
X512Y698D01*
X512Y700D01*
X510Y700D01*
X510Y702D01*
X508Y702D01*
X508Y704D01*
X506Y704D01*
X506Y706D01*
X504Y706D01*
X504Y708D01*
X502Y708D01*
X502Y710D01*
X500Y710D01*
X500Y712D01*
X498Y712D01*
X498Y714D01*
X496Y714D01*
X496Y716D01*
X494Y716D01*
X494Y720D01*
X492Y720D01*
X492Y724D01*
X490Y724D01*
X490Y726D01*
X488Y726D01*
X488Y732D01*
X486Y732D01*
X486Y738D01*
X484Y738D01*
X484Y748D01*
X482Y748D01*
X482Y768D01*
X484Y768D01*
X484Y780D01*
X486Y780D01*
X486Y784D01*
X488Y784D01*
X488Y790D01*
X490Y790D01*
X490Y794D01*
X492Y794D01*
X492Y796D01*
X494Y796D01*
X494Y800D01*
X496Y800D01*
X496Y802D01*
X498Y802D01*
X498Y804D01*
X500Y804D01*
X500Y806D01*
X502Y806D01*
X502Y808D01*
X504Y808D01*
X504Y810D01*
X506Y810D01*
X506Y812D01*
X508Y812D01*
X508Y814D01*
X510Y814D01*
X510Y816D01*
X512Y816D01*
X512Y818D01*
X514Y818D01*
X514Y820D01*
X518Y820D01*
X518Y822D01*
X520Y822D01*
X520Y824D01*
X524Y824D01*
X524Y826D01*
X530Y826D01*
X530Y828D01*
X534Y828D01*
X534Y830D01*
X546Y830D01*
X546Y832D01*
X330Y832D01*
G37*
D02*
G36*
X4192Y698D02*
X4192Y696D01*
X4990Y696D01*
X4990Y698D01*
X4192Y698D01*
G37*
D02*
G36*
X4192Y698D02*
X4192Y696D01*
X4990Y696D01*
X4990Y698D01*
X4192Y698D01*
G37*
D02*
G36*
X4192Y698D02*
X4192Y696D01*
X4990Y696D01*
X4990Y698D01*
X4192Y698D01*
G37*
D02*
G36*
X4186Y696D02*
X4186Y694D01*
X5666Y694D01*
X5666Y696D01*
X4186Y696D01*
G37*
D02*
G36*
X4186Y696D02*
X4186Y694D01*
X5666Y694D01*
X5666Y696D01*
X4186Y696D01*
G37*
D02*
G36*
X4186Y696D02*
X4186Y694D01*
X5666Y694D01*
X5666Y696D01*
X4186Y696D01*
G37*
D02*
G36*
X4180Y694D02*
X4180Y692D01*
X5666Y692D01*
X5666Y694D01*
X4180Y694D01*
G37*
D02*
G36*
X586Y692D02*
X586Y690D01*
X1384Y690D01*
X1384Y692D01*
X586Y692D01*
G37*
D02*
G36*
X586Y692D02*
X586Y690D01*
X1384Y690D01*
X1384Y692D01*
X586Y692D01*
G37*
D02*
G36*
X586Y692D02*
X586Y690D01*
X1384Y690D01*
X1384Y692D01*
X586Y692D01*
G37*
D02*
G36*
X1776Y692D02*
X1776Y690D01*
X5666Y690D01*
X5666Y692D01*
X1776Y692D01*
G37*
D02*
G36*
X1776Y692D02*
X1776Y690D01*
X5666Y690D01*
X5666Y692D01*
X1776Y692D01*
G37*
D02*
G36*
X1776Y692D02*
X1776Y690D01*
X5666Y690D01*
X5666Y692D01*
X1776Y692D01*
G37*
D02*
G36*
X582Y690D02*
X582Y688D01*
X1384Y688D01*
X1384Y690D01*
X582Y690D01*
G37*
D02*
G36*
X1766Y690D02*
X1766Y688D01*
X5666Y688D01*
X5666Y690D01*
X1766Y690D01*
G37*
D02*
G36*
X576Y688D02*
X576Y686D01*
X5666Y686D01*
X5666Y688D01*
X576Y688D01*
G37*
D02*
G36*
X576Y688D02*
X576Y686D01*
X5666Y686D01*
X5666Y688D01*
X576Y688D01*
G37*
D02*
G36*
X576Y688D02*
X576Y686D01*
X5666Y686D01*
X5666Y688D01*
X576Y688D01*
G37*
D02*
G36*
X50Y686D02*
X50Y684D01*
X5666Y684D01*
X5666Y686D01*
X50Y686D01*
G37*
D02*
G36*
X50Y686D02*
X50Y684D01*
X5666Y684D01*
X5666Y686D01*
X50Y686D01*
G37*
D02*
G36*
X50Y686D02*
X50Y684D01*
X5666Y684D01*
X5666Y686D01*
X50Y686D01*
G37*
D02*
G36*
X50Y684D02*
X50Y646D01*
X578Y646D01*
X578Y644D01*
X586Y644D01*
X586Y642D01*
X4780Y642D01*
X4780Y640D01*
X4788Y640D01*
X4788Y638D01*
X5378Y638D01*
X5378Y636D01*
X5386Y636D01*
X5386Y634D01*
X5390Y634D01*
X5390Y632D01*
X5394Y632D01*
X5394Y630D01*
X5398Y630D01*
X5398Y628D01*
X5402Y628D01*
X5402Y626D01*
X5404Y626D01*
X5404Y624D01*
X5406Y624D01*
X5406Y622D01*
X5410Y622D01*
X5410Y620D01*
X5412Y620D01*
X5412Y618D01*
X5414Y618D01*
X5414Y616D01*
X5416Y616D01*
X5416Y612D01*
X5418Y612D01*
X5418Y610D01*
X5420Y610D01*
X5420Y608D01*
X5422Y608D01*
X5422Y606D01*
X5424Y606D01*
X5424Y602D01*
X5426Y602D01*
X5426Y598D01*
X5428Y598D01*
X5428Y594D01*
X5430Y594D01*
X5430Y588D01*
X5432Y588D01*
X5432Y548D01*
X5430Y548D01*
X5430Y542D01*
X5428Y542D01*
X5428Y538D01*
X5426Y538D01*
X5426Y534D01*
X5424Y534D01*
X5424Y532D01*
X5422Y532D01*
X5422Y528D01*
X5420Y528D01*
X5420Y508D01*
X5422Y508D01*
X5422Y506D01*
X5424Y506D01*
X5424Y502D01*
X5426Y502D01*
X5426Y498D01*
X5428Y498D01*
X5428Y494D01*
X5430Y494D01*
X5430Y488D01*
X5432Y488D01*
X5432Y448D01*
X5430Y448D01*
X5430Y442D01*
X5428Y442D01*
X5428Y438D01*
X5426Y438D01*
X5426Y436D01*
X5634Y436D01*
X5634Y384D01*
X5666Y384D01*
X5666Y684D01*
X50Y684D01*
G37*
D02*
G36*
X50Y646D02*
X50Y408D01*
X92Y408D01*
X92Y646D01*
X50Y646D01*
G37*
D02*
G36*
X232Y646D02*
X232Y408D01*
X542Y408D01*
X542Y410D01*
X536Y410D01*
X536Y412D01*
X532Y412D01*
X532Y414D01*
X528Y414D01*
X528Y416D01*
X524Y416D01*
X524Y418D01*
X522Y418D01*
X522Y420D01*
X520Y420D01*
X520Y422D01*
X516Y422D01*
X516Y424D01*
X514Y424D01*
X514Y426D01*
X512Y426D01*
X512Y428D01*
X510Y428D01*
X510Y430D01*
X508Y430D01*
X508Y434D01*
X506Y434D01*
X506Y436D01*
X504Y436D01*
X504Y438D01*
X502Y438D01*
X502Y442D01*
X500Y442D01*
X500Y444D01*
X498Y444D01*
X498Y448D01*
X496Y448D01*
X496Y454D01*
X494Y454D01*
X494Y460D01*
X492Y460D01*
X492Y492D01*
X494Y492D01*
X494Y500D01*
X496Y500D01*
X496Y504D01*
X498Y504D01*
X498Y508D01*
X500Y508D01*
X500Y512D01*
X502Y512D01*
X502Y516D01*
X504Y516D01*
X504Y538D01*
X502Y538D01*
X502Y542D01*
X500Y542D01*
X500Y544D01*
X498Y544D01*
X498Y548D01*
X496Y548D01*
X496Y554D01*
X494Y554D01*
X494Y560D01*
X492Y560D01*
X492Y592D01*
X494Y592D01*
X494Y600D01*
X496Y600D01*
X496Y604D01*
X498Y604D01*
X498Y608D01*
X500Y608D01*
X500Y612D01*
X502Y612D01*
X502Y616D01*
X504Y616D01*
X504Y618D01*
X506Y618D01*
X506Y620D01*
X508Y620D01*
X508Y622D01*
X510Y622D01*
X510Y624D01*
X512Y624D01*
X512Y626D01*
X514Y626D01*
X514Y628D01*
X516Y628D01*
X516Y630D01*
X518Y630D01*
X518Y632D01*
X520Y632D01*
X520Y634D01*
X522Y634D01*
X522Y636D01*
X526Y636D01*
X526Y638D01*
X530Y638D01*
X530Y640D01*
X534Y640D01*
X534Y642D01*
X538Y642D01*
X538Y644D01*
X544Y644D01*
X544Y646D01*
X232Y646D01*
G37*
D02*
G36*
X590Y642D02*
X590Y640D01*
X594Y640D01*
X594Y638D01*
X598Y638D01*
X598Y636D01*
X1170Y636D01*
X1170Y634D01*
X4180Y634D01*
X4180Y632D01*
X4186Y632D01*
X4186Y630D01*
X4192Y630D01*
X4192Y628D01*
X4196Y628D01*
X4196Y626D01*
X4198Y626D01*
X4198Y624D01*
X4202Y624D01*
X4202Y622D01*
X4204Y622D01*
X4204Y620D01*
X4208Y620D01*
X4208Y618D01*
X4210Y618D01*
X4210Y616D01*
X4212Y616D01*
X4212Y614D01*
X4214Y614D01*
X4214Y612D01*
X4216Y612D01*
X4216Y610D01*
X4218Y610D01*
X4218Y606D01*
X4220Y606D01*
X4220Y604D01*
X4222Y604D01*
X4222Y602D01*
X4224Y602D01*
X4224Y598D01*
X4226Y598D01*
X4226Y594D01*
X4228Y594D01*
X4228Y590D01*
X4230Y590D01*
X4230Y584D01*
X4232Y584D01*
X4232Y544D01*
X4230Y544D01*
X4230Y538D01*
X4228Y538D01*
X4228Y534D01*
X4226Y534D01*
X4226Y530D01*
X4224Y530D01*
X4224Y528D01*
X4222Y528D01*
X4222Y524D01*
X4220Y524D01*
X4220Y504D01*
X4222Y504D01*
X4222Y502D01*
X4224Y502D01*
X4224Y498D01*
X4226Y498D01*
X4226Y494D01*
X4228Y494D01*
X4228Y490D01*
X4230Y490D01*
X4230Y484D01*
X4232Y484D01*
X4232Y444D01*
X4230Y444D01*
X4230Y438D01*
X4228Y438D01*
X4228Y434D01*
X4226Y434D01*
X4226Y430D01*
X4224Y430D01*
X4224Y428D01*
X4222Y428D01*
X4222Y424D01*
X4220Y424D01*
X4220Y422D01*
X4218Y422D01*
X4218Y420D01*
X4216Y420D01*
X4216Y418D01*
X4214Y418D01*
X4214Y416D01*
X4212Y416D01*
X4212Y414D01*
X4210Y414D01*
X4210Y412D01*
X4208Y412D01*
X4208Y410D01*
X4206Y410D01*
X4206Y408D01*
X4204Y408D01*
X4204Y406D01*
X4200Y406D01*
X4200Y404D01*
X4198Y404D01*
X4198Y402D01*
X4298Y402D01*
X4298Y642D01*
X590Y642D01*
G37*
D02*
G36*
X4436Y642D02*
X4436Y402D01*
X4752Y402D01*
X4752Y404D01*
X4746Y404D01*
X4746Y406D01*
X4740Y406D01*
X4740Y408D01*
X4736Y408D01*
X4736Y410D01*
X4732Y410D01*
X4732Y412D01*
X4730Y412D01*
X4730Y414D01*
X4726Y414D01*
X4726Y416D01*
X4724Y416D01*
X4724Y418D01*
X4722Y418D01*
X4722Y420D01*
X4720Y420D01*
X4720Y422D01*
X4718Y422D01*
X4718Y424D01*
X4716Y424D01*
X4716Y426D01*
X4714Y426D01*
X4714Y428D01*
X4712Y428D01*
X4712Y430D01*
X4710Y430D01*
X4710Y432D01*
X4708Y432D01*
X4708Y436D01*
X4706Y436D01*
X4706Y440D01*
X4704Y440D01*
X4704Y442D01*
X4702Y442D01*
X4702Y448D01*
X4700Y448D01*
X4700Y454D01*
X4698Y454D01*
X4698Y490D01*
X4700Y490D01*
X4700Y496D01*
X4702Y496D01*
X4702Y500D01*
X4704Y500D01*
X4704Y504D01*
X4706Y504D01*
X4706Y508D01*
X4708Y508D01*
X4708Y510D01*
X4710Y510D01*
X4710Y532D01*
X4708Y532D01*
X4708Y536D01*
X4706Y536D01*
X4706Y540D01*
X4704Y540D01*
X4704Y542D01*
X4702Y542D01*
X4702Y548D01*
X4700Y548D01*
X4700Y554D01*
X4698Y554D01*
X4698Y590D01*
X4700Y590D01*
X4700Y596D01*
X4702Y596D01*
X4702Y600D01*
X4704Y600D01*
X4704Y604D01*
X4706Y604D01*
X4706Y608D01*
X4708Y608D01*
X4708Y610D01*
X4710Y610D01*
X4710Y614D01*
X4712Y614D01*
X4712Y616D01*
X4714Y616D01*
X4714Y618D01*
X4716Y618D01*
X4716Y620D01*
X4718Y620D01*
X4718Y622D01*
X4720Y622D01*
X4720Y624D01*
X4722Y624D01*
X4722Y626D01*
X4724Y626D01*
X4724Y628D01*
X4726Y628D01*
X4726Y630D01*
X4730Y630D01*
X4730Y632D01*
X4732Y632D01*
X4732Y634D01*
X4736Y634D01*
X4736Y636D01*
X4740Y636D01*
X4740Y638D01*
X4746Y638D01*
X4746Y640D01*
X4754Y640D01*
X4754Y642D01*
X4436Y642D01*
G37*
D02*
G36*
X4794Y638D02*
X4794Y636D01*
X4798Y636D01*
X4798Y634D01*
X4802Y634D01*
X4802Y632D01*
X4804Y632D01*
X4804Y630D01*
X4808Y630D01*
X4808Y628D01*
X4810Y628D01*
X4810Y626D01*
X4812Y626D01*
X4812Y624D01*
X4814Y624D01*
X4814Y622D01*
X4816Y622D01*
X4816Y620D01*
X4818Y620D01*
X4818Y618D01*
X4820Y618D01*
X4820Y616D01*
X4822Y616D01*
X4822Y614D01*
X4824Y614D01*
X4824Y612D01*
X4826Y612D01*
X4826Y608D01*
X4828Y608D01*
X4828Y604D01*
X4830Y604D01*
X4830Y602D01*
X4832Y602D01*
X4832Y596D01*
X4834Y596D01*
X4834Y590D01*
X4836Y590D01*
X4836Y554D01*
X4834Y554D01*
X4834Y548D01*
X4832Y548D01*
X4832Y542D01*
X4830Y542D01*
X4830Y538D01*
X4828Y538D01*
X4828Y536D01*
X4826Y536D01*
X4826Y532D01*
X4824Y532D01*
X4824Y512D01*
X4826Y512D01*
X4826Y508D01*
X4828Y508D01*
X4828Y504D01*
X4830Y504D01*
X4830Y502D01*
X4832Y502D01*
X4832Y496D01*
X4834Y496D01*
X4834Y490D01*
X4836Y490D01*
X4836Y454D01*
X4834Y454D01*
X4834Y448D01*
X4832Y448D01*
X4832Y442D01*
X4830Y442D01*
X4830Y438D01*
X4828Y438D01*
X4828Y436D01*
X4826Y436D01*
X4826Y432D01*
X4824Y432D01*
X4824Y430D01*
X4822Y430D01*
X4822Y428D01*
X4820Y428D01*
X4820Y426D01*
X4818Y426D01*
X4818Y424D01*
X4816Y424D01*
X4816Y422D01*
X4814Y422D01*
X4814Y420D01*
X4812Y420D01*
X4812Y418D01*
X4810Y418D01*
X4810Y416D01*
X4808Y416D01*
X4808Y414D01*
X4804Y414D01*
X4804Y412D01*
X4802Y412D01*
X4802Y410D01*
X4798Y410D01*
X4798Y408D01*
X4794Y408D01*
X4794Y406D01*
X4790Y406D01*
X4790Y404D01*
X4782Y404D01*
X4782Y402D01*
X4894Y402D01*
X4894Y638D01*
X4794Y638D01*
G37*
D02*
G36*
X5032Y638D02*
X5032Y398D01*
X5352Y398D01*
X5352Y400D01*
X5342Y400D01*
X5342Y402D01*
X5336Y402D01*
X5336Y404D01*
X5332Y404D01*
X5332Y406D01*
X5330Y406D01*
X5330Y408D01*
X5326Y408D01*
X5326Y410D01*
X5324Y410D01*
X5324Y412D01*
X5320Y412D01*
X5320Y414D01*
X5318Y414D01*
X5318Y416D01*
X5316Y416D01*
X5316Y418D01*
X5314Y418D01*
X5314Y420D01*
X5312Y420D01*
X5312Y422D01*
X5310Y422D01*
X5310Y424D01*
X5308Y424D01*
X5308Y426D01*
X5306Y426D01*
X5306Y430D01*
X5304Y430D01*
X5304Y432D01*
X5302Y432D01*
X5302Y436D01*
X5300Y436D01*
X5300Y440D01*
X5298Y440D01*
X5298Y444D01*
X5296Y444D01*
X5296Y452D01*
X5294Y452D01*
X5294Y484D01*
X5296Y484D01*
X5296Y492D01*
X5298Y492D01*
X5298Y496D01*
X5300Y496D01*
X5300Y500D01*
X5302Y500D01*
X5302Y504D01*
X5304Y504D01*
X5304Y506D01*
X5306Y506D01*
X5306Y530D01*
X5304Y530D01*
X5304Y532D01*
X5302Y532D01*
X5302Y536D01*
X5300Y536D01*
X5300Y540D01*
X5298Y540D01*
X5298Y544D01*
X5296Y544D01*
X5296Y552D01*
X5294Y552D01*
X5294Y584D01*
X5296Y584D01*
X5296Y592D01*
X5298Y592D01*
X5298Y596D01*
X5300Y596D01*
X5300Y600D01*
X5302Y600D01*
X5302Y604D01*
X5304Y604D01*
X5304Y606D01*
X5306Y606D01*
X5306Y610D01*
X5308Y610D01*
X5308Y612D01*
X5310Y612D01*
X5310Y614D01*
X5312Y614D01*
X5312Y616D01*
X5314Y616D01*
X5314Y618D01*
X5316Y618D01*
X5316Y620D01*
X5318Y620D01*
X5318Y622D01*
X5320Y622D01*
X5320Y624D01*
X5322Y624D01*
X5322Y626D01*
X5326Y626D01*
X5326Y628D01*
X5328Y628D01*
X5328Y630D01*
X5332Y630D01*
X5332Y632D01*
X5336Y632D01*
X5336Y634D01*
X5342Y634D01*
X5342Y636D01*
X5348Y636D01*
X5348Y638D01*
X5032Y638D01*
G37*
D02*
G36*
X600Y636D02*
X600Y634D01*
X604Y634D01*
X604Y632D01*
X606Y632D01*
X606Y630D01*
X608Y630D01*
X608Y628D01*
X610Y628D01*
X610Y626D01*
X612Y626D01*
X612Y624D01*
X614Y624D01*
X614Y622D01*
X616Y622D01*
X616Y620D01*
X618Y620D01*
X618Y616D01*
X620Y616D01*
X620Y614D01*
X622Y614D01*
X622Y610D01*
X624Y610D01*
X624Y606D01*
X626Y606D01*
X626Y602D01*
X628Y602D01*
X628Y598D01*
X630Y598D01*
X630Y586D01*
X632Y586D01*
X632Y568D01*
X630Y568D01*
X630Y556D01*
X628Y556D01*
X628Y550D01*
X626Y550D01*
X626Y546D01*
X624Y546D01*
X624Y542D01*
X622Y542D01*
X622Y540D01*
X620Y540D01*
X620Y536D01*
X618Y536D01*
X618Y516D01*
X620Y516D01*
X620Y514D01*
X622Y514D01*
X622Y510D01*
X624Y510D01*
X624Y506D01*
X626Y506D01*
X626Y502D01*
X628Y502D01*
X628Y498D01*
X630Y498D01*
X630Y486D01*
X632Y486D01*
X632Y468D01*
X630Y468D01*
X630Y456D01*
X628Y456D01*
X628Y450D01*
X626Y450D01*
X626Y446D01*
X624Y446D01*
X624Y442D01*
X622Y442D01*
X622Y440D01*
X620Y440D01*
X620Y436D01*
X618Y436D01*
X618Y434D01*
X616Y434D01*
X616Y432D01*
X614Y432D01*
X614Y430D01*
X612Y430D01*
X612Y428D01*
X610Y428D01*
X610Y426D01*
X608Y426D01*
X608Y424D01*
X606Y424D01*
X606Y422D01*
X604Y422D01*
X604Y420D01*
X602Y420D01*
X602Y418D01*
X598Y418D01*
X598Y416D01*
X596Y416D01*
X596Y414D01*
X592Y414D01*
X592Y412D01*
X586Y412D01*
X586Y410D01*
X582Y410D01*
X582Y408D01*
X692Y408D01*
X692Y636D01*
X600Y636D01*
G37*
D02*
G36*
X830Y636D02*
X830Y634D01*
X832Y634D01*
X832Y396D01*
X1146Y396D01*
X1146Y398D01*
X1138Y398D01*
X1138Y400D01*
X1134Y400D01*
X1134Y402D01*
X1130Y402D01*
X1130Y404D01*
X1126Y404D01*
X1126Y406D01*
X1124Y406D01*
X1124Y408D01*
X1120Y408D01*
X1120Y410D01*
X1118Y410D01*
X1118Y412D01*
X1116Y412D01*
X1116Y414D01*
X1114Y414D01*
X1114Y416D01*
X1112Y416D01*
X1112Y418D01*
X1110Y418D01*
X1110Y420D01*
X1108Y420D01*
X1108Y422D01*
X1106Y422D01*
X1106Y424D01*
X1104Y424D01*
X1104Y428D01*
X1102Y428D01*
X1102Y430D01*
X1100Y430D01*
X1100Y434D01*
X1098Y434D01*
X1098Y438D01*
X1096Y438D01*
X1096Y442D01*
X1094Y442D01*
X1094Y450D01*
X1092Y450D01*
X1092Y482D01*
X1094Y482D01*
X1094Y488D01*
X1096Y488D01*
X1096Y494D01*
X1098Y494D01*
X1098Y498D01*
X1100Y498D01*
X1100Y500D01*
X1102Y500D01*
X1102Y504D01*
X1104Y504D01*
X1104Y528D01*
X1102Y528D01*
X1102Y530D01*
X1100Y530D01*
X1100Y534D01*
X1098Y534D01*
X1098Y538D01*
X1096Y538D01*
X1096Y542D01*
X1094Y542D01*
X1094Y550D01*
X1092Y550D01*
X1092Y582D01*
X1094Y582D01*
X1094Y588D01*
X1096Y588D01*
X1096Y594D01*
X1098Y594D01*
X1098Y598D01*
X1100Y598D01*
X1100Y600D01*
X1102Y600D01*
X1102Y604D01*
X1104Y604D01*
X1104Y606D01*
X1106Y606D01*
X1106Y610D01*
X1108Y610D01*
X1108Y612D01*
X1110Y612D01*
X1110Y614D01*
X1112Y614D01*
X1112Y616D01*
X1114Y616D01*
X1114Y618D01*
X1116Y618D01*
X1116Y620D01*
X1118Y620D01*
X1118Y622D01*
X1122Y622D01*
X1122Y624D01*
X1124Y624D01*
X1124Y626D01*
X1128Y626D01*
X1128Y628D01*
X1132Y628D01*
X1132Y630D01*
X1136Y630D01*
X1136Y632D01*
X1142Y632D01*
X1142Y634D01*
X1152Y634D01*
X1152Y636D01*
X830Y636D01*
G37*
D02*
G36*
X1182Y634D02*
X1182Y632D01*
X1770Y632D01*
X1770Y630D01*
X1780Y630D01*
X1780Y628D01*
X1784Y628D01*
X1784Y626D01*
X1788Y626D01*
X1788Y624D01*
X1792Y624D01*
X1792Y622D01*
X1796Y622D01*
X1796Y620D01*
X1798Y620D01*
X1798Y618D01*
X1800Y618D01*
X1800Y616D01*
X1804Y616D01*
X1804Y614D01*
X1806Y614D01*
X1806Y612D01*
X1808Y612D01*
X1808Y610D01*
X1810Y610D01*
X1810Y608D01*
X1812Y608D01*
X1812Y604D01*
X1814Y604D01*
X1814Y602D01*
X1816Y602D01*
X1816Y600D01*
X1818Y600D01*
X1818Y596D01*
X1820Y596D01*
X1820Y592D01*
X1822Y592D01*
X1822Y588D01*
X1824Y588D01*
X1824Y584D01*
X1826Y584D01*
X1826Y574D01*
X1828Y574D01*
X1828Y550D01*
X1826Y550D01*
X1826Y540D01*
X1824Y540D01*
X1824Y536D01*
X1822Y536D01*
X1822Y532D01*
X1820Y532D01*
X1820Y528D01*
X1818Y528D01*
X1818Y524D01*
X1816Y524D01*
X1816Y522D01*
X1814Y522D01*
X1814Y502D01*
X1816Y502D01*
X1816Y500D01*
X1818Y500D01*
X1818Y496D01*
X1820Y496D01*
X1820Y492D01*
X1822Y492D01*
X1822Y488D01*
X1824Y488D01*
X1824Y484D01*
X1826Y484D01*
X1826Y474D01*
X1828Y474D01*
X1828Y450D01*
X1826Y450D01*
X1826Y442D01*
X3660Y442D01*
X3660Y440D01*
X3666Y440D01*
X3666Y438D01*
X3672Y438D01*
X3672Y436D01*
X3694Y436D01*
X3694Y634D01*
X1182Y634D01*
G37*
D02*
G36*
X3832Y634D02*
X3832Y394D01*
X4156Y394D01*
X4156Y396D01*
X4144Y396D01*
X4144Y398D01*
X4138Y398D01*
X4138Y400D01*
X4134Y400D01*
X4134Y402D01*
X4130Y402D01*
X4130Y404D01*
X4126Y404D01*
X4126Y406D01*
X4124Y406D01*
X4124Y408D01*
X4120Y408D01*
X4120Y410D01*
X4118Y410D01*
X4118Y412D01*
X4116Y412D01*
X4116Y414D01*
X4114Y414D01*
X4114Y416D01*
X4112Y416D01*
X4112Y418D01*
X4110Y418D01*
X4110Y420D01*
X4108Y420D01*
X4108Y424D01*
X4106Y424D01*
X4106Y426D01*
X4104Y426D01*
X4104Y428D01*
X4102Y428D01*
X4102Y432D01*
X4100Y432D01*
X4100Y436D01*
X4098Y436D01*
X4098Y440D01*
X4096Y440D01*
X4096Y448D01*
X4094Y448D01*
X4094Y482D01*
X4096Y482D01*
X4096Y488D01*
X4098Y488D01*
X4098Y492D01*
X4100Y492D01*
X4100Y496D01*
X4102Y496D01*
X4102Y500D01*
X4104Y500D01*
X4104Y504D01*
X4106Y504D01*
X4106Y526D01*
X4104Y526D01*
X4104Y528D01*
X4102Y528D01*
X4102Y532D01*
X4100Y532D01*
X4100Y536D01*
X4098Y536D01*
X4098Y540D01*
X4096Y540D01*
X4096Y548D01*
X4094Y548D01*
X4094Y582D01*
X4096Y582D01*
X4096Y588D01*
X4098Y588D01*
X4098Y592D01*
X4100Y592D01*
X4100Y596D01*
X4102Y596D01*
X4102Y600D01*
X4104Y600D01*
X4104Y604D01*
X4106Y604D01*
X4106Y606D01*
X4108Y606D01*
X4108Y608D01*
X4110Y608D01*
X4110Y610D01*
X4112Y610D01*
X4112Y612D01*
X4114Y612D01*
X4114Y614D01*
X4116Y614D01*
X4116Y616D01*
X4118Y616D01*
X4118Y618D01*
X4120Y618D01*
X4120Y620D01*
X4122Y620D01*
X4122Y622D01*
X4124Y622D01*
X4124Y624D01*
X4128Y624D01*
X4128Y626D01*
X4132Y626D01*
X4132Y628D01*
X4136Y628D01*
X4136Y630D01*
X4140Y630D01*
X4140Y632D01*
X4148Y632D01*
X4148Y634D01*
X3832Y634D01*
G37*
D02*
G36*
X1188Y632D02*
X1188Y630D01*
X1192Y630D01*
X1192Y628D01*
X1196Y628D01*
X1196Y626D01*
X1198Y626D01*
X1198Y624D01*
X1202Y624D01*
X1202Y622D01*
X1204Y622D01*
X1204Y620D01*
X1206Y620D01*
X1206Y618D01*
X1208Y618D01*
X1208Y616D01*
X1210Y616D01*
X1210Y614D01*
X1212Y614D01*
X1212Y612D01*
X1214Y612D01*
X1214Y610D01*
X1216Y610D01*
X1216Y608D01*
X1218Y608D01*
X1218Y606D01*
X1220Y606D01*
X1220Y602D01*
X1222Y602D01*
X1222Y600D01*
X1224Y600D01*
X1224Y596D01*
X1226Y596D01*
X1226Y592D01*
X1228Y592D01*
X1228Y586D01*
X1230Y586D01*
X1230Y576D01*
X1232Y576D01*
X1232Y556D01*
X1230Y556D01*
X1230Y546D01*
X1228Y546D01*
X1228Y540D01*
X1226Y540D01*
X1226Y536D01*
X1224Y536D01*
X1224Y532D01*
X1222Y532D01*
X1222Y528D01*
X1220Y528D01*
X1220Y526D01*
X1218Y526D01*
X1218Y506D01*
X1220Y506D01*
X1220Y502D01*
X1222Y502D01*
X1222Y500D01*
X1224Y500D01*
X1224Y496D01*
X1226Y496D01*
X1226Y492D01*
X1228Y492D01*
X1228Y486D01*
X1230Y486D01*
X1230Y476D01*
X1232Y476D01*
X1232Y456D01*
X1230Y456D01*
X1230Y446D01*
X1228Y446D01*
X1228Y440D01*
X1226Y440D01*
X1226Y436D01*
X1224Y436D01*
X1224Y432D01*
X1222Y432D01*
X1222Y428D01*
X1220Y428D01*
X1220Y426D01*
X1218Y426D01*
X1218Y422D01*
X1216Y422D01*
X1216Y420D01*
X1214Y420D01*
X1214Y418D01*
X1212Y418D01*
X1212Y416D01*
X1210Y416D01*
X1210Y414D01*
X1208Y414D01*
X1208Y412D01*
X1206Y412D01*
X1206Y410D01*
X1202Y410D01*
X1202Y408D01*
X1200Y408D01*
X1200Y406D01*
X1196Y406D01*
X1196Y404D01*
X1194Y404D01*
X1194Y402D01*
X1190Y402D01*
X1190Y400D01*
X1184Y400D01*
X1184Y398D01*
X1178Y398D01*
X1178Y396D01*
X1288Y396D01*
X1288Y632D01*
X1188Y632D01*
G37*
D02*
G36*
X1426Y632D02*
X1426Y630D01*
X1428Y630D01*
X1428Y392D01*
X1744Y392D01*
X1744Y394D01*
X1736Y394D01*
X1736Y396D01*
X1730Y396D01*
X1730Y398D01*
X1726Y398D01*
X1726Y400D01*
X1724Y400D01*
X1724Y402D01*
X1720Y402D01*
X1720Y404D01*
X1718Y404D01*
X1718Y406D01*
X1714Y406D01*
X1714Y408D01*
X1712Y408D01*
X1712Y410D01*
X1710Y410D01*
X1710Y412D01*
X1708Y412D01*
X1708Y414D01*
X1706Y414D01*
X1706Y416D01*
X1704Y416D01*
X1704Y418D01*
X1702Y418D01*
X1702Y422D01*
X1700Y422D01*
X1700Y424D01*
X1698Y424D01*
X1698Y428D01*
X1696Y428D01*
X1696Y430D01*
X1694Y430D01*
X1694Y434D01*
X1692Y434D01*
X1692Y440D01*
X1690Y440D01*
X1690Y448D01*
X1688Y448D01*
X1688Y476D01*
X1690Y476D01*
X1690Y484D01*
X1692Y484D01*
X1692Y490D01*
X1694Y490D01*
X1694Y494D01*
X1696Y494D01*
X1696Y496D01*
X1698Y496D01*
X1698Y500D01*
X1700Y500D01*
X1700Y502D01*
X1702Y502D01*
X1702Y522D01*
X1700Y522D01*
X1700Y524D01*
X1698Y524D01*
X1698Y528D01*
X1696Y528D01*
X1696Y530D01*
X1694Y530D01*
X1694Y534D01*
X1692Y534D01*
X1692Y540D01*
X1690Y540D01*
X1690Y548D01*
X1688Y548D01*
X1688Y576D01*
X1690Y576D01*
X1690Y584D01*
X1692Y584D01*
X1692Y590D01*
X1694Y590D01*
X1694Y594D01*
X1696Y594D01*
X1696Y596D01*
X1698Y596D01*
X1698Y600D01*
X1700Y600D01*
X1700Y602D01*
X1702Y602D01*
X1702Y606D01*
X1704Y606D01*
X1704Y608D01*
X1706Y608D01*
X1706Y610D01*
X1708Y610D01*
X1708Y612D01*
X1710Y612D01*
X1710Y614D01*
X1712Y614D01*
X1712Y616D01*
X1714Y616D01*
X1714Y618D01*
X1718Y618D01*
X1718Y620D01*
X1720Y620D01*
X1720Y622D01*
X1724Y622D01*
X1724Y624D01*
X1728Y624D01*
X1728Y626D01*
X1732Y626D01*
X1732Y628D01*
X1736Y628D01*
X1736Y630D01*
X1746Y630D01*
X1746Y632D01*
X1426Y632D01*
G37*
D02*
G36*
X1826Y442D02*
X1826Y440D01*
X1852Y440D01*
X1852Y442D01*
X1826Y442D01*
G37*
D02*
G36*
X1882Y442D02*
X1882Y440D01*
X1890Y440D01*
X1890Y438D01*
X1894Y438D01*
X1894Y436D01*
X1898Y436D01*
X1898Y434D01*
X1902Y434D01*
X1902Y432D01*
X1906Y432D01*
X1906Y430D01*
X1928Y430D01*
X1928Y432D01*
X1932Y432D01*
X1932Y434D01*
X1936Y434D01*
X1936Y436D01*
X1940Y436D01*
X1940Y438D01*
X1944Y438D01*
X1944Y440D01*
X1952Y440D01*
X1952Y442D01*
X1882Y442D01*
G37*
D02*
G36*
X1982Y442D02*
X1982Y440D01*
X1990Y440D01*
X1990Y438D01*
X1994Y438D01*
X1994Y436D01*
X1998Y436D01*
X1998Y434D01*
X2002Y434D01*
X2002Y432D01*
X2006Y432D01*
X2006Y430D01*
X2028Y430D01*
X2028Y432D01*
X2032Y432D01*
X2032Y434D01*
X2036Y434D01*
X2036Y436D01*
X2040Y436D01*
X2040Y438D01*
X2044Y438D01*
X2044Y440D01*
X2052Y440D01*
X2052Y442D01*
X1982Y442D01*
G37*
D02*
G36*
X2082Y442D02*
X2082Y440D01*
X2090Y440D01*
X2090Y438D01*
X2094Y438D01*
X2094Y436D01*
X2098Y436D01*
X2098Y434D01*
X2102Y434D01*
X2102Y432D01*
X2106Y432D01*
X2106Y430D01*
X2128Y430D01*
X2128Y432D01*
X2132Y432D01*
X2132Y434D01*
X2136Y434D01*
X2136Y436D01*
X2140Y436D01*
X2140Y438D01*
X2144Y438D01*
X2144Y440D01*
X2152Y440D01*
X2152Y442D01*
X2082Y442D01*
G37*
D02*
G36*
X2182Y442D02*
X2182Y440D01*
X2190Y440D01*
X2190Y438D01*
X2194Y438D01*
X2194Y436D01*
X2198Y436D01*
X2198Y434D01*
X2202Y434D01*
X2202Y432D01*
X2206Y432D01*
X2206Y430D01*
X2228Y430D01*
X2228Y432D01*
X2232Y432D01*
X2232Y434D01*
X2236Y434D01*
X2236Y436D01*
X2240Y436D01*
X2240Y438D01*
X2244Y438D01*
X2244Y440D01*
X2252Y440D01*
X2252Y442D01*
X2182Y442D01*
G37*
D02*
G36*
X2282Y442D02*
X2282Y440D01*
X2290Y440D01*
X2290Y438D01*
X2294Y438D01*
X2294Y436D01*
X2298Y436D01*
X2298Y434D01*
X2302Y434D01*
X2302Y432D01*
X2306Y432D01*
X2306Y430D01*
X2328Y430D01*
X2328Y432D01*
X2332Y432D01*
X2332Y434D01*
X2336Y434D01*
X2336Y436D01*
X2340Y436D01*
X2340Y438D01*
X2344Y438D01*
X2344Y440D01*
X2352Y440D01*
X2352Y442D01*
X2282Y442D01*
G37*
D02*
G36*
X2382Y442D02*
X2382Y440D01*
X2390Y440D01*
X2390Y438D01*
X2394Y438D01*
X2394Y436D01*
X2398Y436D01*
X2398Y434D01*
X2402Y434D01*
X2402Y432D01*
X2406Y432D01*
X2406Y430D01*
X2428Y430D01*
X2428Y432D01*
X2432Y432D01*
X2432Y434D01*
X2436Y434D01*
X2436Y436D01*
X2440Y436D01*
X2440Y438D01*
X2444Y438D01*
X2444Y440D01*
X2452Y440D01*
X2452Y442D01*
X2382Y442D01*
G37*
D02*
G36*
X2482Y442D02*
X2482Y440D01*
X2490Y440D01*
X2490Y438D01*
X2494Y438D01*
X2494Y436D01*
X2498Y436D01*
X2498Y434D01*
X2502Y434D01*
X2502Y432D01*
X2506Y432D01*
X2506Y430D01*
X2528Y430D01*
X2528Y432D01*
X2532Y432D01*
X2532Y434D01*
X2536Y434D01*
X2536Y436D01*
X2540Y436D01*
X2540Y438D01*
X2544Y438D01*
X2544Y440D01*
X2552Y440D01*
X2552Y442D01*
X2482Y442D01*
G37*
D02*
G36*
X2582Y442D02*
X2582Y440D01*
X2590Y440D01*
X2590Y438D01*
X2594Y438D01*
X2594Y436D01*
X2598Y436D01*
X2598Y434D01*
X2602Y434D01*
X2602Y432D01*
X2606Y432D01*
X2606Y430D01*
X2608Y430D01*
X2608Y428D01*
X2610Y428D01*
X2610Y426D01*
X2614Y426D01*
X2614Y424D01*
X2616Y424D01*
X2616Y422D01*
X2618Y422D01*
X2618Y420D01*
X2620Y420D01*
X2620Y416D01*
X2622Y416D01*
X2622Y414D01*
X2624Y414D01*
X2624Y412D01*
X2626Y412D01*
X2626Y408D01*
X2628Y408D01*
X2628Y406D01*
X2630Y406D01*
X2630Y402D01*
X2632Y402D01*
X2632Y398D01*
X2634Y398D01*
X2634Y392D01*
X2636Y392D01*
X2636Y352D01*
X2634Y352D01*
X2634Y346D01*
X2632Y346D01*
X2632Y342D01*
X2630Y342D01*
X2630Y338D01*
X2628Y338D01*
X2628Y334D01*
X2626Y334D01*
X2626Y332D01*
X2624Y332D01*
X2624Y330D01*
X2622Y330D01*
X2622Y326D01*
X2620Y326D01*
X2620Y324D01*
X2618Y324D01*
X2618Y322D01*
X2616Y322D01*
X2616Y320D01*
X2614Y320D01*
X2614Y318D01*
X2610Y318D01*
X2610Y316D01*
X2608Y316D01*
X2608Y314D01*
X2606Y314D01*
X2606Y312D01*
X2602Y312D01*
X2602Y310D01*
X2600Y310D01*
X2600Y308D01*
X2596Y308D01*
X2596Y306D01*
X2590Y306D01*
X2590Y304D01*
X2584Y304D01*
X2584Y302D01*
X2720Y302D01*
X2720Y304D01*
X2714Y304D01*
X2714Y306D01*
X2708Y306D01*
X2708Y308D01*
X2704Y308D01*
X2704Y310D01*
X2702Y310D01*
X2702Y312D01*
X2698Y312D01*
X2698Y314D01*
X2696Y314D01*
X2696Y316D01*
X2694Y316D01*
X2694Y318D01*
X2690Y318D01*
X2690Y320D01*
X2688Y320D01*
X2688Y322D01*
X2686Y322D01*
X2686Y324D01*
X2684Y324D01*
X2684Y328D01*
X2682Y328D01*
X2682Y330D01*
X2680Y330D01*
X2680Y332D01*
X2678Y332D01*
X2678Y336D01*
X2676Y336D01*
X2676Y338D01*
X2674Y338D01*
X2674Y342D01*
X2672Y342D01*
X2672Y346D01*
X2670Y346D01*
X2670Y352D01*
X2668Y352D01*
X2668Y392D01*
X2670Y392D01*
X2670Y398D01*
X2672Y398D01*
X2672Y402D01*
X2674Y402D01*
X2674Y406D01*
X2676Y406D01*
X2676Y408D01*
X2678Y408D01*
X2678Y412D01*
X2680Y412D01*
X2680Y414D01*
X2682Y414D01*
X2682Y416D01*
X2684Y416D01*
X2684Y418D01*
X2686Y418D01*
X2686Y422D01*
X2688Y422D01*
X2688Y424D01*
X2692Y424D01*
X2692Y426D01*
X2694Y426D01*
X2694Y428D01*
X2696Y428D01*
X2696Y430D01*
X2698Y430D01*
X2698Y432D01*
X2702Y432D01*
X2702Y434D01*
X2706Y434D01*
X2706Y436D01*
X2710Y436D01*
X2710Y438D01*
X2714Y438D01*
X2714Y440D01*
X2722Y440D01*
X2722Y442D01*
X2582Y442D01*
G37*
D02*
G36*
X2752Y442D02*
X2752Y440D01*
X2760Y440D01*
X2760Y438D01*
X2764Y438D01*
X2764Y436D01*
X2768Y436D01*
X2768Y434D01*
X2772Y434D01*
X2772Y432D01*
X2776Y432D01*
X2776Y430D01*
X2798Y430D01*
X2798Y432D01*
X2802Y432D01*
X2802Y434D01*
X2806Y434D01*
X2806Y436D01*
X2810Y436D01*
X2810Y438D01*
X2814Y438D01*
X2814Y440D01*
X2822Y440D01*
X2822Y442D01*
X2752Y442D01*
G37*
D02*
G36*
X2852Y442D02*
X2852Y440D01*
X2860Y440D01*
X2860Y438D01*
X2864Y438D01*
X2864Y436D01*
X2868Y436D01*
X2868Y434D01*
X2872Y434D01*
X2872Y432D01*
X2876Y432D01*
X2876Y430D01*
X2898Y430D01*
X2898Y432D01*
X2902Y432D01*
X2902Y434D01*
X2906Y434D01*
X2906Y436D01*
X2910Y436D01*
X2910Y438D01*
X2914Y438D01*
X2914Y440D01*
X2922Y440D01*
X2922Y442D01*
X2852Y442D01*
G37*
D02*
G36*
X2952Y442D02*
X2952Y440D01*
X2960Y440D01*
X2960Y438D01*
X2964Y438D01*
X2964Y436D01*
X2968Y436D01*
X2968Y434D01*
X2972Y434D01*
X2972Y432D01*
X2976Y432D01*
X2976Y430D01*
X2998Y430D01*
X2998Y432D01*
X3002Y432D01*
X3002Y434D01*
X3006Y434D01*
X3006Y436D01*
X3010Y436D01*
X3010Y438D01*
X3014Y438D01*
X3014Y440D01*
X3022Y440D01*
X3022Y442D01*
X2952Y442D01*
G37*
D02*
G36*
X3052Y442D02*
X3052Y440D01*
X3060Y440D01*
X3060Y438D01*
X3064Y438D01*
X3064Y436D01*
X3068Y436D01*
X3068Y434D01*
X3072Y434D01*
X3072Y432D01*
X3076Y432D01*
X3076Y430D01*
X3098Y430D01*
X3098Y432D01*
X3102Y432D01*
X3102Y434D01*
X3106Y434D01*
X3106Y436D01*
X3110Y436D01*
X3110Y438D01*
X3114Y438D01*
X3114Y440D01*
X3122Y440D01*
X3122Y442D01*
X3052Y442D01*
G37*
D02*
G36*
X3152Y442D02*
X3152Y440D01*
X3160Y440D01*
X3160Y438D01*
X3164Y438D01*
X3164Y436D01*
X3168Y436D01*
X3168Y434D01*
X3172Y434D01*
X3172Y432D01*
X3176Y432D01*
X3176Y430D01*
X3198Y430D01*
X3198Y432D01*
X3202Y432D01*
X3202Y434D01*
X3206Y434D01*
X3206Y436D01*
X3210Y436D01*
X3210Y438D01*
X3214Y438D01*
X3214Y440D01*
X3222Y440D01*
X3222Y442D01*
X3152Y442D01*
G37*
D02*
G36*
X3252Y442D02*
X3252Y440D01*
X3360Y440D01*
X3360Y438D01*
X3364Y438D01*
X3364Y436D01*
X3368Y436D01*
X3368Y434D01*
X3372Y434D01*
X3372Y432D01*
X3376Y432D01*
X3376Y430D01*
X3398Y430D01*
X3398Y432D01*
X3402Y432D01*
X3402Y434D01*
X3406Y434D01*
X3406Y436D01*
X3410Y436D01*
X3410Y438D01*
X3414Y438D01*
X3414Y440D01*
X3422Y440D01*
X3422Y442D01*
X3252Y442D01*
G37*
D02*
G36*
X3452Y442D02*
X3452Y440D01*
X3460Y440D01*
X3460Y438D01*
X3464Y438D01*
X3464Y436D01*
X3468Y436D01*
X3468Y434D01*
X3472Y434D01*
X3472Y432D01*
X3476Y432D01*
X3476Y430D01*
X3478Y430D01*
X3478Y428D01*
X3480Y428D01*
X3480Y426D01*
X3500Y426D01*
X3500Y428D01*
X3504Y428D01*
X3504Y430D01*
X3506Y430D01*
X3506Y432D01*
X3508Y432D01*
X3508Y434D01*
X3512Y434D01*
X3512Y436D01*
X3516Y436D01*
X3516Y438D01*
X3522Y438D01*
X3522Y440D01*
X3528Y440D01*
X3528Y442D01*
X3452Y442D01*
G37*
D02*
G36*
X3560Y442D02*
X3560Y440D01*
X3566Y440D01*
X3566Y438D01*
X3572Y438D01*
X3572Y436D01*
X3576Y436D01*
X3576Y434D01*
X3580Y434D01*
X3580Y432D01*
X3582Y432D01*
X3582Y430D01*
X3606Y430D01*
X3606Y432D01*
X3608Y432D01*
X3608Y434D01*
X3612Y434D01*
X3612Y436D01*
X3616Y436D01*
X3616Y438D01*
X3622Y438D01*
X3622Y440D01*
X3628Y440D01*
X3628Y442D01*
X3560Y442D01*
G37*
D02*
G36*
X3260Y440D02*
X3260Y438D01*
X3264Y438D01*
X3264Y436D01*
X3268Y436D01*
X3268Y434D01*
X3272Y434D01*
X3272Y432D01*
X3276Y432D01*
X3276Y430D01*
X3298Y430D01*
X3298Y432D01*
X3302Y432D01*
X3302Y434D01*
X3306Y434D01*
X3306Y436D01*
X3310Y436D01*
X3310Y438D01*
X3314Y438D01*
X3314Y440D01*
X3260Y440D01*
G37*
D02*
G36*
X3318Y440D02*
X3318Y388D01*
X3356Y388D01*
X3356Y440D01*
X3318Y440D01*
G37*
D02*
G36*
X5426Y436D02*
X5426Y434D01*
X5424Y434D01*
X5424Y432D01*
X5422Y432D01*
X5422Y428D01*
X5420Y428D01*
X5420Y426D01*
X5418Y426D01*
X5418Y424D01*
X5416Y424D01*
X5416Y422D01*
X5414Y422D01*
X5414Y418D01*
X5410Y418D01*
X5410Y416D01*
X5408Y416D01*
X5408Y414D01*
X5406Y414D01*
X5406Y412D01*
X5404Y412D01*
X5404Y410D01*
X5400Y410D01*
X5400Y408D01*
X5398Y408D01*
X5398Y406D01*
X5394Y406D01*
X5394Y404D01*
X5390Y404D01*
X5390Y402D01*
X5384Y402D01*
X5384Y400D01*
X5376Y400D01*
X5376Y398D01*
X5492Y398D01*
X5492Y436D01*
X5426Y436D01*
G37*
D02*
G36*
X5542Y436D02*
X5542Y384D01*
X5580Y384D01*
X5580Y436D01*
X5542Y436D01*
G37*
D02*
G36*
X50Y408D02*
X50Y406D01*
X692Y406D01*
X692Y408D01*
X50Y408D01*
G37*
D02*
G36*
X50Y408D02*
X50Y406D01*
X692Y406D01*
X692Y408D01*
X50Y408D01*
G37*
D02*
G36*
X50Y408D02*
X50Y406D01*
X692Y406D01*
X692Y408D01*
X50Y408D01*
G37*
D02*
G36*
X50Y406D02*
X50Y396D01*
X692Y396D01*
X692Y406D01*
X50Y406D01*
G37*
D02*
G36*
X4194Y402D02*
X4194Y400D01*
X4894Y400D01*
X4894Y402D01*
X4194Y402D01*
G37*
D02*
G36*
X4194Y402D02*
X4194Y400D01*
X4894Y400D01*
X4894Y402D01*
X4194Y402D01*
G37*
D02*
G36*
X4194Y402D02*
X4194Y400D01*
X4894Y400D01*
X4894Y402D01*
X4194Y402D01*
G37*
D02*
G36*
X4190Y400D02*
X4190Y398D01*
X4894Y398D01*
X4894Y400D01*
X4190Y400D01*
G37*
D02*
G36*
X4184Y398D02*
X4184Y396D01*
X5492Y396D01*
X5492Y398D01*
X4184Y398D01*
G37*
D02*
G36*
X4184Y398D02*
X4184Y396D01*
X5492Y396D01*
X5492Y398D01*
X4184Y398D01*
G37*
D02*
G36*
X4184Y398D02*
X4184Y396D01*
X5492Y396D01*
X5492Y398D01*
X4184Y398D01*
G37*
D02*
G36*
X50Y396D02*
X50Y394D01*
X1288Y394D01*
X1288Y396D01*
X50Y396D01*
G37*
D02*
G36*
X50Y396D02*
X50Y394D01*
X1288Y394D01*
X1288Y396D01*
X50Y396D01*
G37*
D02*
G36*
X50Y396D02*
X50Y394D01*
X1288Y394D01*
X1288Y396D01*
X50Y396D01*
G37*
D02*
G36*
X4172Y396D02*
X4172Y394D01*
X5492Y394D01*
X5492Y396D01*
X4172Y396D01*
G37*
D02*
G36*
X50Y394D02*
X50Y392D01*
X1288Y392D01*
X1288Y394D01*
X50Y394D01*
G37*
D02*
G36*
X1772Y394D02*
X1772Y392D01*
X1798Y392D01*
X1798Y394D01*
X1772Y394D01*
G37*
D02*
G36*
X3714Y394D02*
X3714Y392D01*
X5492Y392D01*
X5492Y394D01*
X3714Y394D01*
G37*
D02*
G36*
X3714Y394D02*
X3714Y392D01*
X5492Y392D01*
X5492Y394D01*
X3714Y394D01*
G37*
D02*
G36*
X50Y392D02*
X50Y390D01*
X1798Y390D01*
X1798Y392D01*
X50Y392D01*
G37*
D02*
G36*
X50Y392D02*
X50Y390D01*
X1798Y390D01*
X1798Y392D01*
X50Y392D01*
G37*
D02*
G36*
X50Y392D02*
X50Y390D01*
X1798Y390D01*
X1798Y392D01*
X50Y392D01*
G37*
D02*
G36*
X3714Y392D02*
X3714Y384D01*
X5492Y384D01*
X5492Y392D01*
X3714Y392D01*
G37*
D02*
G36*
X50Y390D02*
X50Y348D01*
X1532Y348D01*
X1532Y338D01*
X1726Y338D01*
X1726Y302D01*
X1850Y302D01*
X1850Y304D01*
X1844Y304D01*
X1844Y306D01*
X1838Y306D01*
X1838Y308D01*
X1834Y308D01*
X1834Y310D01*
X1832Y310D01*
X1832Y312D01*
X1828Y312D01*
X1828Y314D01*
X1826Y314D01*
X1826Y316D01*
X1824Y316D01*
X1824Y318D01*
X1820Y318D01*
X1820Y320D01*
X1818Y320D01*
X1818Y322D01*
X1816Y322D01*
X1816Y324D01*
X1814Y324D01*
X1814Y328D01*
X1812Y328D01*
X1812Y330D01*
X1810Y330D01*
X1810Y332D01*
X1808Y332D01*
X1808Y336D01*
X1806Y336D01*
X1806Y338D01*
X1804Y338D01*
X1804Y342D01*
X1802Y342D01*
X1802Y346D01*
X1800Y346D01*
X1800Y352D01*
X1798Y352D01*
X1798Y390D01*
X50Y390D01*
G37*
D02*
G36*
X3714Y384D02*
X3714Y382D01*
X5666Y382D01*
X5666Y384D01*
X3714Y384D01*
G37*
D02*
G36*
X3714Y384D02*
X3714Y382D01*
X5666Y382D01*
X5666Y384D01*
X3714Y384D01*
G37*
D02*
G36*
X3714Y384D02*
X3714Y382D01*
X5666Y382D01*
X5666Y384D01*
X3714Y384D01*
G37*
D02*
G36*
X3714Y382D02*
X3714Y356D01*
X3712Y356D01*
X3712Y348D01*
X3710Y348D01*
X3710Y344D01*
X3708Y344D01*
X3708Y340D01*
X3706Y340D01*
X3706Y336D01*
X5134Y336D01*
X5134Y326D01*
X5326Y326D01*
X5326Y194D01*
X5544Y194D01*
X5544Y196D01*
X5538Y196D01*
X5538Y198D01*
X5534Y198D01*
X5534Y200D01*
X5530Y200D01*
X5530Y202D01*
X5526Y202D01*
X5526Y204D01*
X5524Y204D01*
X5524Y206D01*
X5520Y206D01*
X5520Y208D01*
X5518Y208D01*
X5518Y210D01*
X5516Y210D01*
X5516Y212D01*
X5514Y212D01*
X5514Y214D01*
X5512Y214D01*
X5512Y216D01*
X5510Y216D01*
X5510Y218D01*
X5508Y218D01*
X5508Y220D01*
X5506Y220D01*
X5506Y224D01*
X5504Y224D01*
X5504Y226D01*
X5502Y226D01*
X5502Y230D01*
X5500Y230D01*
X5500Y232D01*
X5498Y232D01*
X5498Y236D01*
X5496Y236D01*
X5496Y242D01*
X5494Y242D01*
X5494Y250D01*
X5492Y250D01*
X5492Y346D01*
X5544Y346D01*
X5544Y382D01*
X3714Y382D01*
G37*
D02*
G36*
X5574Y382D02*
X5574Y346D01*
X5634Y346D01*
X5634Y246D01*
X5632Y246D01*
X5632Y240D01*
X5630Y240D01*
X5630Y236D01*
X5628Y236D01*
X5628Y232D01*
X5626Y232D01*
X5626Y228D01*
X5624Y228D01*
X5624Y224D01*
X5622Y224D01*
X5622Y222D01*
X5620Y222D01*
X5620Y220D01*
X5618Y220D01*
X5618Y218D01*
X5616Y218D01*
X5616Y216D01*
X5614Y216D01*
X5614Y214D01*
X5612Y214D01*
X5612Y212D01*
X5610Y212D01*
X5610Y210D01*
X5608Y210D01*
X5608Y208D01*
X5606Y208D01*
X5606Y206D01*
X5604Y206D01*
X5604Y204D01*
X5600Y204D01*
X5600Y202D01*
X5596Y202D01*
X5596Y200D01*
X5592Y200D01*
X5592Y198D01*
X5588Y198D01*
X5588Y196D01*
X5582Y196D01*
X5582Y194D01*
X5666Y194D01*
X5666Y382D01*
X5574Y382D01*
G37*
D02*
G36*
X3318Y362D02*
X3318Y304D01*
X3356Y304D01*
X3356Y362D01*
X3318Y362D01*
G37*
D02*
G36*
X50Y348D02*
X50Y106D01*
X244Y106D01*
X244Y108D01*
X238Y108D01*
X238Y110D01*
X232Y110D01*
X232Y112D01*
X228Y112D01*
X228Y114D01*
X226Y114D01*
X226Y116D01*
X222Y116D01*
X222Y118D01*
X220Y118D01*
X220Y120D01*
X216Y120D01*
X216Y122D01*
X214Y122D01*
X214Y124D01*
X212Y124D01*
X212Y126D01*
X210Y126D01*
X210Y128D01*
X208Y128D01*
X208Y130D01*
X206Y130D01*
X206Y134D01*
X204Y134D01*
X204Y136D01*
X202Y136D01*
X202Y138D01*
X200Y138D01*
X200Y142D01*
X198Y142D01*
X198Y146D01*
X196Y146D01*
X196Y150D01*
X194Y150D01*
X194Y154D01*
X192Y154D01*
X192Y164D01*
X190Y164D01*
X190Y348D01*
X50Y348D01*
G37*
D02*
G36*
X332Y348D02*
X332Y338D01*
X526Y338D01*
X526Y212D01*
X524Y212D01*
X524Y192D01*
X470Y192D01*
X470Y168D01*
X790Y168D01*
X790Y348D01*
X332Y348D01*
G37*
D02*
G36*
X932Y348D02*
X932Y338D01*
X1126Y338D01*
X1126Y212D01*
X1124Y212D01*
X1124Y192D01*
X1070Y192D01*
X1070Y168D01*
X1390Y168D01*
X1390Y348D01*
X932Y348D01*
G37*
D02*
G36*
X332Y338D02*
X332Y168D01*
X448Y168D01*
X448Y192D01*
X400Y192D01*
X400Y212D01*
X398Y212D01*
X398Y338D01*
X332Y338D01*
G37*
D02*
G36*
X932Y338D02*
X932Y168D01*
X1048Y168D01*
X1048Y192D01*
X1000Y192D01*
X1000Y212D01*
X998Y212D01*
X998Y338D01*
X932Y338D01*
G37*
D02*
G36*
X1532Y338D02*
X1532Y168D01*
X1648Y168D01*
X1648Y192D01*
X1600Y192D01*
X1600Y212D01*
X1598Y212D01*
X1598Y338D01*
X1532Y338D01*
G37*
D02*
G36*
X3704Y336D02*
X3704Y334D01*
X3702Y334D01*
X3702Y330D01*
X3700Y330D01*
X3700Y328D01*
X3698Y328D01*
X3698Y326D01*
X3696Y326D01*
X3696Y324D01*
X3694Y324D01*
X3694Y322D01*
X3692Y322D01*
X3692Y320D01*
X3690Y320D01*
X3690Y318D01*
X3688Y318D01*
X3688Y316D01*
X3686Y316D01*
X3686Y314D01*
X3682Y314D01*
X3682Y312D01*
X3680Y312D01*
X3680Y310D01*
X3676Y310D01*
X3676Y308D01*
X3672Y308D01*
X3672Y306D01*
X3668Y306D01*
X3668Y304D01*
X3660Y304D01*
X3660Y302D01*
X3792Y302D01*
X3792Y336D01*
X3704Y336D01*
G37*
D02*
G36*
X3934Y336D02*
X3934Y326D01*
X4126Y326D01*
X4126Y180D01*
X4072Y180D01*
X4072Y156D01*
X4392Y156D01*
X4392Y336D01*
X3934Y336D01*
G37*
D02*
G36*
X4534Y336D02*
X4534Y326D01*
X4726Y326D01*
X4726Y180D01*
X4670Y180D01*
X4670Y156D01*
X4992Y156D01*
X4992Y336D01*
X4534Y336D01*
G37*
D02*
G36*
X3934Y326D02*
X3934Y156D01*
X4050Y156D01*
X4050Y180D01*
X4002Y180D01*
X4002Y200D01*
X4000Y200D01*
X4000Y326D01*
X3934Y326D01*
G37*
D02*
G36*
X4534Y326D02*
X4534Y156D01*
X4648Y156D01*
X4648Y180D01*
X4602Y180D01*
X4602Y200D01*
X4600Y200D01*
X4600Y326D01*
X4534Y326D01*
G37*
D02*
G36*
X5134Y326D02*
X5134Y156D01*
X5248Y156D01*
X5248Y180D01*
X5202Y180D01*
X5202Y200D01*
X5200Y200D01*
X5200Y326D01*
X5134Y326D01*
G37*
D02*
G36*
X3480Y318D02*
X3480Y316D01*
X3478Y316D01*
X3478Y314D01*
X3476Y314D01*
X3476Y312D01*
X3472Y312D01*
X3472Y310D01*
X3470Y310D01*
X3470Y308D01*
X3466Y308D01*
X3466Y306D01*
X3460Y306D01*
X3460Y304D01*
X3454Y304D01*
X3454Y302D01*
X3528Y302D01*
X3528Y304D01*
X3520Y304D01*
X3520Y306D01*
X3516Y306D01*
X3516Y308D01*
X3512Y308D01*
X3512Y310D01*
X3508Y310D01*
X3508Y312D01*
X3506Y312D01*
X3506Y314D01*
X3502Y314D01*
X3502Y316D01*
X3500Y316D01*
X3500Y318D01*
X3480Y318D01*
G37*
D02*
G36*
X1906Y314D02*
X1906Y312D01*
X1902Y312D01*
X1902Y310D01*
X1900Y310D01*
X1900Y308D01*
X1896Y308D01*
X1896Y306D01*
X1890Y306D01*
X1890Y304D01*
X1884Y304D01*
X1884Y302D01*
X1950Y302D01*
X1950Y304D01*
X1944Y304D01*
X1944Y306D01*
X1938Y306D01*
X1938Y308D01*
X1934Y308D01*
X1934Y310D01*
X1932Y310D01*
X1932Y312D01*
X1928Y312D01*
X1928Y314D01*
X1906Y314D01*
G37*
D02*
G36*
X2006Y314D02*
X2006Y312D01*
X2002Y312D01*
X2002Y310D01*
X2000Y310D01*
X2000Y308D01*
X1996Y308D01*
X1996Y306D01*
X1990Y306D01*
X1990Y304D01*
X1984Y304D01*
X1984Y302D01*
X2050Y302D01*
X2050Y304D01*
X2044Y304D01*
X2044Y306D01*
X2038Y306D01*
X2038Y308D01*
X2034Y308D01*
X2034Y310D01*
X2032Y310D01*
X2032Y312D01*
X2028Y312D01*
X2028Y314D01*
X2006Y314D01*
G37*
D02*
G36*
X2106Y314D02*
X2106Y312D01*
X2102Y312D01*
X2102Y310D01*
X2100Y310D01*
X2100Y308D01*
X2096Y308D01*
X2096Y306D01*
X2090Y306D01*
X2090Y304D01*
X2084Y304D01*
X2084Y302D01*
X2150Y302D01*
X2150Y304D01*
X2144Y304D01*
X2144Y306D01*
X2138Y306D01*
X2138Y308D01*
X2134Y308D01*
X2134Y310D01*
X2132Y310D01*
X2132Y312D01*
X2128Y312D01*
X2128Y314D01*
X2106Y314D01*
G37*
D02*
G36*
X2206Y314D02*
X2206Y312D01*
X2202Y312D01*
X2202Y310D01*
X2200Y310D01*
X2200Y308D01*
X2196Y308D01*
X2196Y306D01*
X2190Y306D01*
X2190Y304D01*
X2184Y304D01*
X2184Y302D01*
X2250Y302D01*
X2250Y304D01*
X2244Y304D01*
X2244Y306D01*
X2238Y306D01*
X2238Y308D01*
X2234Y308D01*
X2234Y310D01*
X2232Y310D01*
X2232Y312D01*
X2228Y312D01*
X2228Y314D01*
X2206Y314D01*
G37*
D02*
G36*
X2306Y314D02*
X2306Y312D01*
X2302Y312D01*
X2302Y310D01*
X2300Y310D01*
X2300Y308D01*
X2296Y308D01*
X2296Y306D01*
X2290Y306D01*
X2290Y304D01*
X2284Y304D01*
X2284Y302D01*
X2350Y302D01*
X2350Y304D01*
X2344Y304D01*
X2344Y306D01*
X2338Y306D01*
X2338Y308D01*
X2334Y308D01*
X2334Y310D01*
X2332Y310D01*
X2332Y312D01*
X2328Y312D01*
X2328Y314D01*
X2306Y314D01*
G37*
D02*
G36*
X2406Y314D02*
X2406Y312D01*
X2402Y312D01*
X2402Y310D01*
X2400Y310D01*
X2400Y308D01*
X2396Y308D01*
X2396Y306D01*
X2390Y306D01*
X2390Y304D01*
X2384Y304D01*
X2384Y302D01*
X2450Y302D01*
X2450Y304D01*
X2444Y304D01*
X2444Y306D01*
X2438Y306D01*
X2438Y308D01*
X2434Y308D01*
X2434Y310D01*
X2432Y310D01*
X2432Y312D01*
X2428Y312D01*
X2428Y314D01*
X2406Y314D01*
G37*
D02*
G36*
X2506Y314D02*
X2506Y312D01*
X2502Y312D01*
X2502Y310D01*
X2500Y310D01*
X2500Y308D01*
X2496Y308D01*
X2496Y306D01*
X2490Y306D01*
X2490Y304D01*
X2484Y304D01*
X2484Y302D01*
X2550Y302D01*
X2550Y304D01*
X2544Y304D01*
X2544Y306D01*
X2538Y306D01*
X2538Y308D01*
X2534Y308D01*
X2534Y310D01*
X2532Y310D01*
X2532Y312D01*
X2528Y312D01*
X2528Y314D01*
X2506Y314D01*
G37*
D02*
G36*
X2776Y314D02*
X2776Y312D01*
X2772Y312D01*
X2772Y310D01*
X2770Y310D01*
X2770Y308D01*
X2766Y308D01*
X2766Y306D01*
X2760Y306D01*
X2760Y304D01*
X2754Y304D01*
X2754Y302D01*
X2820Y302D01*
X2820Y304D01*
X2814Y304D01*
X2814Y306D01*
X2808Y306D01*
X2808Y308D01*
X2804Y308D01*
X2804Y310D01*
X2802Y310D01*
X2802Y312D01*
X2798Y312D01*
X2798Y314D01*
X2776Y314D01*
G37*
D02*
G36*
X2876Y314D02*
X2876Y312D01*
X2872Y312D01*
X2872Y310D01*
X2870Y310D01*
X2870Y308D01*
X2866Y308D01*
X2866Y306D01*
X2860Y306D01*
X2860Y304D01*
X2854Y304D01*
X2854Y302D01*
X2920Y302D01*
X2920Y304D01*
X2914Y304D01*
X2914Y306D01*
X2908Y306D01*
X2908Y308D01*
X2904Y308D01*
X2904Y310D01*
X2902Y310D01*
X2902Y312D01*
X2898Y312D01*
X2898Y314D01*
X2876Y314D01*
G37*
D02*
G36*
X2976Y314D02*
X2976Y312D01*
X2972Y312D01*
X2972Y310D01*
X2970Y310D01*
X2970Y308D01*
X2966Y308D01*
X2966Y306D01*
X2960Y306D01*
X2960Y304D01*
X2954Y304D01*
X2954Y302D01*
X3020Y302D01*
X3020Y304D01*
X3014Y304D01*
X3014Y306D01*
X3008Y306D01*
X3008Y308D01*
X3004Y308D01*
X3004Y310D01*
X3002Y310D01*
X3002Y312D01*
X2998Y312D01*
X2998Y314D01*
X2976Y314D01*
G37*
D02*
G36*
X3076Y314D02*
X3076Y312D01*
X3072Y312D01*
X3072Y310D01*
X3070Y310D01*
X3070Y308D01*
X3066Y308D01*
X3066Y306D01*
X3060Y306D01*
X3060Y304D01*
X3054Y304D01*
X3054Y302D01*
X3120Y302D01*
X3120Y304D01*
X3114Y304D01*
X3114Y306D01*
X3108Y306D01*
X3108Y308D01*
X3104Y308D01*
X3104Y310D01*
X3102Y310D01*
X3102Y312D01*
X3098Y312D01*
X3098Y314D01*
X3076Y314D01*
G37*
D02*
G36*
X3176Y314D02*
X3176Y312D01*
X3172Y312D01*
X3172Y310D01*
X3170Y310D01*
X3170Y308D01*
X3166Y308D01*
X3166Y306D01*
X3160Y306D01*
X3160Y304D01*
X3154Y304D01*
X3154Y302D01*
X3220Y302D01*
X3220Y304D01*
X3214Y304D01*
X3214Y306D01*
X3208Y306D01*
X3208Y308D01*
X3204Y308D01*
X3204Y310D01*
X3202Y310D01*
X3202Y312D01*
X3198Y312D01*
X3198Y314D01*
X3176Y314D01*
G37*
D02*
G36*
X3276Y314D02*
X3276Y312D01*
X3272Y312D01*
X3272Y310D01*
X3270Y310D01*
X3270Y308D01*
X3266Y308D01*
X3266Y306D01*
X3260Y306D01*
X3260Y304D01*
X3314Y304D01*
X3314Y306D01*
X3308Y306D01*
X3308Y308D01*
X3304Y308D01*
X3304Y310D01*
X3302Y310D01*
X3302Y312D01*
X3298Y312D01*
X3298Y314D01*
X3276Y314D01*
G37*
D02*
G36*
X3376Y314D02*
X3376Y312D01*
X3372Y312D01*
X3372Y310D01*
X3370Y310D01*
X3370Y308D01*
X3366Y308D01*
X3366Y306D01*
X3360Y306D01*
X3360Y304D01*
X3414Y304D01*
X3414Y306D01*
X3408Y306D01*
X3408Y308D01*
X3404Y308D01*
X3404Y310D01*
X3402Y310D01*
X3402Y312D01*
X3398Y312D01*
X3398Y314D01*
X3376Y314D01*
G37*
D02*
G36*
X3582Y314D02*
X3582Y312D01*
X3580Y312D01*
X3580Y310D01*
X3576Y310D01*
X3576Y308D01*
X3572Y308D01*
X3572Y306D01*
X3568Y306D01*
X3568Y304D01*
X3560Y304D01*
X3560Y302D01*
X3628Y302D01*
X3628Y304D01*
X3620Y304D01*
X3620Y306D01*
X3616Y306D01*
X3616Y308D01*
X3612Y308D01*
X3612Y310D01*
X3608Y310D01*
X3608Y312D01*
X3606Y312D01*
X3606Y314D01*
X3582Y314D01*
G37*
D02*
G36*
X3254Y304D02*
X3254Y302D01*
X3420Y302D01*
X3420Y304D01*
X3254Y304D01*
G37*
D02*
G36*
X3254Y304D02*
X3254Y302D01*
X3420Y302D01*
X3420Y304D01*
X3254Y304D01*
G37*
D02*
G36*
X3254Y304D02*
X3254Y302D01*
X3420Y302D01*
X3420Y304D01*
X3254Y304D01*
G37*
D02*
G36*
X1726Y302D02*
X1726Y300D01*
X3792Y300D01*
X3792Y302D01*
X1726Y302D01*
G37*
D02*
G36*
X1726Y302D02*
X1726Y300D01*
X3792Y300D01*
X3792Y302D01*
X1726Y302D01*
G37*
D02*
G36*
X1726Y302D02*
X1726Y300D01*
X3792Y300D01*
X3792Y302D01*
X1726Y302D01*
G37*
D02*
G36*
X1726Y302D02*
X1726Y300D01*
X3792Y300D01*
X3792Y302D01*
X1726Y302D01*
G37*
D02*
G36*
X1726Y302D02*
X1726Y300D01*
X3792Y300D01*
X3792Y302D01*
X1726Y302D01*
G37*
D02*
G36*
X1726Y302D02*
X1726Y300D01*
X3792Y300D01*
X3792Y302D01*
X1726Y302D01*
G37*
D02*
G36*
X1726Y302D02*
X1726Y300D01*
X3792Y300D01*
X3792Y302D01*
X1726Y302D01*
G37*
D02*
G36*
X1726Y302D02*
X1726Y300D01*
X3792Y300D01*
X3792Y302D01*
X1726Y302D01*
G37*
D02*
G36*
X1726Y302D02*
X1726Y300D01*
X3792Y300D01*
X3792Y302D01*
X1726Y302D01*
G37*
D02*
G36*
X1726Y302D02*
X1726Y300D01*
X3792Y300D01*
X3792Y302D01*
X1726Y302D01*
G37*
D02*
G36*
X1726Y302D02*
X1726Y300D01*
X3792Y300D01*
X3792Y302D01*
X1726Y302D01*
G37*
D02*
G36*
X1726Y302D02*
X1726Y300D01*
X3792Y300D01*
X3792Y302D01*
X1726Y302D01*
G37*
D02*
G36*
X1726Y302D02*
X1726Y300D01*
X3792Y300D01*
X3792Y302D01*
X1726Y302D01*
G37*
D02*
G36*
X1726Y302D02*
X1726Y300D01*
X3792Y300D01*
X3792Y302D01*
X1726Y302D01*
G37*
D02*
G36*
X1726Y302D02*
X1726Y300D01*
X3792Y300D01*
X3792Y302D01*
X1726Y302D01*
G37*
D02*
G36*
X1726Y302D02*
X1726Y300D01*
X3792Y300D01*
X3792Y302D01*
X1726Y302D01*
G37*
D02*
G36*
X1726Y302D02*
X1726Y300D01*
X3792Y300D01*
X3792Y302D01*
X1726Y302D01*
G37*
D02*
G36*
X1726Y302D02*
X1726Y300D01*
X3792Y300D01*
X3792Y302D01*
X1726Y302D01*
G37*
D02*
G36*
X1726Y300D02*
X1726Y212D01*
X1724Y212D01*
X1724Y192D01*
X1670Y192D01*
X1670Y168D01*
X3792Y168D01*
X3792Y300D01*
X1726Y300D01*
G37*
D02*
G36*
X5326Y194D02*
X5326Y192D01*
X5666Y192D01*
X5666Y194D01*
X5326Y194D01*
G37*
D02*
G36*
X5326Y194D02*
X5326Y192D01*
X5666Y192D01*
X5666Y194D01*
X5326Y194D01*
G37*
D02*
G36*
X5326Y192D02*
X5326Y180D01*
X5270Y180D01*
X5270Y156D01*
X5666Y156D01*
X5666Y192D01*
X5326Y192D01*
G37*
D02*
G36*
X332Y168D02*
X332Y166D01*
X790Y166D01*
X790Y168D01*
X332Y168D01*
G37*
D02*
G36*
X332Y168D02*
X332Y166D01*
X790Y166D01*
X790Y168D01*
X332Y168D01*
G37*
D02*
G36*
X932Y168D02*
X932Y166D01*
X1390Y166D01*
X1390Y168D01*
X932Y168D01*
G37*
D02*
G36*
X932Y168D02*
X932Y166D01*
X1390Y166D01*
X1390Y168D01*
X932Y168D01*
G37*
D02*
G36*
X1532Y168D02*
X1532Y166D01*
X3792Y166D01*
X3792Y168D01*
X1532Y168D01*
G37*
D02*
G36*
X1532Y168D02*
X1532Y166D01*
X3792Y166D01*
X3792Y168D01*
X1532Y168D01*
G37*
D02*
G36*
X332Y166D02*
X332Y162D01*
X524Y162D01*
X524Y158D01*
X522Y158D01*
X522Y152D01*
X520Y152D01*
X520Y148D01*
X518Y148D01*
X518Y144D01*
X516Y144D01*
X516Y142D01*
X514Y142D01*
X514Y138D01*
X512Y138D01*
X512Y136D01*
X510Y136D01*
X510Y134D01*
X508Y134D01*
X508Y132D01*
X506Y132D01*
X506Y130D01*
X504Y130D01*
X504Y128D01*
X502Y128D01*
X502Y126D01*
X500Y126D01*
X500Y124D01*
X496Y124D01*
X496Y122D01*
X494Y122D01*
X494Y120D01*
X490Y120D01*
X490Y118D01*
X486Y118D01*
X486Y116D01*
X480Y116D01*
X480Y114D01*
X826Y114D01*
X826Y116D01*
X822Y116D01*
X822Y118D01*
X820Y118D01*
X820Y120D01*
X816Y120D01*
X816Y122D01*
X814Y122D01*
X814Y124D01*
X812Y124D01*
X812Y126D01*
X810Y126D01*
X810Y128D01*
X808Y128D01*
X808Y130D01*
X806Y130D01*
X806Y134D01*
X804Y134D01*
X804Y136D01*
X802Y136D01*
X802Y138D01*
X800Y138D01*
X800Y142D01*
X798Y142D01*
X798Y146D01*
X796Y146D01*
X796Y150D01*
X794Y150D01*
X794Y154D01*
X792Y154D01*
X792Y164D01*
X790Y164D01*
X790Y166D01*
X332Y166D01*
G37*
D02*
G36*
X932Y166D02*
X932Y162D01*
X1124Y162D01*
X1124Y158D01*
X1122Y158D01*
X1122Y152D01*
X1120Y152D01*
X1120Y148D01*
X1118Y148D01*
X1118Y144D01*
X1116Y144D01*
X1116Y142D01*
X1114Y142D01*
X1114Y138D01*
X1112Y138D01*
X1112Y136D01*
X1110Y136D01*
X1110Y134D01*
X1108Y134D01*
X1108Y132D01*
X1106Y132D01*
X1106Y130D01*
X1104Y130D01*
X1104Y128D01*
X1102Y128D01*
X1102Y126D01*
X1100Y126D01*
X1100Y124D01*
X1096Y124D01*
X1096Y122D01*
X1094Y122D01*
X1094Y120D01*
X1090Y120D01*
X1090Y118D01*
X1086Y118D01*
X1086Y116D01*
X1080Y116D01*
X1080Y114D01*
X1426Y114D01*
X1426Y116D01*
X1422Y116D01*
X1422Y118D01*
X1420Y118D01*
X1420Y120D01*
X1416Y120D01*
X1416Y122D01*
X1414Y122D01*
X1414Y124D01*
X1412Y124D01*
X1412Y126D01*
X1410Y126D01*
X1410Y128D01*
X1408Y128D01*
X1408Y130D01*
X1406Y130D01*
X1406Y134D01*
X1404Y134D01*
X1404Y136D01*
X1402Y136D01*
X1402Y138D01*
X1400Y138D01*
X1400Y142D01*
X1398Y142D01*
X1398Y146D01*
X1396Y146D01*
X1396Y150D01*
X1394Y150D01*
X1394Y154D01*
X1392Y154D01*
X1392Y164D01*
X1390Y164D01*
X1390Y166D01*
X932Y166D01*
G37*
D02*
G36*
X1532Y166D02*
X1532Y162D01*
X1724Y162D01*
X1724Y158D01*
X1722Y158D01*
X1722Y152D01*
X1720Y152D01*
X1720Y148D01*
X1718Y148D01*
X1718Y144D01*
X1716Y144D01*
X1716Y142D01*
X1714Y142D01*
X1714Y138D01*
X1712Y138D01*
X1712Y136D01*
X1710Y136D01*
X1710Y134D01*
X1708Y134D01*
X1708Y132D01*
X1706Y132D01*
X1706Y130D01*
X1704Y130D01*
X1704Y128D01*
X1702Y128D01*
X1702Y126D01*
X1700Y126D01*
X1700Y124D01*
X1696Y124D01*
X1696Y122D01*
X1694Y122D01*
X1694Y120D01*
X1690Y120D01*
X1690Y118D01*
X1686Y118D01*
X1686Y116D01*
X1680Y116D01*
X1680Y114D01*
X3812Y114D01*
X3812Y116D01*
X3810Y116D01*
X3810Y118D01*
X3808Y118D01*
X3808Y120D01*
X3806Y120D01*
X3806Y124D01*
X3804Y124D01*
X3804Y126D01*
X3802Y126D01*
X3802Y130D01*
X3800Y130D01*
X3800Y132D01*
X3798Y132D01*
X3798Y136D01*
X3796Y136D01*
X3796Y142D01*
X3794Y142D01*
X3794Y150D01*
X3792Y150D01*
X3792Y166D01*
X1532Y166D01*
G37*
D02*
G36*
X332Y162D02*
X332Y158D01*
X330Y158D01*
X330Y152D01*
X328Y152D01*
X328Y148D01*
X326Y148D01*
X326Y144D01*
X324Y144D01*
X324Y140D01*
X322Y140D01*
X322Y136D01*
X320Y136D01*
X320Y134D01*
X318Y134D01*
X318Y132D01*
X316Y132D01*
X316Y130D01*
X314Y130D01*
X314Y128D01*
X312Y128D01*
X312Y126D01*
X310Y126D01*
X310Y124D01*
X308Y124D01*
X308Y122D01*
X306Y122D01*
X306Y120D01*
X304Y120D01*
X304Y118D01*
X300Y118D01*
X300Y116D01*
X298Y116D01*
X298Y114D01*
X442Y114D01*
X442Y116D01*
X438Y116D01*
X438Y118D01*
X434Y118D01*
X434Y120D01*
X430Y120D01*
X430Y122D01*
X426Y122D01*
X426Y124D01*
X424Y124D01*
X424Y126D01*
X422Y126D01*
X422Y128D01*
X418Y128D01*
X418Y130D01*
X416Y130D01*
X416Y132D01*
X414Y132D01*
X414Y134D01*
X412Y134D01*
X412Y138D01*
X410Y138D01*
X410Y140D01*
X408Y140D01*
X408Y142D01*
X406Y142D01*
X406Y146D01*
X404Y146D01*
X404Y150D01*
X402Y150D01*
X402Y154D01*
X400Y154D01*
X400Y162D01*
X332Y162D01*
G37*
D02*
G36*
X446Y162D02*
X446Y114D01*
X476Y114D01*
X476Y162D01*
X446Y162D01*
G37*
D02*
G36*
X932Y162D02*
X932Y158D01*
X930Y158D01*
X930Y152D01*
X928Y152D01*
X928Y148D01*
X926Y148D01*
X926Y144D01*
X924Y144D01*
X924Y140D01*
X922Y140D01*
X922Y136D01*
X920Y136D01*
X920Y134D01*
X918Y134D01*
X918Y132D01*
X916Y132D01*
X916Y130D01*
X914Y130D01*
X914Y128D01*
X912Y128D01*
X912Y126D01*
X910Y126D01*
X910Y124D01*
X908Y124D01*
X908Y122D01*
X906Y122D01*
X906Y120D01*
X904Y120D01*
X904Y118D01*
X900Y118D01*
X900Y116D01*
X898Y116D01*
X898Y114D01*
X1042Y114D01*
X1042Y116D01*
X1038Y116D01*
X1038Y118D01*
X1034Y118D01*
X1034Y120D01*
X1030Y120D01*
X1030Y122D01*
X1026Y122D01*
X1026Y124D01*
X1024Y124D01*
X1024Y126D01*
X1022Y126D01*
X1022Y128D01*
X1018Y128D01*
X1018Y130D01*
X1016Y130D01*
X1016Y132D01*
X1014Y132D01*
X1014Y134D01*
X1012Y134D01*
X1012Y138D01*
X1010Y138D01*
X1010Y140D01*
X1008Y140D01*
X1008Y142D01*
X1006Y142D01*
X1006Y146D01*
X1004Y146D01*
X1004Y150D01*
X1002Y150D01*
X1002Y154D01*
X1000Y154D01*
X1000Y162D01*
X932Y162D01*
G37*
D02*
G36*
X1046Y162D02*
X1046Y114D01*
X1076Y114D01*
X1076Y162D01*
X1046Y162D01*
G37*
D02*
G36*
X1532Y162D02*
X1532Y158D01*
X1530Y158D01*
X1530Y152D01*
X1528Y152D01*
X1528Y148D01*
X1526Y148D01*
X1526Y144D01*
X1524Y144D01*
X1524Y140D01*
X1522Y140D01*
X1522Y136D01*
X1520Y136D01*
X1520Y134D01*
X1518Y134D01*
X1518Y132D01*
X1516Y132D01*
X1516Y130D01*
X1514Y130D01*
X1514Y128D01*
X1512Y128D01*
X1512Y126D01*
X1510Y126D01*
X1510Y124D01*
X1508Y124D01*
X1508Y122D01*
X1506Y122D01*
X1506Y120D01*
X1504Y120D01*
X1504Y118D01*
X1500Y118D01*
X1500Y116D01*
X1498Y116D01*
X1498Y114D01*
X1642Y114D01*
X1642Y116D01*
X1638Y116D01*
X1638Y118D01*
X1634Y118D01*
X1634Y120D01*
X1630Y120D01*
X1630Y122D01*
X1626Y122D01*
X1626Y124D01*
X1624Y124D01*
X1624Y126D01*
X1622Y126D01*
X1622Y128D01*
X1618Y128D01*
X1618Y130D01*
X1616Y130D01*
X1616Y132D01*
X1614Y132D01*
X1614Y134D01*
X1612Y134D01*
X1612Y138D01*
X1610Y138D01*
X1610Y140D01*
X1608Y140D01*
X1608Y142D01*
X1606Y142D01*
X1606Y146D01*
X1604Y146D01*
X1604Y150D01*
X1602Y150D01*
X1602Y154D01*
X1600Y154D01*
X1600Y162D01*
X1532Y162D01*
G37*
D02*
G36*
X1646Y162D02*
X1646Y114D01*
X1676Y114D01*
X1676Y162D01*
X1646Y162D01*
G37*
D02*
G36*
X3934Y156D02*
X3934Y154D01*
X4392Y154D01*
X4392Y156D01*
X3934Y156D01*
G37*
D02*
G36*
X3934Y156D02*
X3934Y154D01*
X4392Y154D01*
X4392Y156D01*
X3934Y156D01*
G37*
D02*
G36*
X4534Y156D02*
X4534Y154D01*
X4992Y154D01*
X4992Y156D01*
X4534Y156D01*
G37*
D02*
G36*
X4534Y156D02*
X4534Y154D01*
X4992Y154D01*
X4992Y156D01*
X4534Y156D01*
G37*
D02*
G36*
X5134Y156D02*
X5134Y154D01*
X5666Y154D01*
X5666Y156D01*
X5134Y156D01*
G37*
D02*
G36*
X5134Y156D02*
X5134Y154D01*
X5666Y154D01*
X5666Y156D01*
X5134Y156D01*
G37*
D02*
G36*
X3934Y154D02*
X3934Y150D01*
X4126Y150D01*
X4126Y146D01*
X4124Y146D01*
X4124Y140D01*
X4122Y140D01*
X4122Y136D01*
X4120Y136D01*
X4120Y132D01*
X4118Y132D01*
X4118Y130D01*
X4116Y130D01*
X4116Y126D01*
X4114Y126D01*
X4114Y124D01*
X4112Y124D01*
X4112Y122D01*
X4110Y122D01*
X4110Y120D01*
X4108Y120D01*
X4108Y118D01*
X4106Y118D01*
X4106Y116D01*
X4104Y116D01*
X4104Y114D01*
X4102Y114D01*
X4102Y112D01*
X4098Y112D01*
X4098Y110D01*
X4096Y110D01*
X4096Y108D01*
X4092Y108D01*
X4092Y106D01*
X4088Y106D01*
X4088Y104D01*
X4082Y104D01*
X4082Y102D01*
X4426Y102D01*
X4426Y104D01*
X4424Y104D01*
X4424Y106D01*
X4420Y106D01*
X4420Y108D01*
X4418Y108D01*
X4418Y110D01*
X4416Y110D01*
X4416Y112D01*
X4414Y112D01*
X4414Y114D01*
X4412Y114D01*
X4412Y116D01*
X4410Y116D01*
X4410Y118D01*
X4408Y118D01*
X4408Y120D01*
X4406Y120D01*
X4406Y124D01*
X4404Y124D01*
X4404Y126D01*
X4402Y126D01*
X4402Y130D01*
X4400Y130D01*
X4400Y132D01*
X4398Y132D01*
X4398Y136D01*
X4396Y136D01*
X4396Y142D01*
X4394Y142D01*
X4394Y150D01*
X4392Y150D01*
X4392Y154D01*
X3934Y154D01*
G37*
D02*
G36*
X4534Y154D02*
X4534Y150D01*
X4726Y150D01*
X4726Y146D01*
X4724Y146D01*
X4724Y140D01*
X4722Y140D01*
X4722Y136D01*
X4720Y136D01*
X4720Y132D01*
X4718Y132D01*
X4718Y130D01*
X4716Y130D01*
X4716Y126D01*
X4714Y126D01*
X4714Y124D01*
X4712Y124D01*
X4712Y122D01*
X4710Y122D01*
X4710Y120D01*
X4708Y120D01*
X4708Y118D01*
X4706Y118D01*
X4706Y116D01*
X4704Y116D01*
X4704Y114D01*
X4702Y114D01*
X4702Y112D01*
X4698Y112D01*
X4698Y110D01*
X4696Y110D01*
X4696Y108D01*
X4692Y108D01*
X4692Y106D01*
X4688Y106D01*
X4688Y104D01*
X4682Y104D01*
X4682Y102D01*
X5026Y102D01*
X5026Y104D01*
X5024Y104D01*
X5024Y106D01*
X5020Y106D01*
X5020Y108D01*
X5018Y108D01*
X5018Y110D01*
X5016Y110D01*
X5016Y112D01*
X5014Y112D01*
X5014Y114D01*
X5012Y114D01*
X5012Y116D01*
X5010Y116D01*
X5010Y118D01*
X5008Y118D01*
X5008Y120D01*
X5006Y120D01*
X5006Y124D01*
X5004Y124D01*
X5004Y126D01*
X5002Y126D01*
X5002Y130D01*
X5000Y130D01*
X5000Y132D01*
X4998Y132D01*
X4998Y136D01*
X4996Y136D01*
X4996Y142D01*
X4994Y142D01*
X4994Y150D01*
X4992Y150D01*
X4992Y154D01*
X4534Y154D01*
G37*
D02*
G36*
X5134Y154D02*
X5134Y150D01*
X5326Y150D01*
X5326Y146D01*
X5324Y146D01*
X5324Y140D01*
X5322Y140D01*
X5322Y136D01*
X5320Y136D01*
X5320Y132D01*
X5318Y132D01*
X5318Y130D01*
X5316Y130D01*
X5316Y126D01*
X5314Y126D01*
X5314Y124D01*
X5312Y124D01*
X5312Y122D01*
X5310Y122D01*
X5310Y120D01*
X5308Y120D01*
X5308Y118D01*
X5306Y118D01*
X5306Y116D01*
X5304Y116D01*
X5304Y114D01*
X5302Y114D01*
X5302Y112D01*
X5298Y112D01*
X5298Y110D01*
X5296Y110D01*
X5296Y108D01*
X5292Y108D01*
X5292Y106D01*
X5288Y106D01*
X5288Y104D01*
X5282Y104D01*
X5282Y102D01*
X5666Y102D01*
X5666Y154D01*
X5134Y154D01*
G37*
D02*
G36*
X3934Y150D02*
X3934Y146D01*
X3932Y146D01*
X3932Y140D01*
X3930Y140D01*
X3930Y136D01*
X3928Y136D01*
X3928Y132D01*
X3926Y132D01*
X3926Y128D01*
X3924Y128D01*
X3924Y124D01*
X3922Y124D01*
X3922Y122D01*
X3920Y122D01*
X3920Y120D01*
X3918Y120D01*
X3918Y118D01*
X3916Y118D01*
X3916Y116D01*
X3914Y116D01*
X3914Y114D01*
X3912Y114D01*
X3912Y112D01*
X3910Y112D01*
X3910Y110D01*
X3908Y110D01*
X3908Y108D01*
X3906Y108D01*
X3906Y106D01*
X3904Y106D01*
X3904Y104D01*
X3900Y104D01*
X3900Y102D01*
X4044Y102D01*
X4044Y104D01*
X4038Y104D01*
X4038Y106D01*
X4034Y106D01*
X4034Y108D01*
X4032Y108D01*
X4032Y110D01*
X4028Y110D01*
X4028Y112D01*
X4026Y112D01*
X4026Y114D01*
X4022Y114D01*
X4022Y116D01*
X4020Y116D01*
X4020Y118D01*
X4018Y118D01*
X4018Y120D01*
X4016Y120D01*
X4016Y122D01*
X4014Y122D01*
X4014Y124D01*
X4012Y124D01*
X4012Y128D01*
X4010Y128D01*
X4010Y130D01*
X4008Y130D01*
X4008Y134D01*
X4006Y134D01*
X4006Y138D01*
X4004Y138D01*
X4004Y142D01*
X4002Y142D01*
X4002Y148D01*
X4000Y148D01*
X4000Y150D01*
X3934Y150D01*
G37*
D02*
G36*
X4048Y150D02*
X4048Y102D01*
X4078Y102D01*
X4078Y150D01*
X4048Y150D01*
G37*
D02*
G36*
X4534Y150D02*
X4534Y146D01*
X4532Y146D01*
X4532Y140D01*
X4530Y140D01*
X4530Y136D01*
X4528Y136D01*
X4528Y132D01*
X4526Y132D01*
X4526Y128D01*
X4524Y128D01*
X4524Y124D01*
X4522Y124D01*
X4522Y122D01*
X4520Y122D01*
X4520Y120D01*
X4518Y120D01*
X4518Y118D01*
X4516Y118D01*
X4516Y116D01*
X4514Y116D01*
X4514Y114D01*
X4512Y114D01*
X4512Y112D01*
X4510Y112D01*
X4510Y110D01*
X4508Y110D01*
X4508Y108D01*
X4506Y108D01*
X4506Y106D01*
X4504Y106D01*
X4504Y104D01*
X4500Y104D01*
X4500Y102D01*
X4644Y102D01*
X4644Y104D01*
X4638Y104D01*
X4638Y106D01*
X4634Y106D01*
X4634Y108D01*
X4632Y108D01*
X4632Y110D01*
X4628Y110D01*
X4628Y112D01*
X4626Y112D01*
X4626Y114D01*
X4622Y114D01*
X4622Y116D01*
X4620Y116D01*
X4620Y118D01*
X4618Y118D01*
X4618Y120D01*
X4616Y120D01*
X4616Y122D01*
X4614Y122D01*
X4614Y124D01*
X4612Y124D01*
X4612Y128D01*
X4610Y128D01*
X4610Y130D01*
X4608Y130D01*
X4608Y134D01*
X4606Y134D01*
X4606Y138D01*
X4604Y138D01*
X4604Y142D01*
X4602Y142D01*
X4602Y148D01*
X4600Y148D01*
X4600Y150D01*
X4534Y150D01*
G37*
D02*
G36*
X4646Y150D02*
X4646Y102D01*
X4676Y102D01*
X4676Y150D01*
X4646Y150D01*
G37*
D02*
G36*
X5134Y150D02*
X5134Y146D01*
X5132Y146D01*
X5132Y140D01*
X5130Y140D01*
X5130Y136D01*
X5128Y136D01*
X5128Y132D01*
X5126Y132D01*
X5126Y128D01*
X5124Y128D01*
X5124Y124D01*
X5122Y124D01*
X5122Y122D01*
X5120Y122D01*
X5120Y120D01*
X5118Y120D01*
X5118Y118D01*
X5116Y118D01*
X5116Y116D01*
X5114Y116D01*
X5114Y114D01*
X5112Y114D01*
X5112Y112D01*
X5110Y112D01*
X5110Y110D01*
X5108Y110D01*
X5108Y108D01*
X5106Y108D01*
X5106Y106D01*
X5104Y106D01*
X5104Y104D01*
X5100Y104D01*
X5100Y102D01*
X5244Y102D01*
X5244Y104D01*
X5238Y104D01*
X5238Y106D01*
X5234Y106D01*
X5234Y108D01*
X5232Y108D01*
X5232Y110D01*
X5228Y110D01*
X5228Y112D01*
X5226Y112D01*
X5226Y114D01*
X5222Y114D01*
X5222Y116D01*
X5220Y116D01*
X5220Y118D01*
X5218Y118D01*
X5218Y120D01*
X5216Y120D01*
X5216Y122D01*
X5214Y122D01*
X5214Y124D01*
X5212Y124D01*
X5212Y128D01*
X5210Y128D01*
X5210Y130D01*
X5208Y130D01*
X5208Y134D01*
X5206Y134D01*
X5206Y138D01*
X5204Y138D01*
X5204Y142D01*
X5202Y142D01*
X5202Y148D01*
X5200Y148D01*
X5200Y150D01*
X5134Y150D01*
G37*
D02*
G36*
X5246Y150D02*
X5246Y102D01*
X5276Y102D01*
X5276Y150D01*
X5246Y150D01*
G37*
D02*
G36*
X294Y114D02*
X294Y112D01*
X828Y112D01*
X828Y114D01*
X294Y114D01*
G37*
D02*
G36*
X294Y114D02*
X294Y112D01*
X828Y112D01*
X828Y114D01*
X294Y114D01*
G37*
D02*
G36*
X294Y114D02*
X294Y112D01*
X828Y112D01*
X828Y114D01*
X294Y114D01*
G37*
D02*
G36*
X894Y114D02*
X894Y112D01*
X1428Y112D01*
X1428Y114D01*
X894Y114D01*
G37*
D02*
G36*
X894Y114D02*
X894Y112D01*
X1428Y112D01*
X1428Y114D01*
X894Y114D01*
G37*
D02*
G36*
X894Y114D02*
X894Y112D01*
X1428Y112D01*
X1428Y114D01*
X894Y114D01*
G37*
D02*
G36*
X1494Y114D02*
X1494Y112D01*
X3814Y112D01*
X3814Y114D01*
X1494Y114D01*
G37*
D02*
G36*
X1494Y114D02*
X1494Y112D01*
X3814Y112D01*
X3814Y114D01*
X1494Y114D01*
G37*
D02*
G36*
X1494Y114D02*
X1494Y112D01*
X3814Y112D01*
X3814Y114D01*
X1494Y114D01*
G37*
D02*
G36*
X290Y112D02*
X290Y110D01*
X286Y110D01*
X286Y108D01*
X280Y108D01*
X280Y106D01*
X844Y106D01*
X844Y108D01*
X838Y108D01*
X838Y110D01*
X832Y110D01*
X832Y112D01*
X290Y112D01*
G37*
D02*
G36*
X890Y112D02*
X890Y110D01*
X886Y110D01*
X886Y108D01*
X880Y108D01*
X880Y106D01*
X1444Y106D01*
X1444Y108D01*
X1438Y108D01*
X1438Y110D01*
X1432Y110D01*
X1432Y112D01*
X890Y112D01*
G37*
D02*
G36*
X1490Y112D02*
X1490Y110D01*
X1486Y110D01*
X1486Y108D01*
X1480Y108D01*
X1480Y106D01*
X3820Y106D01*
X3820Y108D01*
X3818Y108D01*
X3818Y110D01*
X3816Y110D01*
X3816Y112D01*
X1490Y112D01*
G37*
D02*
G36*
X50Y106D02*
X50Y104D01*
X3824Y104D01*
X3824Y106D01*
X50Y106D01*
G37*
D02*
G36*
X50Y106D02*
X50Y104D01*
X3824Y104D01*
X3824Y106D01*
X50Y106D01*
G37*
D02*
G36*
X50Y106D02*
X50Y104D01*
X3824Y104D01*
X3824Y106D01*
X50Y106D01*
G37*
D02*
G36*
X50Y106D02*
X50Y104D01*
X3824Y104D01*
X3824Y106D01*
X50Y106D01*
G37*
D02*
G36*
X50Y104D02*
X50Y94D01*
X3844Y94D01*
X3844Y96D01*
X3838Y96D01*
X3838Y98D01*
X3834Y98D01*
X3834Y100D01*
X3830Y100D01*
X3830Y102D01*
X3826Y102D01*
X3826Y104D01*
X50Y104D01*
G37*
D02*
G36*
X3896Y102D02*
X3896Y100D01*
X4430Y100D01*
X4430Y102D01*
X3896Y102D01*
G37*
D02*
G36*
X3896Y102D02*
X3896Y100D01*
X4430Y100D01*
X4430Y102D01*
X3896Y102D01*
G37*
D02*
G36*
X3896Y102D02*
X3896Y100D01*
X4430Y100D01*
X4430Y102D01*
X3896Y102D01*
G37*
D02*
G36*
X4496Y102D02*
X4496Y100D01*
X4656Y100D01*
X4656Y102D01*
X4496Y102D01*
G37*
D02*
G36*
X4496Y102D02*
X4496Y100D01*
X4656Y100D01*
X4656Y102D01*
X4496Y102D01*
G37*
D02*
G36*
X4672Y102D02*
X4672Y100D01*
X5030Y100D01*
X5030Y102D01*
X4672Y102D01*
G37*
D02*
G36*
X4672Y102D02*
X4672Y100D01*
X5030Y100D01*
X5030Y102D01*
X4672Y102D01*
G37*
D02*
G36*
X5096Y102D02*
X5096Y100D01*
X5256Y100D01*
X5256Y102D01*
X5096Y102D01*
G37*
D02*
G36*
X5096Y102D02*
X5096Y100D01*
X5256Y100D01*
X5256Y102D01*
X5096Y102D01*
G37*
D02*
G36*
X5272Y102D02*
X5272Y100D01*
X5666Y100D01*
X5666Y102D01*
X5272Y102D01*
G37*
D02*
G36*
X5272Y102D02*
X5272Y100D01*
X5666Y100D01*
X5666Y102D01*
X5272Y102D01*
G37*
D02*
G36*
X3892Y100D02*
X3892Y98D01*
X3888Y98D01*
X3888Y96D01*
X3882Y96D01*
X3882Y94D01*
X4444Y94D01*
X4444Y96D01*
X4438Y96D01*
X4438Y98D01*
X4434Y98D01*
X4434Y100D01*
X3892Y100D01*
G37*
D02*
G36*
X4492Y100D02*
X4492Y98D01*
X5034Y98D01*
X5034Y100D01*
X4492Y100D01*
G37*
D02*
G36*
X4492Y100D02*
X4492Y98D01*
X5034Y98D01*
X5034Y100D01*
X4492Y100D01*
G37*
D02*
G36*
X5092Y100D02*
X5092Y98D01*
X5666Y98D01*
X5666Y100D01*
X5092Y100D01*
G37*
D02*
G36*
X5092Y100D02*
X5092Y98D01*
X5666Y98D01*
X5666Y100D01*
X5092Y100D01*
G37*
D02*
G36*
X4488Y98D02*
X4488Y96D01*
X4482Y96D01*
X4482Y94D01*
X5044Y94D01*
X5044Y96D01*
X5038Y96D01*
X5038Y98D01*
X4488Y98D01*
G37*
D02*
G36*
X5088Y98D02*
X5088Y96D01*
X5082Y96D01*
X5082Y94D01*
X5666Y94D01*
X5666Y98D01*
X5088Y98D01*
G37*
D02*
G36*
X50Y94D02*
X50Y92D01*
X5666Y92D01*
X5666Y94D01*
X50Y94D01*
G37*
D02*
G36*
X50Y94D02*
X50Y92D01*
X5666Y92D01*
X5666Y94D01*
X50Y94D01*
G37*
D02*
G36*
X50Y94D02*
X50Y92D01*
X5666Y92D01*
X5666Y94D01*
X50Y94D01*
G37*
D02*
G36*
X50Y94D02*
X50Y92D01*
X5666Y92D01*
X5666Y94D01*
X50Y94D01*
G37*
D02*
G36*
X50Y92D02*
X50Y62D01*
X5666Y62D01*
X5666Y92D01*
X50Y92D01*
G37*
D02*
G04 End of Copper0*
M02*