M48
M72,TZ
T10C0.034167
T11C0.035000
T12C0.042000
T13C0.038000
T14C0.031497
%
T10
X1.861110Y2.265910
X1.961100Y2.265910
X2.061100Y2.265910
X2.161110Y2.265910
X2.261110Y2.265910
X2.361110Y2.265910
X2.561100Y2.265910
X2.661110Y2.265910
X2.761110Y2.265910
X2.861110Y2.265910
X2.961100Y2.265910
X3.061100Y2.265910
X3.161110Y2.265910
X3.261110Y2.265910
X1.861110Y0.365910
X1.961100Y0.365910
X2.061100Y0.365910
X2.161110Y0.365910
X2.261110Y0.365910
X2.361110Y0.365910
X2.461100Y0.365910
X2.561100Y0.365910
X2.731110Y0.365910
X2.831110Y0.365910
X2.931110Y0.365910
X3.031100Y0.365910
X3.131100Y0.365910
X3.231110Y0.365910
X3.331110Y0.365910
X3.431110Y0.365910
X3.538110Y0.365910
X3.638110Y0.365910
T11
X1.155600Y0.459610
X0.755599Y0.459610
X4.457410Y2.069612
X4.857410Y2.069612
X1.155600Y0.559610
X0.755599Y0.559610
X4.457410Y1.969612
X4.857410Y1.969612
X1.751900Y0.455910
X1.351900Y0.455910
X3.861110Y2.073312
X4.261110Y2.073312
X1.751900Y0.555910
X1.351900Y0.555910
X3.861110Y1.973312
X4.261110Y1.973312
X0.555600Y0.470710
X0.155600Y0.470710
X5.057410Y2.058512
X5.457410Y2.058512
X1.355600Y2.059613
X1.755600Y2.059613
X4.157410Y0.458510
X3.757410Y0.458510
X0.555600Y0.570710
X0.155600Y0.570710
X5.057410Y1.958512
X5.457410Y1.958512
X1.355600Y1.959613
X1.755600Y1.959613
X4.157410Y0.558510
X3.757410Y0.558510
X0.751900Y2.052213
X1.151900Y2.052213
X4.761110Y0.465910
X4.361110Y0.465910
X0.751900Y1.952213
X1.151900Y1.952213
X4.761110Y0.565910
X4.361110Y0.565910
X0.155600Y2.055913
X0.555600Y2.055913
X5.357410Y0.462210
X4.957410Y0.462210
X5.357410Y0.562210
X4.957410Y0.562210
X0.155600Y1.955913
X0.555600Y1.955913
T12
X1.153600Y0.759610
X0.855599Y0.759610
X4.459410Y1.769612
X4.757410Y1.769612
X0.955600Y0.959610
X1.055600Y0.959610
X1.155600Y0.959610
X4.657410Y1.569612
X4.557410Y1.569612
X4.457410Y1.569612
X1.749890Y0.755910
X1.451890Y0.755910
X3.863110Y1.773312
X4.161110Y1.773312
X1.551890Y0.955910
X1.651890Y0.955910
X1.751890Y0.955910
X4.061110Y1.573312
X3.961110Y1.573312
X3.861110Y1.573312
X0.549900Y0.752210
X0.251900Y0.752210
X5.063110Y1.777012
X5.361110Y1.777012
X1.357600Y1.759613
X1.655600Y1.759613
X4.155410Y0.758510
X3.857410Y0.758510
X0.351900Y0.952210
X0.451900Y0.952210
X0.551900Y0.952210
X5.261110Y1.577012
X5.161110Y1.577012
X5.061110Y1.577012
X1.555600Y1.559613
X1.455600Y1.559613
X1.355600Y1.559613
X3.957410Y0.958510
X4.057410Y0.958510
X4.157410Y0.958510
X0.753900Y1.752213
X1.051900Y1.752213
X4.759110Y0.765910
X4.461110Y0.765910
X0.951899Y1.552213
X0.851899Y1.552213
X0.751899Y1.552213
X4.561110Y0.965910
X4.661110Y0.965910
X4.761110Y0.965910
X0.157600Y1.755913
X0.455600Y1.755913
X5.355410Y0.762210
X5.057410Y0.762210
X0.355600Y1.555913
X0.255600Y1.555913
X0.155600Y1.555913
X5.157410Y0.962210
X5.257410Y0.962210
X5.357410Y0.962210
T13
X0.255600Y0.170710
X0.255600Y0.270710
X0.855599Y0.170710
X0.855599Y0.270710
X4.757410Y2.358512
X4.757410Y2.258512
X1.455600Y0.170710
X1.455600Y0.270710
X4.157410Y2.358512
X4.157410Y2.258512
X5.357410Y2.358512
X5.357410Y2.258512
X1.651900Y2.348513
X1.651900Y2.248513
X3.857410Y0.158510
X3.857410Y0.258510
X1.051900Y2.348513
X1.051900Y2.248513
X4.457410Y0.158510
X4.457410Y0.258510
X5.557410Y0.258510
X5.557410Y0.358510
X5.057410Y0.158510
X5.057410Y0.258510
X0.455599Y2.359613
X0.455599Y2.259613
T14
X1.055600Y0.170720
X1.055600Y0.269150
X4.557410Y2.358512
X4.557410Y2.260079
X1.655600Y0.170720
X1.655600Y0.269150
X3.957410Y2.358512
X3.957410Y2.260079
X0.455604Y0.170720
X0.455604Y0.269150
X5.157410Y2.358512
X5.157410Y2.260079
X1.455600Y2.359613
X1.455600Y2.261180
X4.057410Y0.158520
X4.057410Y0.256950
X0.855593Y2.359613
X0.855593Y2.261180
X4.657420Y0.158520
X4.657420Y0.256950
X0.255606Y2.359613
X0.255606Y2.261180
X5.257410Y0.158520
X5.257410Y0.256950
T00
M30
