G04 MADE WITH FRITZING*
G04 WWW.FRITZING.ORG*
G04 DOUBLE SIDED*
G04 HOLES PLATED*
G04 CONTOUR ON CENTER OF CONTOUR VECTOR*
%ASAXBY*%
%FSLAX23Y23*%
%MOIN*%
%OFA0B0*%
%SFA1.0B1.0*%
%ADD10C,0.075833*%
%ADD11C,0.075000*%
%ADD12C,0.082000*%
%ADD13C,0.078000*%
%ADD14C,0.062992*%
%ADD15R,0.075000X0.075000*%
%ADD16R,0.082000X0.082000*%
%ADD17R,0.078000X0.078000*%
%ADD18R,0.062992X0.062992*%
%ADD19C,0.024000*%
%LNCOPPER1*%
G90*
G70*
G54D10*
X3638Y366D03*
X3538Y366D03*
X3431Y366D03*
X3331Y366D03*
X3231Y366D03*
X3131Y366D03*
X3031Y366D03*
X2931Y366D03*
X2831Y366D03*
X2731Y366D03*
X2561Y366D03*
X2461Y366D03*
X2361Y366D03*
X2261Y366D03*
X2161Y366D03*
X2061Y366D03*
X1961Y366D03*
X1861Y366D03*
X3261Y2266D03*
X3161Y2266D03*
X3061Y2266D03*
X2961Y2266D03*
X2861Y2266D03*
X2761Y2266D03*
X2661Y2266D03*
X2561Y2266D03*
X2361Y2266D03*
X2261Y2266D03*
X2161Y2266D03*
X2061Y2266D03*
X1961Y2266D03*
X1861Y2266D03*
G54D11*
X556Y1956D03*
X156Y1956D03*
X4957Y562D03*
X5357Y562D03*
G54D12*
X5357Y962D03*
X5257Y962D03*
X5157Y962D03*
X156Y1556D03*
X256Y1556D03*
X356Y1556D03*
G54D13*
X456Y2260D03*
X456Y2360D03*
X5057Y259D03*
X5057Y159D03*
G54D12*
X5057Y762D03*
X5355Y762D03*
X456Y1756D03*
X158Y1756D03*
G54D11*
X4957Y462D03*
X5357Y462D03*
X556Y2056D03*
X156Y2056D03*
G54D14*
X5257Y257D03*
X5257Y159D03*
X256Y2261D03*
X256Y2360D03*
G54D13*
X5557Y359D03*
X5557Y259D03*
G54D11*
X4361Y566D03*
X4761Y566D03*
X1152Y1952D03*
X752Y1952D03*
G54D12*
X4761Y966D03*
X4661Y966D03*
X4561Y966D03*
X752Y1552D03*
X852Y1552D03*
X952Y1552D03*
G54D13*
X4457Y259D03*
X4457Y159D03*
X1052Y2249D03*
X1052Y2349D03*
G54D12*
X4461Y766D03*
X4759Y766D03*
X1052Y1752D03*
X754Y1752D03*
G54D11*
X4361Y466D03*
X4761Y466D03*
X1152Y2052D03*
X752Y2052D03*
G54D14*
X4657Y257D03*
X4657Y159D03*
X856Y2261D03*
X856Y2360D03*
G54D11*
X3757Y559D03*
X4157Y559D03*
X1756Y1960D03*
X1356Y1960D03*
X5457Y1959D03*
X5057Y1959D03*
X156Y571D03*
X556Y571D03*
G54D12*
X4157Y959D03*
X4057Y959D03*
X3957Y959D03*
X1356Y1560D03*
X1456Y1560D03*
X1556Y1560D03*
X5061Y1577D03*
X5161Y1577D03*
X5261Y1577D03*
X552Y952D03*
X452Y952D03*
X352Y952D03*
G54D13*
X3857Y259D03*
X3857Y159D03*
X1652Y2249D03*
X1652Y2349D03*
X5357Y2259D03*
X5357Y2359D03*
G54D12*
X3857Y759D03*
X4155Y759D03*
X1656Y1760D03*
X1358Y1760D03*
X5361Y1777D03*
X5063Y1777D03*
X252Y752D03*
X550Y752D03*
G54D11*
X3757Y459D03*
X4157Y459D03*
X1756Y2060D03*
X1356Y2060D03*
X5457Y2059D03*
X5057Y2059D03*
X156Y471D03*
X556Y471D03*
G54D14*
X4057Y257D03*
X4057Y159D03*
X1456Y2261D03*
X1456Y2360D03*
X5157Y2260D03*
X5157Y2359D03*
X456Y269D03*
X456Y171D03*
G54D11*
X4261Y1973D03*
X3861Y1973D03*
X1352Y556D03*
X1752Y556D03*
G54D12*
X3861Y1573D03*
X3961Y1573D03*
X4061Y1573D03*
X1752Y956D03*
X1652Y956D03*
X1552Y956D03*
G54D13*
X4157Y2259D03*
X4157Y2359D03*
X1456Y271D03*
X1456Y171D03*
G54D12*
X4161Y1773D03*
X3863Y1773D03*
X1452Y756D03*
X1750Y756D03*
G54D11*
X4261Y2073D03*
X3861Y2073D03*
X1352Y456D03*
X1752Y456D03*
G54D14*
X3957Y2260D03*
X3957Y2359D03*
X1656Y269D03*
X1656Y171D03*
G54D11*
X4857Y1970D03*
X4457Y1970D03*
X756Y560D03*
X1156Y560D03*
G54D12*
X4457Y1570D03*
X4557Y1570D03*
X4657Y1570D03*
X1156Y960D03*
X1056Y960D03*
X956Y960D03*
G54D13*
X4757Y2259D03*
X4757Y2359D03*
X856Y271D03*
X856Y171D03*
G54D12*
X4757Y1770D03*
X4459Y1770D03*
X856Y760D03*
X1154Y760D03*
G54D11*
X4857Y2070D03*
X4457Y2070D03*
X756Y460D03*
X1156Y460D03*
G54D14*
X4557Y2260D03*
X4557Y2359D03*
X1056Y269D03*
X1056Y171D03*
G54D13*
X256Y271D03*
X256Y171D03*
G54D15*
X556Y1956D03*
X4957Y562D03*
G54D16*
X5357Y962D03*
X156Y1556D03*
G54D17*
X456Y2260D03*
X5057Y259D03*
G54D16*
X5056Y762D03*
X457Y1756D03*
G54D15*
X4957Y462D03*
X556Y2056D03*
G54D18*
X5257Y257D03*
X256Y2261D03*
G54D17*
X5557Y359D03*
G54D15*
X4361Y566D03*
X1152Y1952D03*
G54D16*
X4761Y966D03*
X752Y1552D03*
G54D17*
X4457Y259D03*
X1052Y2249D03*
G54D16*
X4460Y766D03*
X1053Y1752D03*
G54D15*
X4361Y466D03*
X1152Y2052D03*
G54D18*
X4657Y257D03*
X856Y2261D03*
G54D15*
X3757Y559D03*
X1756Y1960D03*
X5457Y1959D03*
X156Y571D03*
G54D16*
X4157Y959D03*
X1356Y1560D03*
X5061Y1577D03*
X552Y952D03*
G54D17*
X3857Y259D03*
X1652Y2249D03*
X5357Y2259D03*
G54D16*
X3856Y759D03*
X1657Y1760D03*
X5362Y1777D03*
X251Y752D03*
G54D15*
X3757Y459D03*
X1756Y2060D03*
X5457Y2059D03*
X156Y471D03*
G54D18*
X4057Y257D03*
X1456Y2261D03*
X5157Y2260D03*
X456Y269D03*
G54D15*
X4261Y1973D03*
X1352Y556D03*
G54D16*
X3861Y1573D03*
X1752Y956D03*
G54D17*
X4157Y2259D03*
X1456Y271D03*
G54D16*
X4162Y1773D03*
X1451Y756D03*
G54D15*
X4261Y2073D03*
X1352Y456D03*
G54D18*
X3957Y2260D03*
X1656Y269D03*
G54D15*
X4857Y1970D03*
X756Y560D03*
G54D16*
X4457Y1570D03*
X1156Y960D03*
G54D17*
X4757Y2259D03*
X856Y271D03*
G54D16*
X4758Y1770D03*
X855Y760D03*
G54D15*
X4857Y2070D03*
X756Y460D03*
G54D18*
X4557Y2260D03*
X1056Y269D03*
G54D17*
X256Y271D03*
G54D19*
X5461Y2177D02*
X5365Y2181D01*
D02*
X152Y352D02*
X248Y349D01*
D02*
X5365Y2181D02*
X5361Y1804D01*
D02*
X248Y349D02*
X252Y726D01*
D02*
X156Y171D02*
X152Y352D01*
D02*
X5457Y2359D02*
X5461Y2177D01*
D02*
X230Y171D02*
X156Y171D01*
D02*
X5383Y2359D02*
X5457Y2359D01*
D02*
X4457Y1866D02*
X4459Y1796D01*
D02*
X1156Y663D02*
X1154Y733D01*
D02*
X4657Y1866D02*
X4457Y1866D01*
D02*
X956Y663D02*
X1156Y663D01*
D02*
X4657Y2266D02*
X4657Y1866D01*
D02*
X956Y263D02*
X956Y663D01*
D02*
X4732Y2260D02*
X4657Y2266D01*
D02*
X881Y269D02*
X956Y263D01*
D02*
X4061Y1870D02*
X3861Y1870D01*
D02*
X1552Y660D02*
X1752Y660D01*
D02*
X4057Y2259D02*
X4061Y1870D01*
D02*
X1556Y271D02*
X1552Y660D01*
D02*
X4132Y2259D02*
X4057Y2259D01*
D02*
X1481Y271D02*
X1556Y271D01*
D02*
X3861Y1870D02*
X3863Y1800D01*
D02*
X1752Y660D02*
X1750Y729D01*
D02*
X5134Y2260D02*
X5057Y2259D01*
D02*
X479Y270D02*
X556Y271D01*
D02*
X5057Y2259D02*
X5057Y2083D01*
D02*
X556Y271D02*
X556Y446D01*
D02*
X4257Y2359D02*
X4261Y2173D01*
D02*
X1356Y171D02*
X1352Y356D01*
D02*
X4183Y2359D02*
X4257Y2359D01*
D02*
X1430Y171D02*
X1356Y171D01*
D02*
X4261Y2173D02*
X4165Y2177D01*
D02*
X1352Y356D02*
X1448Y352D01*
D02*
X4165Y2177D02*
X4161Y1800D01*
D02*
X1448Y352D02*
X1452Y729D01*
D02*
X5257Y2259D02*
X5261Y1873D01*
D02*
X356Y271D02*
X352Y656D01*
D02*
X5261Y1873D02*
X5061Y1873D01*
D02*
X352Y656D02*
X552Y656D01*
D02*
X5332Y2259D02*
X5257Y2259D01*
D02*
X281Y271D02*
X356Y271D01*
D02*
X5061Y1873D02*
X5063Y1804D01*
D02*
X552Y656D02*
X550Y726D01*
D02*
X4857Y566D02*
X4786Y566D01*
D02*
X656Y1952D02*
X727Y1952D01*
D02*
X4865Y966D02*
X4857Y566D01*
D02*
X648Y1552D02*
X656Y1952D01*
D02*
X4788Y966D02*
X4865Y966D01*
D02*
X725Y1552D02*
X648Y1552D01*
D02*
X3765Y1973D02*
X3836Y1973D01*
D02*
X1848Y556D02*
X1777Y556D01*
D02*
X3757Y1573D02*
X3765Y1973D01*
D02*
X1856Y956D02*
X1848Y556D01*
D02*
X3835Y1573D02*
X3757Y1573D01*
D02*
X1779Y956D02*
X1856Y956D01*
D02*
X4361Y491D02*
X4361Y541D01*
D02*
X1152Y2027D02*
X1152Y1977D01*
D02*
X4534Y2260D02*
X4457Y2259D01*
D02*
X1079Y270D02*
X1156Y271D01*
D02*
X4457Y2259D02*
X4457Y2094D01*
D02*
X1156Y271D02*
X1156Y435D01*
D02*
X4733Y766D02*
X4665Y766D01*
D02*
X781Y1752D02*
X848Y1752D01*
D02*
X4665Y766D02*
X4662Y939D01*
D02*
X848Y1752D02*
X851Y1579D01*
D02*
X5454Y562D02*
X5382Y562D01*
D02*
X59Y1956D02*
X131Y1956D01*
D02*
X5461Y962D02*
X5454Y562D01*
D02*
X52Y1556D02*
X59Y1956D01*
D02*
X5384Y962D02*
X5461Y962D01*
D02*
X129Y1556D02*
X52Y1556D01*
D02*
X3957Y259D02*
X3957Y662D01*
D02*
X1556Y2256D02*
X1556Y1856D01*
D02*
X3957Y662D02*
X4157Y662D01*
D02*
X1556Y1856D02*
X1356Y1856D01*
D02*
X3883Y259D02*
X3957Y259D01*
D02*
X1626Y2250D02*
X1556Y2256D01*
D02*
X4157Y662D02*
X4156Y732D01*
D02*
X1356Y1856D02*
X1357Y1786D01*
D02*
X4254Y559D02*
X4182Y559D01*
D02*
X1259Y1960D02*
X1331Y1960D01*
D02*
X4261Y959D02*
X4254Y559D01*
D02*
X1252Y1560D02*
X1259Y1960D01*
D02*
X4184Y959D02*
X4261Y959D01*
D02*
X1329Y1560D02*
X1252Y1560D01*
D02*
X4080Y257D02*
X4157Y259D01*
D02*
X1433Y2260D02*
X1356Y2256D01*
D02*
X4157Y259D02*
X4157Y434D01*
D02*
X1356Y2256D02*
X1356Y2084D01*
D02*
X4857Y2045D02*
X4857Y1994D01*
D02*
X756Y484D02*
X756Y535D01*
D02*
X5035Y1577D02*
X4957Y1577D01*
D02*
X579Y952D02*
X656Y952D01*
D02*
X4957Y1577D02*
X4956Y1960D01*
D02*
X656Y952D02*
X648Y552D01*
D02*
X4956Y1960D02*
X5033Y1959D01*
D02*
X648Y552D02*
X580Y566D01*
D02*
X5083Y259D02*
X5157Y259D01*
D02*
X430Y2260D02*
X356Y2260D01*
D02*
X5157Y259D02*
X5157Y666D01*
D02*
X356Y2260D02*
X356Y1852D01*
D02*
X5157Y666D02*
X5357Y666D01*
D02*
X356Y1852D02*
X156Y1852D01*
D02*
X5357Y666D02*
X5356Y736D01*
D02*
X156Y1852D02*
X157Y1783D01*
D02*
X4361Y1970D02*
X4433Y1970D01*
D02*
X1252Y560D02*
X1180Y560D01*
D02*
X4354Y1570D02*
X4361Y1970D01*
D02*
X1259Y960D02*
X1252Y560D01*
D02*
X4431Y1570D02*
X4354Y1570D01*
D02*
X1182Y960D02*
X1259Y960D01*
D02*
X5157Y1777D02*
X5161Y1604D01*
D02*
X456Y752D02*
X452Y926D01*
D02*
X5090Y1777D02*
X5157Y1777D01*
D02*
X523Y752D02*
X456Y752D01*
D02*
X5261Y762D02*
X5258Y936D01*
D02*
X252Y1756D02*
X255Y1583D01*
D02*
X5329Y762D02*
X5261Y762D01*
D02*
X184Y1756D02*
X252Y1756D01*
D02*
X4486Y1770D02*
X4554Y1770D01*
D02*
X1127Y760D02*
X1059Y760D01*
D02*
X4554Y1770D02*
X4557Y1596D01*
D02*
X1059Y760D02*
X1056Y933D01*
D02*
X3934Y2260D02*
X3857Y2259D01*
D02*
X1679Y270D02*
X1756Y271D01*
D02*
X3857Y2259D02*
X3861Y2098D01*
D02*
X1756Y271D02*
X1752Y431D01*
D02*
X4129Y759D02*
X4061Y759D01*
D02*
X1384Y1760D02*
X1452Y1760D01*
D02*
X4061Y759D02*
X4058Y932D01*
D02*
X1452Y1760D02*
X1455Y1586D01*
D02*
X4761Y670D02*
X4760Y739D01*
D02*
X752Y1849D02*
X753Y1779D01*
D02*
X4561Y670D02*
X4761Y670D01*
D02*
X952Y1849D02*
X752Y1849D01*
D02*
X4556Y260D02*
X4561Y670D01*
D02*
X952Y2249D02*
X952Y1849D01*
D02*
X4483Y259D02*
X4556Y260D01*
D02*
X1026Y2249D02*
X952Y2249D01*
D02*
X3957Y1773D02*
X3961Y1600D01*
D02*
X1656Y756D02*
X1652Y929D01*
D02*
X3890Y1773D02*
X3957Y1773D01*
D02*
X1723Y756D02*
X1656Y756D01*
D02*
X5357Y259D02*
X5357Y437D01*
D02*
X156Y2260D02*
X156Y2081D01*
D02*
X5280Y257D02*
X5357Y259D01*
D02*
X233Y2261D02*
X156Y2260D01*
D02*
X3757Y483D02*
X3757Y534D01*
D02*
X1756Y2035D02*
X1756Y1984D01*
D02*
X4261Y2048D02*
X4261Y1998D01*
D02*
X1352Y481D02*
X1352Y531D01*
D02*
X4757Y259D02*
X4761Y441D01*
D02*
X756Y2260D02*
X752Y2077D01*
D02*
X4680Y257D02*
X4757Y259D01*
D02*
X833Y2261D02*
X756Y2260D01*
D02*
X4957Y487D02*
X4957Y537D01*
D02*
X556Y2031D02*
X556Y1981D01*
D02*
X5457Y2034D02*
X5457Y1983D01*
D02*
X156Y496D02*
X156Y546D01*
D02*
X4857Y2159D02*
X4857Y2359D01*
D02*
X756Y371D02*
X756Y171D01*
D02*
X4757Y2159D02*
X4857Y2159D01*
D02*
X856Y371D02*
X756Y371D01*
D02*
X4857Y2359D02*
X4783Y2359D01*
D02*
X756Y171D02*
X830Y171D01*
D02*
X4757Y1796D02*
X4757Y2159D01*
D02*
X856Y733D02*
X856Y371D01*
D02*
X5357Y2459D02*
X5657Y2459D01*
D02*
X5657Y2459D02*
X5657Y259D01*
D02*
X5657Y259D02*
X5583Y259D01*
D02*
X5357Y2384D02*
X5357Y2459D01*
D02*
X4757Y2459D02*
X5657Y2459D01*
D02*
X5657Y259D02*
X5583Y259D01*
D02*
X5657Y2459D02*
X5657Y259D01*
D02*
X4757Y2384D02*
X4757Y2459D01*
D02*
X4161Y2466D02*
X5657Y2459D01*
D02*
X5657Y259D02*
X5583Y259D01*
D02*
X5657Y2459D02*
X5657Y259D01*
D02*
X4158Y2384D02*
X4161Y2466D01*
D02*
X3733Y559D02*
X3250Y562D01*
D02*
X3250Y562D02*
X3233Y391D01*
D02*
X3161Y1066D02*
X3132Y391D01*
D02*
X4361Y591D02*
X4361Y1066D01*
D02*
X4361Y1066D02*
X3161Y1066D01*
D02*
X3065Y1162D02*
X3032Y391D01*
D02*
X4961Y1166D02*
X3065Y1162D01*
D02*
X4958Y587D02*
X4961Y1166D01*
D02*
X5461Y1266D02*
X2961Y1266D01*
D02*
X5458Y1934D02*
X5461Y1266D01*
D02*
X2961Y1266D02*
X2932Y391D01*
D02*
X2857Y1362D02*
X2832Y391D01*
D02*
X4858Y1945D02*
X4861Y1366D01*
D02*
X4861Y1366D02*
X2857Y1362D01*
D02*
X4261Y1466D02*
X2761Y1466D01*
D02*
X2761Y1466D02*
X2732Y391D01*
D02*
X4261Y1948D02*
X4261Y1466D01*
D02*
X456Y2156D02*
X559Y2156D01*
D02*
X559Y2156D02*
X559Y2356D01*
D02*
X559Y2356D02*
X481Y2359D01*
D02*
X456Y1783D02*
X456Y2156D01*
D02*
X1056Y2156D02*
X1159Y2156D01*
D02*
X1159Y2156D02*
X1152Y2349D01*
D02*
X1152Y2349D02*
X1078Y2349D01*
D02*
X1052Y1779D02*
X1056Y2156D01*
D02*
X4158Y2384D02*
X4161Y2466D01*
D02*
X1752Y2149D02*
X1652Y2149D01*
D02*
X1652Y2149D02*
X1655Y1786D01*
D02*
X3857Y359D02*
X3757Y359D01*
D02*
X3757Y359D02*
X3757Y159D01*
D02*
X3757Y159D02*
X3832Y159D01*
D02*
X3857Y732D02*
X3857Y359D01*
D02*
X4457Y359D02*
X4461Y739D01*
D02*
X4357Y359D02*
X4457Y359D01*
D02*
X4357Y159D02*
X4357Y359D01*
D02*
X4432Y159D02*
X4357Y159D01*
D02*
X5057Y359D02*
X4957Y359D01*
D02*
X4957Y359D02*
X4957Y159D01*
D02*
X5057Y736D02*
X5057Y359D01*
D02*
X4957Y159D02*
X5032Y159D01*
D02*
X2561Y1966D02*
X2561Y391D01*
D02*
X1780Y1960D02*
X2561Y1966D01*
D02*
X1156Y1460D02*
X2461Y1466D01*
D02*
X1152Y1927D02*
X1156Y1460D01*
D02*
X2461Y1466D02*
X2461Y391D01*
D02*
X2361Y1366D02*
X2361Y391D01*
D02*
X556Y1931D02*
X556Y1360D01*
D02*
X556Y1360D02*
X2361Y1366D01*
D02*
X156Y1260D02*
X2261Y1266D01*
D02*
X2261Y1266D02*
X2261Y391D01*
D02*
X156Y596D02*
X156Y1260D01*
D02*
X2161Y1166D02*
X2161Y391D01*
D02*
X756Y1160D02*
X2161Y1166D01*
D02*
X756Y584D02*
X756Y1160D01*
D02*
X2061Y1066D02*
X2061Y391D01*
D02*
X1356Y1060D02*
X2061Y1066D01*
D02*
X1352Y581D02*
X1356Y1060D01*
D02*
X1656Y2456D02*
X1653Y2374D01*
D02*
X1052Y2449D02*
X1052Y2374D01*
D02*
X1656Y2456D02*
X1052Y2449D01*
D02*
X452Y2449D02*
X455Y2385D01*
D02*
X1052Y2449D02*
X452Y2449D01*
D02*
X5057Y59D02*
X5057Y133D01*
D02*
X5557Y59D02*
X5057Y59D01*
D02*
X5557Y233D02*
X5557Y59D01*
D02*
X4457Y59D02*
X4457Y133D01*
D02*
X5057Y59D02*
X4457Y59D01*
D02*
X4457Y59D02*
X3857Y59D01*
D02*
X3857Y59D02*
X3857Y133D01*
D02*
X1456Y60D02*
X1456Y145D01*
D02*
X3857Y59D02*
X1456Y60D01*
D02*
X852Y60D02*
X855Y145D01*
D02*
X1456Y60D02*
X852Y60D01*
D02*
X252Y60D02*
X255Y145D01*
D02*
X852Y60D02*
X252Y60D01*
D02*
X1752Y2149D02*
X1752Y2349D01*
D02*
X1752Y2349D02*
X1678Y2349D01*
D02*
X1656Y2460D02*
X1653Y2374D01*
D02*
X4161Y2466D02*
X1656Y2460D01*
G04 End of Copper1*
M02*